<?xml version="1.0" encoding="UTF-8"?><svg id="Layer_1" xmlns="http://www.w3.org/2000/svg" viewBox="0 0 400 400"><defs><style>.cls-1{fill:#f1b9aa;}.cls-2{fill:#ff4814;}.cls-3{fill:#6c702f;}.cls-4{fill:#bbc6bb;}.cls-5{fill:#c3d2c1;}.cls-6{fill:#1a3c34;}</style></defs><path class="cls-3" d="m202.11,90.36c-6.09-10.57-26.44-21.15-37.55-24.96-13.12-4.55-31.59-3.81-45.38-4.08-8.37-.2-15.93,2.81-24.63,2.01-9.1-.94-15.39.2-23.02,5.62-6.69,4.75-13.32,8.77-16.4,16.46-3.08,7.83-5.82,11.78-10.71,18.47-12.05,16.53-12.45,36.88-11.51,57.02.8,17.33,2.54,36.28,7.76,51.94,4.22,12.58,11.51,28.24,20.01,38.89,6.36,7.9,11.98,16.73,19.21,23.83,8.3,8.17,17.94,14.86,26.1,23.09,15.39,15.66,30.65,27.11,48.32,40.02,6.29,4.62,12.58,8.97,18.87,13.39,5.82,4.08,10.78,11.85,16.53,14.99,8.97,4.82,25.7-10.11,32.93-15.8,15.13-11.98,29.92-24.36,44.71-36.68,13.45-11.18,23.49-25.16,36.07-37.08,6.43-6.09,12.11-13.25,18.41-19.81,5.42-5.69,12.38-9.5,16.13-16.6,7.09-13.52,13.32-26.17,17.13-41.9,4.48-18.61,15.26-37.01,11.51-56.02-1.2-6.16-.8-13.52-2.28-19.14-.87-3.48-3.55-6.22-4.68-9.37-.94-2.81-1.27-6.22-2.07-9.17-2.21-8.3-2.61-15.53-8.5-22.42-6.22-7.3-14.72-17.8-23.22-21.89-21.15-10.17-43.17-9.64-65.59-8.7-3.81.13-6.63-.87-10.17.87-3.55,1.74-5.29,6.49-8.5,8.17-4.35,2.28-7.5,1.27-11.58,5.02-3.28,2.94-5.69,6.76-9.24,9.57-6.36,5.02-12.52,9.3-18.67,14.26Z"/><path class="cls-5" d="m238.52,92.1c.6-.27,1.14-.33,1.61-.33-.54.27-1,.47-1.54.74-.07-.13-.07-.27-.07-.4Z"/><path class="cls-4" d="m65.71,131.93c.13-1.81.54-3.61.54-5.42,0-2.21,1.74-3.88,2.34-5.96,1.34-4.42,4.22-8.17,7.96-11.44,4.02-3.48,8.57-6.43,12.92-9.57.94-.67,2.07-1.14,3.15-1.67,4.08-2.07,8.37-3.41,12.78-4.48,4.75-1.07,9.64-1.94,14.39-3.01,2.54-.54,4.95-.74,7.36-.47,3.68.4,7.36.74,10.98,1.2,2.61.33,5.15,1.07,7.83,1.34,4.82.54,9.44,1.54,14.05,2.68,4.08,1,8.03,2.34,12.18,3.35.94.2,1.81.47,2.68.8,5.56.54,10.91,6.22,13.45,7.09,8.23,2.94,12.92,7.7,22.89,4.82,7.3-2.07,14.66-12.25,21.35-15.8l7.43-3.61c4.55-2.07,9.17-4.08,13.72-6.22,2.14-1,4.35-2.01,6.49-3.08,2.01-1,4.08-2.01,6.09-2.94,2.74-1.34,5.56-1.87,8.43-1.67,5.02.33,9.84,1.2,14.32,2.94,2.07.8,4.15,1.41,6.43,1.74,1.34.2,2.94.47,3.81,1.2,2.41,2.28,5.62,3.35,8.7,4.75,1.2.54,2.41,1.07,3.41,1.87,2.48,1.94,5.09,3.68,8.03,5.02.8.4,1.67,1.07,1.94,1.81,1.07,3.15,2.74,5.96,5.02,8.5.27.33.54.74.67,1.14.67,1.81,1.27,3.68,1.87,5.49,2.28,2.88,4.08,6.56,5.15,11.18,4.35,18.41-.47,41.5-4.62,60.5-9.17,42.16-29.85,79.44-64.18,106.42-11.91,9.37-24.63,17.54-36.61,26.91-6.56,5.15-15.26,9.64-23.89,11.85-2.68,1.14-5.42,1.74-8.1,1.81l.13-.54c-3.75.27-12.72,1.47-16,.47-13.72-4.15-24.03-15.86-36.41-22.35-13.59-7.09-19.74-19.28-29.98-30.65-15.86-17.74-30.25-40.16-40.76-61.91-8.43-17.4-11.58-37.28-13.12-56.76-.94-11.65.74-19.07,5.15-27.31Z"/><path class="cls-6" d="m253.92,283.25c-3.35.94-6.43,1.41-9.1,1.67-.6.07-1.27.13-2.01.27-1.27.2-2.74.4-4.42.47-.13,0-.27,0-.4.07-2.21.2-4.22.27-6.22.33l-1.14.07c-2.01.07-4.02.13-5.96.2-1.07.07-2.14.07-3.21.13h-.87c-2.81.33-6.09.6-9.57.47-1.61.2-3.21.4-4.75.54-6.83.8-13.32.87-19.61.87h-2.54c-2.07,0-4.22.27-6.69.54-2.94.33-6.36.67-10.04.67-4.48,1-8.7.74-12.58-.74-4.02-.4-7.7-1.87-10.64-4.35-1.54-1.34-2.88-2.88-3.88-4.68-4.89-1.74-8.9-4.35-12.25-7.76-.87-.94-1.74-1.87-2.81-3.08l-.13-.13c-.94-1.07-2.41-2.74-3.68-5.22-.33-.33-.67-.67-1.07-.94-2.34-2.01-4.28-4.15-5.76-6.49-1.61-2.54-2.94-5.02-4.15-7.16-1.34-2.54-2.61-5.02-3.75-7.3l-.2-.4c-.74-1.41-1.54-3.15-2.34-5.29-2.01-5.62-3.75-11.38-5.15-17.07-.54-2.34-1.2-5.09-1.41-8.3-.07-.47-.13-1-.2-1.67-.07-.27-.2-.74-.27-1.2-.2-.74-.4-1.61-.6-2.68-.87-4.35-2.01-8.83-3.28-13.59-.74-2.68-1.41-5.49-2.14-8.3-.4-1.54-.6-1.41-.87-2.74-.47-.47-1.07-.94-1.61-1.54l-1.61-1.61s-5.82-5.22-7.96-12.38c-1.34-4.48-2.01-9.17-1.94-13.85.13-7.16,4.68-13.45,11.38-15.59,4.82-1.54,1.07-1.07,4.62-1.2,1.14-.07,2.28-.07,3.08-.2.13,0,.47-.07.74-.13.74-.13,1.81-.27,3.01-.4,2.34-.2,4.68-.33,6.96-.47l1.14-.07c.94-.07,2.54-.2,4.35,0,1.07.07,1.54.07,1.74.07l.4-.07c1.54-.2,3.01-.33,3.95-.54,2.14-.54,4.35-.67,6.49-.47,1.47.13,3.08.33,4.89.54.94-.07,1.81-.13,2.54-.27.4-.07,1.2-.27,1.94-.4.33-.07.67-.13.94-.2,5.69-1.34,11.11-1.87,16.6-2.34,2.21-.2,4.28-.33,6.36-.47,2.28-.13,4.42-.27,6.43-.47,2.61-.27,5.15-.47,7.63-.67,4.62-.33,9.04-.74,13.32-1.27,2.01-.27,3.88-.4,5.69-.54.87-.07,1.74-.13,2.54-.2,5.62-.54,11.31-.47,17.47.13,2.94.27,6.09.54,9.3.67,2.28.13,4.55.13,6.69.07,2.21-.07,4.48-.27,6.83-.47,1.41-.13,2.88-.33,4.42-.54,1.34-.2,2.68-.33,4.08-.54,9.17-1.07,17.94-.2,25.63.54,7.96.8,14.86,1.47,21.22.2h.13c2.68-.54,4.62,1.34,10.71,4.02,5.82,2.54,7.09,4.68,8.3,11.04,1.14,6.09,2.41,12.25-1.87,16.53-2.21,2.21-.94,3.88-2.07,4.42-.47.54-1.41,2.41-1.87,5.35-1.54,9.77-2.34,19.41-2.21,27.91.07,3.01-.13,6.09-.54,9.1-.07.54-.13,1.07-.2,1.54-.33,2.68-.67,5.15-.8,7.36v.13c0,.94-.07,2.74-.54,4.95-.13.4-.2,1.47-.27,2.28-.07.54-.13,1.07-.2,1.67-.07.4-.07.8-.13,1.2-4.68,6.89-9.17,17.8-12.05,21.42-5.35,6.69-11.85,12.52-16.53,19.54-3.28,4.82-6.96,15.26-12.85,16.53"/><path class="cls-1" d="m272.72,174.96c-1.07,11.91-2.14,23.83-3.28,35.74-.74,8.37-3.41,16.93-5.69,25.03-.2.74-.47,1.47-.74,2.21-.27.67-.6,1.34-.87,2.01-.87,2.41-2.34,4.55-4.15,6.36-.47.47-.67.94-.8,1.54-1,4.75-4.15,8.7-7.23,12.31-.6.74-1.27,1.47-2.07,1.87s-1.81.54-2.74.67c-4.08.47-7.76.13-11.78.13-1.07.07-2.14.13-3.21.2-1.14.07-2.34.13-3.48.2-1.54.07-3.01.07-4.55-.13-.74-.13-1.47-.07-2.21,0-.87.13-1.74.2-2.61.27-1.47.13-3.01.27-4.48.4-.13,0-.27.07-.4.07-3.75.2-7.43.4-11.11.54-3.08.13-6.09-.13-9.17-.4-2.48-.27-5.02-.4-7.5-.6-1.41-.13-2.74-.33-4.08-.4-1.74-.13-3.41-.33-5.15-.2-2.94.27-5.96.33-8.9.47-1.34.07-2.68.2-4.02.13-1.14-.07-2.28-.27-3.48-.47-.47-.07-.87-.33-1.27-.6-.87-.6-1.81-.94-2.81-1.34-.54-.2-.87-.47-1.2-.94-2.81-4.02-4.95-8.5-7.9-12.45-2.94-3.95-7.16-6.63-10.44-10.31-2.28-2.54-4.08-5.35-5.69-8.3-3.61-6.69-4.22-13.92-6.49-21.08-1.67-5.35-3.41-10.78-3.88-16.4-.67-7.7.87-16-2.54-22.96-.33-.74-.8-1.47-1.41-2.01-2.28-2.01-4.55-.4-7.03-.2-2.14.13-4.35-.27-6.49-.4-.4,0-.87-.13-1.27-.07-1.54.07-2.94-.47-4.42-.74-.33-.07-.67-.13-1-.2-4.42-.87-1.47-5.96,1.14-7.16,1.67-.74,3.55-.94,5.42-1.07,8.9-.67,17.8-.87,26.7-.67,7.09.13,14.05-1.54,20.88-3.48,1.94-.54,3.81-.54,5.76-.4,1.94.2,3.88-.07,5.82-.07,1.74,0,3.41-.13,5.15-.07,1.74.07,3.41-.2,5.15-.27,2.48-.13,5.02-.47,7.5-.47,2.07,0,4.15-.2,6.22-.47,1.27-.2,2.61-.2,3.88-.2,2.48,0,4.89.07,7.36.13,1.87.07,3.75.13,5.56.2.67,0,1.41,0,2.07-.07,3.88-.07,7.76.07,11.65.2,3.28.07,6.56.07,9.84-.2,2.74-.2,5.42-.47,8.1-.67.74-.07,1.47,0,2.21-.07,2.68-.2,5.35-.33,7.96-.54,3.41-.2,6.83-.4,10.24-.54,1.87-.07,3.81.13,5.69.2,1.61.07,3.21.13,4.75.2,8.43.27,17.07.87,25.5,2.41.74.13,1.54.33,2.01.87.4.47.47,1.07.54,1.67.27,2.74.2,5.56-.13,8.3-5.42.4-11.71-.74-16.93,1.14-.47.2-1,.4-1.27.87-.27.4-.33.87-.33,1.41-.33,2.81-.6,5.82-.87,8.83Z"/><path class="cls-2" d="m206.13,236.6c-.67,1.81-4.89-.27-6.22-1.41-2.01-1.67-3.41-4.08-5.35-5.76-4.35-3.68-7.76-7.96-10.98-12.65-1.67-2.41-3.21-4.95-4.15-7.7-1-2.74-.94-5.29-1.34-8.1-.33-2.61-.67-5.42.47-7.96.87-1.94,2.41-5.15,4.55-5.76,1-.33,2.54-.74,3.55-.54,1.41.27,2.21,1.47,3.48,2.01,1.27.6,2.54.87,3.75,1.67,1.2.87,2.21,1.94,2.81,3.28.6-.07,1.2-3.41,1.41-4.02.4-1.2,1.07-2.28,1.94-3.28.74-.87,1.54-1.74,2.41-2.54,1-.94,2.21-1.27,3.68-1.2,1.54.07,2.88.4,4.28.87,1.47.47,3.08.8,4.42,1.54,1.07.6,2.21,1.81,2.94,2.74.87,1.14.94,2.61,1.27,3.95.4,1.54,0,2.88.07,4.35.07,1.14.2,2.14-.07,3.28-.27,1.27.07,2.01.13,3.21,0,1.07-.27,2.14-.67,3.08-.4,1-.54,2.07-1,3.01-.54,1-.33,1.87-.47,3.01-.27,2.54-1.67,4.82-2.81,7.09-.8,1.54-1.74,2.94-2.61,4.42-.8,1.47-1.27,3.15-1.81,4.75-.54,1.47-1.07,2.94-1.81,4.35-1.07,1.61-1.2,2.48-1.87,4.28Z"/></svg>