<?xml version="1.0" encoding="utf-8"?>
<!-- Generator: Adobe Illustrator 27.2.0, SVG Export Plug-In . SVG Version: 6.00 Build 0)  -->
<svg version="1.1" id="Layer_1" xmlns="http://www.w3.org/2000/svg" xmlns:xlink="http://www.w3.org/1999/xlink" x="0px" y="0px"
	 viewBox="0 0 400 391.7" style="enable-background:new 0 0 400 391.7;" xml:space="preserve">
<style type="text/css">
	.st0{fill:#F1B9AA;}
	.st1{fill:#6C702F;}
	.st2{fill:#FF4814;}
</style>
<g>
	<path class="st0" d="M30.6,316.1c-10.5-18.7-15.4-36.7-22.8-56.9c-0.7-2.6-1.8-4.9-2.6-7.5c-1.5-3.8-1.8-7.8-3.4-11.2
		c-0.7-0.7-1.1-1.8-1.5-3c0-1.1,0.4-2.2,0.4-3.4c0-1.5-0.7-2.6-0.7-4.2c0-1.5,0.7-3,1.8-4.5c0.4-0.7,1.1-1.1,1.5-1.5
		c1.5-0.4,3-0.4,4.5,0.4c6.7,3.4,9,9.4,12,15.4c1.5,2.2,2.6,4.5,3.8,6.7c0.7,2.2,0.7,4.9,3.4,6.4c0.7,0.4,1.5,0.7,1.8,1.1
		c1.1,0.7,2.2,1.8,3.4,3c3-2.6,4.9-3,5.3-7.5c0-3,0-6-0.7-9c-0.4-9-1.1-17.6-2.2-26.6c-0.7-3.4-0.7-6.7-0.4-10.1
		c0.4-3.4,1.8-6.4,4.9-8.6c2.2-1.5,5.3-1.8,7.8-0.7c2.6,1.1,3,3,3.4,5.3c1.1,4.9,1.1,9.8,1.8,14.6c0.4,3.4,0.7,6.7,1.5,10.1
		c0.7,2.6,1.5,5.6,1.8,8.2c0.4,3,0.7,6.4,1.5,9.4c0.7,3.8,3.8,8.6,7.5,4.5c2.6-3.8,3.8-8.6,3.8-13.1c0.7-6.4,4.5-13.8,6-20.6
		c1.8-7.5,4.2-14.6,7.8-21.4c0.7-1.5,1.8-3,3-4.2c1.1-0.7,2.2-1.1,3.4-0.7c0.7,0.4,1.5,0.7,1.8,1.5c7.8,9,4.2,24.3,3,35.6
		c-0.4,6-3,15-3.4,20.6c0,2.2,0,4.9,1.8,5.6c1.1,0.4,2.2,0.4,3.4,0c3.8-1.8,6.4-4.9,8.2-8.6l16.1-27c1.1-2.6,3-4.5,4.9-6.4
		c2.2-1.5,5.3-1.8,7.5-0.4c0.7,0.7,1.5,1.5,1.8,2.2c1.1,1.8,1.8,4.2,1.5,6.4c-0.7,3-1.5,6-2.6,8.6l-3.8,8.6
		c-0.4,1.1-1.1,2.6-1.8,3.8c-0.4,0.7-1.1,1.5-1.5,2.6c-2.6,4.2-3,9.4-4.9,13.8c-1.1,1.8-2.2,3.8-3,6c-0.4,2.2-0.7,4.9-1.1,7.1
		c-1.1,5.6-1.8,10.9-2.6,16.5c-1.1,7.8-2.2,13.5,4.9,18.7c1.5,1.1,3,1.8,4.9,2.2c4.2,0,8.2-1.5,11.6-4.2c3.8-2.2,7.8-3.4,12-4.2
		c4.9-1.5,9-4.2,14.2-4.2c4.5,0,8.6,1.1,12.4,3.8c3.4,2.6,7.8,9,6,13.1c-0.7,1.1-1.5,2.2-2.6,3.4c-1.8,1.5-3.8,2.2-5.6,3
		c-3,1.1-6.4,1.1-9.4,2.2c-4.2,1.5-8.2,3.8-11.6,6.7c-3,1.8-5.6,4.2-8.2,6.4c-4.5,3.8-9.4,6.4-13.8,10.1
		c-18.7,15.8-38.2,30.3-58.4,44.2c-6,4.2-12.7,8.2-19.4,6.7c-5.3-1.8-9.8-5.6-13.1-10.1c-9-11.2-16.5-24-22.5-37.1
		c-2.2-5.3,1.1-7.1,4.2-11.2c3-3.8,5.6-7.8,7.8-12c0.4-0.4,0.7-1.1,1.1-1.5L30.6,316.1z"/>
	<path class="st1" d="M354.8,303c-7.5,18-18,31.8-28.1,48.3c-1.1,1.8-2.6,4.2-3.8,6c-1.8,3-4.5,6-6.4,9c-0.4,0.7-0.7,1.8-1.5,2.6
		c-0.7,0.7-1.8,0.7-2.6,1.5c-0.7,0.7-1.5,2.2-2.2,3c-1.1,0.7-2.6,1.1-4.2,1.1c-0.7,0-1.5,0-2.2-0.4c-1.1-0.7-1.8-1.8-2.2-3.4
		c-1.5-6.7,1.5-11.6,4.2-17.6c0.7-2.2,1.8-4.5,3-6.4c1.1-1.8,3-3.4,2.6-6c0-0.7-0.4-1.5-0.4-2.2c0-1.5,0-2.6,0.4-4.2
		c-3.8-0.7-4.9-1.5-8.2,0.4c-2.2,1.5-4.5,3.4-6.4,5.3c-6,5.3-12,10.9-18,16.5c-1.8,2.2-4.5,4.2-6.7,6c-2.6,1.5-6,2.2-9,1.5
		c-2.6-0.7-4.5-3-4.9-5.3c-0.7-2.2,0.4-3.8,1.8-5.6c3-3.4,6.4-6.4,9.8-9.4c2.2-2.2,4.5-4.5,6.4-6.7c1.5-2.2,3-4.2,4.9-6
		c1.8-2.2,4.2-4.2,6-6.4s4.2-7.5-1.1-7.8c-4.2,0.4-8.2,1.8-11.6,4.5c-5.3,3-12.7,4.5-18.3,7.1c-6.4,3-13.1,5.3-19.8,6.4
		c-1.5,0.4-3.4,0.4-4.9,0c-1.1-0.4-1.8-1.1-2.2-2.2c0-0.7,0-1.5,0-2.2c2.2-10.9,15.4-16.5,24-22.1c4.9-3,12.4-6.4,16.9-9.4
		c1.5-1.1,3.4-2.6,3-4.5c-0.4-1.1-1.1-1.8-1.8-2.2c-3.4-1.5-7.1-1.8-10.5-1.1l-28.5,3.4c-2.6,0.4-4.9,0.4-7.5,0
		c-2.6-0.7-4.5-2.6-4.9-5.3c0-0.7,0-1.8,0.4-2.6c0.7-1.8,1.8-3.4,3.8-4.5c2.6-1.1,5.3-2.2,7.8-3l8.2-2.2c1.1-0.4,2.6-0.7,3.8-0.7
		c0.7,0,1.8,0,2.6-0.4c4.5-0.4,8.6-3.4,12.7-4.5c1.8-0.4,4.2-0.7,6-1.1c1.8-0.7,3.8-2.2,5.6-3.4c4.5-2.2,9-4.9,13.5-7.1
		c6.4-3.4,10.9-6,10.9-14.2c0-1.8-0.4-3.4-1.1-4.9c-2.2-3-5.6-5.3-9.8-6c-3.8-1.5-6.7-3.8-9.8-6.4c-4.2-2.2-7.8-4.9-11.2-8.2
		c-2.6-3-4.2-6.7-4.5-10.9c0-3.8,1.8-10.5,6.4-11.6c1.1-0.4,2.6-0.4,3.8,0c1.8,0.4,3.8,1.1,5.6,2.2c2.6,1.5,4.5,3.8,6.7,5.6
		c3.8,2.2,7.5,3.8,11.6,4.9c3,0.7,6,1.8,9.4,2.6c5.3,1.1,10.1,3.4,15,4.5c22.1,4.9,43.8,10.5,65.5,17.6c6.4,1.8,13.1,4.5,16.1,10.5
		c1.8,4.9,1.8,10.1,0,15c-3,13.1-7.8,25.4-13.8,37.1c-2.6,4.9-5.6,3-10.5,3c-4.5,0-9,0.4-13.1,1.1c-0.7,0-1.1,0-1.8,0L354.8,303z"/>
	<path class="st2" d="M255.8,48.6c2.2,0,4.2,0.4,6.4,0.4c3,0,6.4,1.1,9.4,1.1c0.7,0,1.8,0,2.6,0c0.7,0.4,1.5,1.1,2.2,1.5
		c5.3,2.6,4.9,4.9,4.9,10.5c0,0.4,0,0.4,0,0.7c-0.7,1.1-6.7,1.1-7.8,1.1c-3,0.4-5.6,0.4-8.6,0.7c-6,1.1-11.6,2.6-17.6,4.5
		c-0.4,0-1.1,0.4-1.5,0.7c-1.1,1.1-1.8,2.6-1.1,4.2c0.7,1.5,1.8,2.6,3,3c3.4,1.8,7.1,2.6,10.5,4.5c3.4,1.8,21.4,6.7,24,7.8
		c5.6,1.8,21.8,4.9,18,14.2c-0.4,1.5-1.5,3-2.6,4.2c-2.2,0.7-4.9,1.5-7.5,1.1c-3.4,0-6.7-0.4-9.8-0.7c-4.9-0.7-27.4-1.1-33,0.7
		c-0.4,0-0.7,0.4-0.7,0.4c-0.4,0.4-0.4,0.7,0,1.1c0.7,1.5,1.8,3,3.4,4.2c1.8,1.8,3.8,3.4,5.6,5.3c2.2,1.5,4.5,3,6.7,4.5
		c7.5,6,14.2,12.4,21,19.1c1.8,1.5,3.4,3.8,4.5,6c0.4,1.1,0.7,2.6,0.4,4.2c0,0.7-0.4,1.5-1.1,2.2c-0.4,0.4-1.1,0.7-1.5,1.1
		c-1.1,0.7-2.6,1.5-4.2,1.8c-5.6,0.7-10.9-4.5-15-7.5c-4.2-3-9.8-6-14.6-9c-4.9-3-10.9-6.4-16.1-9.4l-7.5-4.2
		c-0.7-0.4-5.6-2.2-5.6-3.4c1.5,6,14.6,12,17.6,18c2.6,5.6,5.3,10.9,8.6,15.8c4.2,5.3,11.2,11.2,9.8,18.7c-0.7,2.6-2.6,4.5-5.3,5.3
		c-2.6,0.4-5.3,0-7.5-1.1c-2.6-1.5-5.3-3.8-7.1-6l-6.7-7.5c-1.1-1.1-1.8-2.2-3-3.4c-0.7-0.7-1.1-1.8-1.5-2.6
		c-9-13.1-31.4-21.8-43.8-28.1c-1.5-0.7-3-1.1-4.5-1.1c-1.1,0.4-1.8,0.7-3,1.5c-7.1,6-12.4,14.2-15,23.6c-0.7,4.5-2.2,9-5.3,12.7
		c-1.8,2.2-4.2,7.5-6.7,8.6c-2.6,1.1-8.2-0.7-11.6-1.1c-0.4,0-0.7,0-0.7-0.4c-0.4-0.4-0.4-0.7-0.4-0.7c-1.5-7.5-1.8-15-1.1-22.9
		c0-0.7,0-1.8,0-3c-0.4-0.7-0.7-1.1-0.7-1.8c-1.8-4.2-0.4-9.4-1.1-13.8c-1.8-9.8-2.2-19.8-1.8-30c0.7-9.8,0.4-19.4-1.5-29.2
		c-0.4-3-1.1-6.4-3-9c-2.6-3.8-4.5-8.2-6-12.4c-1.5-3.4-1.8-7.1-0.7-10.5c1.8-6.4,2.2-14.6,8.6-18.3l1.8-1.1
		c0.7-0.7,1.8-1.1,2.6-1.8c2.6-2.2,33-25.8,34.5-23.6l18.7,26.6c1.5,1.5,1.8,3.4,1.5,5.6c-0.4,1.1-1.1,1.8-1.5,2.6
		c0,1.1,0.4,2.2,1.1,3.4l6.4,10.1c0.7,1.5,1.8,2.6,3,3.4c4.5,2.6,21.4-3.8,27.4-4.2C234.8,46.8,245.3,47.5,255.8,48.6z"/>
</g>
</svg>
