<?xml version="1.0" encoding="utf-8"?>
<!-- Generator: Adobe Illustrator 26.4.1, SVG Export Plug-In . SVG Version: 6.00 Build 0)  -->
<svg version="1.1" xmlns="http://www.w3.org/2000/svg" xmlns:xlink="http://www.w3.org/1999/xlink" x="0px" y="0px"
	 viewBox="0 0 2560 1440" style="enable-background:new 0 0 2560 1440;" xml:space="preserve">
<style type="text/css">
	.st0{fill:#1C3A32;}
	.st1{fill:#A32726;}
	.st2{fill:#F1BBAC;}
	.st3{fill:#6D7130;}
	.st4{fill:#BCC7BC;}
	.st5{fill:#00538C;}
	.st6{fill:none;}
	.st7{fill:#EF4B24;}
	.st8{fill:#C7D6E5;}
	.st9{fill:#6C702B;}
	.st10{fill:#6D2B3C;}
</style>
<g id="Layer_1">
</g>
<g id="Layer_2">
	<rect x="0" class="st0" width="2560" height="1440"/>
	<path class="st1" d="M2292.6,236.8c0.5-0.2,1.1-0.2,1.4-0.6c4.1-4.3,8.6-8.1,13.1-12c1.9-1.7,3.6-3.5,5.3-5.4
		c1.8-2,3.7-3.9,5.8-5.6c2.3-1.8,4.5-3.6,6.8-5.3c5.3-4.1,11.4-6.8,17.5-9.4c2.5-1.1,4.9-2.2,7.4-3.3c1.6-0.7,3.3-1.4,5-2
		c2.1-0.6,4.3-0.6,6.4,0c2.8,0.8,5.5,1.8,8,3.1c0.9,0.5,1.8,1.2,2.6,1.9c0.7,0.6,1.2,1.5,0.8,2.4c-0.8,2-0.3,3.9,0.5,5.7
		c-1.6,3.3-2.7,6.7-2.9,10.3c-0.1,1.5-0.6,2.9-1.6,3.9c-2.3,2.5-3.9,5.6-6,8.2c-3.6,4.6-7.6,8.6-12.4,11.9c-2.4,1.6-4.9,3-7.6,4.1
		c-1.9,0.7-3.6,1.6-5.2,2.8c-5.1,4.1-10.9,6.9-16.9,9.3c-0.7,0.3-1.3,0.6-1.9,1c-0.2,0.2-0.3,0.6-0.5,1c0.5,0.4,1.1,0.9,1.7,1.2
		c1,0.5,2,0.9,3,1.1c6.4,1.1,12.4,3.6,18.6,5.4c4,1.1,7.9,2.6,11.7,4c2.7,1,5.2,2.4,7.6,4.1c1.2,0.8,2.2,1.8,3.3,2.8
		c2.5,2.5,5,5.1,7.5,7.7c0.3,0.3,0.6,0.5,0.8,0.7c2.2,3.1,2.6,3.5,0.6,6.8c-1,1.7-2.1,3.3-3.3,4.9c-1.3,1.8-3,3-5.2,3.6
		c-0.5,0.1-1,0.3-1.6,0.4c-2.7,0.6-5.1,1.6-7.4,3.2c-1.3,0.9-2.8,1.5-4.3,2.2c-2.3,1.2-4.8,1.4-7.4,1.2c-4-0.3-7.8-1.3-11.4-3
		c-4.1-1.9-8.1-3.9-12.1-5.9c-3.6-1.7-7.1-3.4-10.7-5.1c-0.7-0.3-1.3-0.5-2.1-0.3c0,0,0-0.1,0-0.1l0.1,0c0,0.3-0.1,0.8,0,1
		c1.4,3,3.2,5.6,6,7.5c1.3,0.9,2.6,1.9,3.6,3.3c1.1,1.4,2.1,2.9,3.3,4.2c1.1,1.2,2.4,2.1,3.7,3.1c0.3,1.1,0.4,2.2,0.8,3.2
		c0.5,1.1,1.2,2.2,1.9,3.3c0.7,1.1,1.4,2.1,2,3.2c1.1,1.9,2,3.8,2.5,5.9c0.6,2.4,1.6,4.8,2.4,7.1c0.5,1.4,1,2.7,1.4,4.1
		c0.5,1.9,0.6,3.9,0,5.9c-0.4,1.2-0.7,2.4-1.1,3.6c-0.9,3.1-2.7,5.4-5.1,7.4c-3,2.5-6.4,3.2-10.1,2.5c-5.2-1-9.9-3.2-14.2-6.4
		c-2.9-2.2-5.2-5-6.9-8.2c-2.4-4.4-4.8-8.9-7.2-13.3c-0.3-0.6-0.8-1.2-1.2-1.7c-0.1-0.1-0.6,0-1.1,0c-0.7,4-1.4,8.1-2,12.2
		c-0.3,1.9-0.1,3.9-0.1,5.9c0,5.4-0.6,10.8-1.1,16.1c-0.3,3.3-3.7,7-8,7.6c-2.9,0.4-5.7,0.1-8.5-1.1c-1.8-0.8-3.6-1.5-5.5-2.3
		c-1.8-2.7-3.6-5.4-5.4-8c-2.6-3.9-4.7-8.1-6.3-12.5c-0.6-1.7-1.3-3.4-2-5c-1.1-2.7-2-5.4-2.7-8.2c-0.6-2.6-1.4-5.2-2.1-7.8
		c-0.1-0.4-0.7-1-1.1-1c-0.4,0-0.9,0.6-1.1,1c-0.7,2.3-2,4.2-3.4,6.1c-7.6,11.3-7,9.4-14.9,16.1c-1.8,1.5-3.5,3.1-5.2,4.7
		c-1.9,1.8-4,3-6.6,3.2c-2.9,0.3-5.6,1-8.6,1c-3.9-0.1-7.4-1.2-11-2.4c-0.7-0.2-1.3-0.7-1.8-1.2c-0.8-0.7-1.5-1.6-2.2-2.3
		c-1-1-1.9-2.1-2.2-3.6c-0.2-1.2-0.9-2.3-1.3-3.5c-1.1-3-1.2-6,0.4-8.9c0.4-0.8,0.8-1.6,1-2.5c0.7-3.7,2.6-6.7,5.1-9.3
		c2.6-2.6,4.6-5.5,6.6-8.5c1.3-2,2.6-3.9,4.3-5.5c0.7-0.8,1.4-1.6,2-2.5c2.3-3.2,4.4-6.6,7.2-9.4c0.1-0.1,0.2-0.3,0.3-0.5
		c0.1-0.3,0.2-0.7,0.1-1c-0.1-0.3-0.5-0.6-0.8-0.5c-3.2,0.4-6.4,1-9.6,1.4c-2.8,0.4-5.7,0.9-8.5,1.2c-2.5,0.3-5,0.6-7.5,0.9
		c-4.8,0.6-9.7,0.5-14.6,0.4c-2.9,0-5.6-1.2-8.2-2.5c-0.8-0.4-1.4-1.1-2-1.8c-1-1.3-1.8-2.7-2.2-4.3c-0.1-0.5-0.2-1.1,0-1.6
		c1-2.5,2-5,3-7.5c0.2-0.5,0.5-0.9,0.9-1.3c2.4-2.7,4.9-5.2,7.9-7.3c1.6-1.1,3.3-2.1,5.3-2.7c2.4-0.7,4.7-1.7,7-2.9
		c2.4-1.2,5-1.9,7.7-2.2c1.1-0.1,2.1-0.6,2.7-1.6c0.5-0.9,1.6-0.8,2.3-1.2c0.3-0.2,0.5-0.5,0.6-0.8c0-0.3-0.2-0.6-0.4-0.8
		c-0.1-0.1-0.3-0.2-0.5-0.2c-3.1-1-6.2-1.9-9.3-2.9c-2.7-0.9-5.5-1.8-8.1-2.9c-2.7-1-5.3-2.2-7.9-3.4c-2-0.9-3.8-1.9-5.3-3.6
		c-1.7-1.9-3.6-3.6-5.2-5.4c-3.1-3.3-4.5-7.3-4.1-11.9c0.1-1.4,0.3-2.9,0.4-4.4c0.7-1,1.6-1.9,2.1-3.1c0.9-2,2.6-3.1,4.6-3.5
		c3.9-0.7,7.6-2.1,11.6-2.2c2-0.1,3.9,0,5.9,0.6c2.4,0.7,4.9,1.2,7.3,1.8c0.5,0.1,1.1,0.2,1.6,0.4c6,2.4,12,4.8,17.6,8.2
		c2.8,1.7,5.5,3.4,8.3,5.1c1.8,1.2,3.8,2,5.9,2.6c0.1,0,0.4-0.1,0.4-0.2c0-0.3,0-0.7-0.2-0.9c-0.5-0.5-1-1-1.6-1.5
		c-5.6-4.6-10.6-9.7-15.2-15.2c-2-2.3-4.1-4.6-6.1-6.8c-3.9-4.3-7.1-9.1-9.1-14.5c-0.8-2-1.6-4-2.3-6c-0.3-0.8-0.5-1.8-0.3-2.6
		c0.6-3,1.5-5.9,3-8.6c1-1.8,2.4-3.1,4.6-3.4c1.2-0.2,2.4-0.7,3.7-0.8c2.9-0.3,5.8-0.3,8.5,0.9c0.7,0.3,1.3,0.8,2,0.8
		c2.6-0.1,4.4,1.5,6.2,3c2.8,2.3,5.2,4.9,7.3,7.9c0.2,0.3,0.4,0.6,0.7,0.8c0.3,0.2,0.7,0.4,0.9,0.3c0.2,0,0.6-0.5,0.5-0.7
		c-0.1-1.2-0.3-2.5-0.5-3.7c-0.7-4.1-0.6-8.2,0.6-12.3c1-3.1,1.5-6.3,2.3-9.4c0.6-2.5,1.7-4.7,3.4-6.6c2-2.2,4.7-3.4,7.6-3.8
		c1-0.2,2.2,0,3.2,0.4c2,0.8,4,1.7,5.9,2.6c1.2,0.5,2,1.4,2.7,2.6c1.1,1.8,2.1,3.8,3.6,5.3c0.6,0.6,1,1.5,1.3,2.4
		c1.7,5.1,4.2,9.9,5.6,15.2c0.6,2.2,1.4,4.4,2.1,6.7c1.2,4.2,2.2,8.3,3.3,12.5c1.3,4.7,1.4,9.6,1.4,14.4c0,2.9,0,5.7,0.1,8.6
		c0,0.2,0.4,0.5,0.6,0.7c0.3,0.2,0.7,0.1,0.9-0.3c0.2-0.3,0.3-0.6,0.4-1c2.2-8.5,4.5-17,7.3-25.4c0.6-1.9,1.3-3.7,2.2-5.5
		c0.9-1.9,1.7-4,2.6-5.9c0.4-1,0.9-2,1.4-2.9c2.3-4.3,4.7-8.5,7-12.8c1.7-3.2,3.6-6.2,6-9c1.1-1.3,2.5-2.1,4.2-2.1
		c1.2,0,2.6-0.2,3.7,0.1c3.8,0.9,6.1,3.4,7.5,7c2.1,5.4,3.1,11.1,3.9,16.7c0.6,4.1,0.4,8.2,0.5,12.4c0,0.9-0.4,1.8-1.1,2.4
		c-1.4,1-2,2.5-2.6,4c-1.7,4.7-3.7,9.4-6,13.9c-0.6,1.1-1.2,2.2-2,3.1c-1.5,1.6-2.5,3.5-3.6,5.4c-1.8,3.1-3.6,6.2-5.5,9.3
		c-0.4,0.6-0.8,1.2-0.7,2c-1.8,0.6-2.7,2-3.3,3.7c0,0.1,0,0.3,0.1,0.5c0.2,0.4,0.5,0.5,0.8,0.2
		C2291.7,240,2292.8,238.7,2292.6,236.8"/>
	<path class="st2" d="M2263.2,49.1c0.7-0.1,1.2-0.4,1.8-0.8c1.1-0.9,2.4-1.4,3.7-1.9c1.6-0.6,2.9-0.2,4.2,0.8
		c0.2,0.2,0.4,0.4,0.4,0.7c0.2,0.5,0.3,1.1,0.4,1.6c0.2,1.7,0.5,3.3,1.1,4.9c0.6,1.4,0.4,2.7-0.2,4.1c-0.5,0.9-1,1.8-1.4,2.7
		c-0.3,0.6-0.1,1,0.6,1.2c1.8,0.3,3.7,0.6,5.6,0.4c0.9-0.1,1.7,0.1,2.5,0.4c2.8,0.9,5.4,2,7.7,3.9c0.8,0.6,1.7,0.8,2.5,1.3
		c0.5,0.3,0.8,0.8,0.6,1.4c-0.2,0.9-0.6,1.8-1.5,2.3c-1,0.5-1.8,1.3-2.6,2.1c-1.8,1.9-4,3.1-6.6,3.5c-0.4,0.1-0.9,0.3-1.3,0.5
		c-0.2,0.1-0.2,0.3-0.1,0.5c0.1,0.2,0.3,0.5,0.4,0.7c0.4,0.4,0.8,0.8,1.1,1.3c0.5,0.7,1.1,1.3,1.8,1.7c1.1,0.5,1.7,1.4,1.9,2.6
		c0.1,0.5,0.2,0.9,0.4,1.3c0.9,1.6,0.7,3.4,0.8,5.2c0,0.4-0.1,0.8-0.3,1.1c-0.9,1.4-2.1,2.4-3.9,2.5c-1,0-2.1-0.1-3.1-0.1
		c-1.3-0.1-2.6-0.2-3.9-0.3c-1.5-0.1-3-0.4-4.4-0.7c-0.5-0.1-0.9,0.4-0.7,0.9c0.8,1.7,1,3.6,1.5,5.4c0.4,1.5,0.5,2.9-0.2,4.4
		c-0.2,0.3-0.3,0.7-0.3,1.1c-0.2,1.3-1.2,2-2,3c-0.2,0.3-0.6,0.4-1,0.5c-0.7,0.1-1.5,0.3-2.2,0.2c-1.9-0.2-3.7-0.3-5.4-1.3
		c-0.6-0.4-1.4-0.6-2.1-0.9c-2.6-0.9-4.4-2.7-6-4.8c-0.6-0.7-1.1-1.5-1.6-2.3c-0.4-0.6-0.8-1.2-1.2-1.9c-0.3-0.5-0.5-1-0.9-1.4
		c-1-1.2-1.8-2.6-2.6-3.9c0-0.1-0.3,0-0.5,0c-0.1,0-0.2,0.1-0.2,0.2c-0.5,1.3-1.1,2.6-1.4,3.9c-0.4,1.6-0.9,3.2-1.5,4.8
		c-0.7,1.9-1.4,3.9-2.1,5.8c-0.7,1.9-1.9,3.4-3.7,4.4c-1.2,0.7-2.4,1.4-3.7,1.9c-2,0.7-4,0.6-6-0.2c-0.7-0.3-1.1-0.8-1.2-1.5
		c-0.3-1.5-0.6-2.9-0.6-4.4c-0.1-3.9-0.1-3.9,0.9-7.7c0.6-2.2,1.3-4.3,2.4-6.2c0.7-1.3,1.4-2.6,1.8-4.1c0-0.1,0-0.2-0.1-0.3
		c-0.1-0.1-0.2-0.1-0.3,0c-0.6,0.4-1.2,0.8-1.7,1.4c-1.4,1.6-3.2,2.2-5.1,2.6c-2,0.4-4,0.8-6,1.2c-1.4,0.3-2.7,0.6-4.1,1
		c-1.3,0.4-2.6,0.4-3.9,0c-1.2-0.3-2.4-0.6-3.5-1.1c-3.5-1.3-3.6-2.1-4.4-4.9c-0.2-0.5-0.2-1.1,0-1.7c0.3-1.3,0.5-2.6,0.9-3.8
		c0.2-0.6,0.5-1.2,0.8-1.8c0.4-0.6,1-1.1,1.8-1.3c0.4-0.1,0.7-0.2,1.1-0.3c1.2-0.3,2.3-0.7,3.3-1.4c0.6-0.5,1.3-0.8,2-1.2
		c-0.1-0.2-0.2-0.6-0.4-0.7c-0.5-0.3-1-0.5-1.5-0.7c-0.7-0.3-1.4-0.6-2.1-0.9c-4.4-2.1-6.9-4.1-10-7.9c-0.2-0.2-0.4-0.4-0.5-0.7
		c-0.3-0.5-0.4-1-0.2-1.6c0.7-1.3,1.4-2.6,2.5-3.7c0.8-0.8,1.7-1.4,2.9-1.4c0.9,0,1.8-0.2,2.8-0.4c1.3-0.3,2.6-0.2,3.9,0.3
		c0.9,0.3,1.8,0.6,2.7,0.9c0.4,0.1,0.7,0.1,1.1,0.2c0.7,0.1,1.1-0.5,0.8-1c-0.4-0.8-0.7-1.5-1.1-2.2c-0.3-0.5-0.6-0.9-0.9-1.4
		c-1.3-2.1-2.5-4.1-4.5-5.7c-0.4-0.3-0.6-0.7-0.8-1c0-0.3,0-0.5,0.1-0.6c1.2-2.1,2.6-4.1,4.2-5.9c0.8-0.9,1.9-1.2,3-1.1
		c0.5,0.1,0.9,0.2,1.4,0.3c0.8,0.2,1.6,0.4,2.5,0.5c1,0.1,1.8,0.5,2.4,1.2c1,1.1,2.1,1.8,3.5,2.2c1,0.3,1.7,0.9,2.4,1.8
		c1.3,1.6,2.7,3.1,4,4.7c0.9,1,1.7,2,2.6,3c0.3,0.3,0.7,0.6,1.1,1c0.1-0.4,0.3-0.6,0.3-0.8c-0.1-1.6-0.1-3.2-0.3-4.7
		c-0.1-1-0.4-2-0.8-3c-0.9-2.4-1.2-4.9-1-7.4c0.1-1.2,0.1-2.4,0.2-3.6c0-1,0.3-2,0.7-3c0.4-1.1,1.2-1.9,2.2-2.4
		c0.3-0.1,0.5-0.2,0.8-0.3c1.4-0.5,2.7-0.2,3.5,1.4c1.1,2.1,2.3,4.1,3.3,6.2c0.9,1.9,1.5,4,1.9,6.1c0.4,2.2,1.1,4.3,2.3,6.4
		c0.2-0.1,0.5-0.2,0.6-0.4c0.4-0.8,0.7-1.7,1.1-2.6c0.3-0.6,0.5-1.2,0.8-1.8c0.3-0.6,0.6-1.2,1-1.7c1.5-1.5,2.2-3.5,3.7-4.9
		c0.4-0.5,1-0.9,1.5-1.2c1.5-0.8,3-1.4,4.6-2.1c0.6-0.3,1.2-0.1,1.5,0.4c1,1.8,2,3.6,3,5.4c0.6,1,0.6,2.1,0.1,3.2
		c-0.4,0.8-0.7,1.7-1,2.6C2263.1,48.8,2263.2,49,2263.2,49.1C2263.3,49.1,2263.2,49.1,2263.2,49.1"/>
	<path class="st3" d="M2501.5,180.1c0.6-0.1,1.2-0.1,1.5-0.3c3.2-2.8,7.4-3.6,11.3-5c0.6-0.2,1.4-0.2,2-0.3c2.7-0.2,4.6,1.1,5.6,3.7
		c0.5,1.5,0.9,2.9,0.5,4.6c-0.3,1.3-0.4,2.7-0.6,4c1.1,1.4,2.9,1.2,4.1,2.2c1.8,0.1,3.3,0.9,4.3,2.5c0.4,0.6,1.1,0.8,1.8,0.9
		c1.1,0.1,1.9,0.8,2.3,1.8c0.4,1.4,1.2,2.7,2.4,3.3c1.5,0.8,2.1,2.2,3,3.4c2.8,3.9,2,7.8,0.2,11.8c-0.8,1.8-2.3,3-4.1,3.7
		c-1.3,0.5-2.6,0.9-3.9,1.4c-1,0.4-1.4,1.7-0.7,2.6c0.7,1,1.4,1.9,2.1,2.9c1.4,2,2.1,4.3,2.1,6.8c0,3.8-0.6,7.6-1.1,11.3
		c-0.3,1.8-1.2,3.2-2.5,4.4c-1.5,1.4-3.3,2.5-5.3,3c-1.3,0.3-2.7,0.6-4,0.9c-2.7,0.5-5.4,1-8.1,1.6c-0.7,0.1-1.3,0.8-1.3,1.4
		c0.3,3.8-0.7,7.5-1.5,11.2c-1.1,5-4.2,8.2-8.7,10.2c-1.8,0.8-3.7,0.7-5.6,0.1c-2-0.6-3.9-1.4-5.8-2.1c-0.7-0.2-1.4,0-1.8,0.6
		c-0.4,0.6-0.8,1.1-1.2,1.7c-0.7,1-1.5,1.9-2.2,2.9c-1.6,2.1-3.8,2.9-6.2,3.3c-0.7,0.1-1.4,0-2-0.1c-3-0.6-5.5-2-7.3-4.6
		c-0.4-0.6-0.8-1.1-1.2-1.6c-0.3-0.3-1-0.4-1.4-0.1c-1,0.7-2,1.4-3,2c-2.3,1.4-4.8,1.8-7.4,0.8c-1.6-0.6-3.2-1.4-4.7-2.2
		c-1.4-0.7-2.4-1.9-3.3-3.2c-0.8-1.2-1.1-2.5-0.7-4c0.4-1.5,0.8-3,1.2-4.5c0.1-0.4-0.1-0.7-0.5-0.7c-0.7-0.1-1.4-0.2-2-0.2
		c-3.1,0-6.2,0.1-9.3,0.1c-3.3,0-6.1-1.1-8.3-3.6c-0.4-0.5-0.9-1.1-1-1.7c-0.7-3-1.3-6.1-0.3-9.2c0.6-1.9,1.4-3.5,2.8-4.9
		c0.9-0.8,1.8-1.6,2.6-2.5c0.2-0.2,0.2-0.6,0.2-0.9c0-0.5-0.6-0.9-1.1-0.8c-0.5,0-1,0.1-1.5,0.2c-0.8,0.1-1.7,0.4-2.5,0.5
		c-1.2,0.2-2.4-0.1-3.5-0.7c-3.4-1.8-5.5-4.6-6.6-8.2c-0.2-0.8-0.3-1.7-0.1-2.5c0.3-1.5,0.7-3,1.2-4.5c1.2-3.9,3.9-6.4,7.9-7.5
		c1.3-0.3,2.7-0.7,4-1c0.5-0.1,0.7-0.8,0.5-1.2c-1.1-1.6-1.8-3.3-2.3-5.1c-0.2-1-0.9-1.8-1.5-2.7c-1.2-1.7-2-3.6-2.4-5.7
		c-0.5-2.5,0.2-4.7,2.1-6.6c1.5-1.5,3.4-2.4,5.4-3c1.1-0.4,2.4-0.5,3.5-1c2.6-1.2,5.2-1.8,8-1.6c0.6,0.1,1.3-0.7,1.3-1.3
		c0.1-2.2,0.1-4.5,0.2-6.7c0.1-1.7,0.1-3.5,0.2-5.2c0.2-2.2,1.3-3.9,3.4-4.8c1.6-0.7,3.1-1.5,4.7-2.1c0.6-0.3,1.3-0.4,2-0.6
		c2.2-0.4,4.5-0.3,6.7,0.2c1.6,0.3,2.9,1,4,2.3c0.8,0.9,1.6,1.8,2.4,2.7c1.5,1.6,2,1.6,3.2,0c0.1-0.1,0.2-0.3,0.3-0.4
		c3.9-5.2,9.5-7.9,15.5-9.6c1.8-0.5,3.8-0.5,5.7-0.2c1.4,0.2,2.6,0.9,3.5,2c0.4,0.5,0.8,1.1,1.2,1.7c0.9,1.1,1.2,2.4,1.2,3.9
		c0,1.4-0.1,2.8,0,4.1C2500.8,175.9,2501.2,177.9,2501.5,180.1"/>
	<path class="st3" d="M3315.2,364.1C3315.1,364.1,3315.1,364.1,3315.2,364.1C3315.1,364.1,3315.1,364.2,3315.2,364.1L3315.2,364.1z"
		/>
	<path class="st4" d="M185.8,1285.3c2,0.9,2,0.8,3.3,2.7c0.9,1.4,2.2,2.4,3.7,2.9c1.7,0.6,3,1.6,4,3.1c0.7,1.1,1.5,1.9,2.4,2.8
		c1.6,1.5,3.1,3.1,4.2,5.1c0.8,1.4,1.9,2.5,2.9,3.8c0.4,0.5,0.9,0.9,1.2,1.4c0.5,0.7,0.8,1.6,0.6,2.5c-0.1,0.6-0.2,1.2-0.5,1.8
		c-1.3,2.3-2.9,4.3-5.1,5.7c-1.5,1-3.2,1.3-4.9,0.9c-2.6-0.7-5.2-1.5-7.5-3c-4-2.5-7.6-5.5-10.8-8.9c-0.7-0.8-1.4-1.7-2.1-2.6
		c-1.9-2.7-4.5-4.6-7.5-5.8c-1.6-0.6-3.3-1.1-4.9-1.6c-0.7-0.2-1.2,0.1-1.5,0.7c-0.4,0.9-0.7,1.8-0.8,2.8c-0.3,4.6-1.5,10.7-3.2,15
		c-0.3,0.7-0.6,1.3-0.8,2c-0.6,1.8-0.4,3.7-0.4,5.6c-0.2,7.6-4.1,11.6-10.8,14.6c-0.8,0.3-1.6,0.5-2.5,0.7c-1.8,0.2-3.4-0.3-4.7-1.6
		c-0.7-0.7-1.3-1.4-1.8-2.3c-1.2-2.5-2-5-2.4-7.7c-0.1-0.6,0-1.2,0.1-1.8c0.4-3.1,0.6-6.1,0.5-9.2c-0.2-4.9,0.2-9.8,1-14.7
		c0.3-1.8,0.5-3.7,0.7-5.5c0.1-0.5-0.1-0.9-0.4-0.8c-0.2,0-0.5,0-0.7,0.2c-0.4,0.3-0.7,0.7-1,1.1c-1,1.2-2.1,2-3.6,2.5
		c-2.3,0.8-4.1,2.2-5.8,3.8c-2.3,2.3-4.9,4.1-7.7,5.6c-1.1,0.6-2,1.4-3.1,2.1c-2.1,1.5-4.4,2.8-6.8,3.8c-2.4,1-5,1.4-7.6,0.9
		c-1.1-0.2-2.1-0.5-3.1-1.2c-1.3-0.9-2.6-1.9-3.6-3.2c-0.8-1-1.1-2.1-0.7-3.4c0.7-2,1.6-3.9,2.8-5.6c2.1-2.8,3.8-5.7,5.2-8.9
		c0.9-2.1,2.1-3.9,3.7-5.5c2-1.9,3.5-4.2,5-6.4c0.3-0.4,0.4-0.9,0.6-1.3c0.1-0.3-0.2-0.9-0.4-0.9c-0.6,0-1.2-0.1-1.8-0.1
		c-1.6,0-3.2,0.1-4.8,0.1c-2.9,0-5.6-0.5-8.4-1.1c-4-0.9-7.2-3.1-9.9-6.1c-0.2-0.3-0.5-0.6-0.6-0.9c-0.3-0.7-0.4-1.4,0-2.1
		c0.3-0.4,0.6-0.8,0.9-1.1c0.6-0.6,1.3-1.2,1.8-1.8c2.1-2.5,4.8-4.2,7.9-5.2c0.6-0.2,1.1-0.4,1.7-0.7c2.1-0.9,4.2-1.3,6.5-1.4
		c1.4,0,2.7,0,4.1,0c3.6,0.1,7.1-0.4,10.5-1.6c1.8-0.6,3.6-0.9,5.4-1.1c0.1,0,0.3-0.4,0.3-0.6c0-0.2-0.2-0.5-0.4-0.6
		c-2.3-1.6-4-3.6-5.5-5.9c-0.8-1.3-2-2.5-3-3.7c-1.3-1.5-2.2-3.2-2.8-5.1c-0.7-2.2-1.4-4.4-2.1-6.7c-0.7-2.3-0.7-4.6,0.2-6.9
		c0.7-1.8,7-3.1,8.7-2.9c2,0.2,3.9,1,5.6,2.1c4,2.6,5.5,7.3,9.3,9.8c1.6,1.1,2.6,2.5,3.4,4.2c0.7,1.6,1.5,3.1,2.3,4.6
		c0.7,1.3,1.6,2.5,2.9,3.3c0.4,0.3,0.9,0.4,1.5,0.2c0.3-0.9,0.7-2,1-3c0.9-3.1,1.6-6.2,2.2-9.3c0.7-4.3,2.5-8.2,5.2-11.7
		c1-1.4,2.1-2.7,3.2-4.1c1.4-1.9,2.8-3.7,4.2-5.6c2-2.7,4.4-5,7.1-6.9c1.2-0.8,2.4-1.1,3.8-1.2c1.9-0.1,6.1,0.1,7.5,1.7
		c3,3.5,0.6,10.4-0.8,14c-0.9,2.2-1.2,4.5-1.4,6.8c-0.2,1.7-0.6,3.4-1.1,5c-0.7,2.3-1.6,4.7-2,7.1c-0.2,1.3-0.7,2.6-1.4,3.8
		c-1,1.8-1.6,3.9-2.1,5.9c-0.1,0.3-0.1,0.7-0.1,1.1c0,0.2,0.1,0.5,0.3,0.7c0.1,0.1,0.5,0.2,0.7,0.1c2.7-1.8,5.5-3.2,7.9-5.4
		c1.6-1.4,3.3-2.6,5.2-3.5c0.9-0.4,1.7-0.9,2.4-1.6c0.8-0.8,1.7-1.4,2.5-2.1c0.7-0.7,1.5-1.2,2.5-1.4c1-0.2,1.8-0.7,2.7-1.2
		c1.1-0.6,2.1-1.2,3.2-1.8c3.4-1.7,7-2.2,10.8-1.8c1.5,0.2,2.9,0.7,4.1,1.6c0.7,0.5,1.2,1.2,1.1,2.2c-0.1,2.6-0.3,5.1-1.3,7.6
		c-0.4,0.9-0.7,1.8-1.2,2.7c-1.8,3.1-3.8,6.1-6,8.8c-0.1,0.1,0.1,0.5,0.2,0.6c0.2,0.1,0.5,0.2,0.7,0.2c1-0.1,2-0.2,2.9-0.3
		c1.2-0.1,2.4-0.2,3.7-0.3c1.5-0.1,2.9-0.2,4.4-0.2c1.2,0,2.5-0.1,3.7-0.1c1.5,0,2.9,0.4,4.1,1.3c0.9,0.7,1.9,1.1,2.9,1.6
		c1.3,0.7,2,1.7,2.3,3.1c0.5,2.3,0.8,4.6,0.6,7c0,0.5-0.2,1-0.6,1.3c-0.9,0.7-1.7,1.4-2.7,1.9c-1.3,0.7-2.6,1.3-4,1.9
		c-1.8,0.8-3.6,1.5-5.5,2.2c-2.9,1.2-5.8,2.1-8.9,2.4c-1.6,0.2-3.1,0.7-4.6,1.4c-3,1.4-6.2,2.4-9.4,3.1c-2.7,0.6-5.4,1.6-8.1,2.5
		C186.4,1284.5,185.9,1284.7,185.8,1285.3z M165.3,1265.6c-0.2-0.4-0.5-0.7-0.8-1c-0.8-0.8-1.8-1.1-2.3-2.3
		c-0.2-0.4-0.5-0.9-0.7-1.3c-0.1-0.2-0.4-0.3-0.5-0.5c-0.2-0.2-0.8-0.2-1,0.1c-0.5,0.6-0.9,1.5-1.8,1.7c-1.5,0.5-2.9,0.4-4.2-0.5
		c-0.6-0.4-1.1-1-1.7-1.4c-0.8-0.6-2.4-0.5-3,0.3c-0.7,0.9-1.4,1.7-2.6,1.8c-0.2,0-0.4,0.2-0.7,0.3c-0.7,0.3-1.2,0.8-1.6,1.4
		c-1.6,2.6-2.3,5.4-1.8,8.5c0.4,2.1,1.2,4,3.6,4.7c0.2,0.1,0.5,0.1,0.7,0.3c0.2,0.3,0.4,0.6,0.5,1c0.1,0.3,0,0.7-0.1,1.1
		c-0.3,1.2,0.1,2.2,0.9,3c0.9,0.9,1.2,1.4,2.9,0.6c0.5-0.3,1.1-0.5,1.7-0.6c1.2-0.3,2.4-0.4,3.2,1c0.3,0.6,1,0.7,1.6,0.7
		c0.9-0.1,1.7-0.1,2.6-0.3c1.2-0.2,2.4-0.5,3.6-0.7c1.1-0.2,1.7-0.9,2.2-1.7c1.3-2,2-4.2,2.1-6.6c0-1.1,0.1-2.2,0.4-3.3
		c0.2-0.8,0-1.4-0.6-2c-0.9-0.8-1-1.6-1.4-2.6C166,1266.8,165.7,1266.2,165.3,1265.6z"/>
	<path class="st5" d="M402.5,169.8c-1.3-0.1-2.7-0.1-4.1-0.2c-0.8-0.1-1.6-0.1-2.4,0.1c-1,0.3-2,0.2-3,0.2c-3-0.1-5.9-0.2-8.9-0.3
		c-1.2-0.1-2.4-0.2-3.5-0.4c-0.8-0.2-1.6-0.3-2.4-0.1c-1.8,0.4-3.5,0.1-5.3-0.5c-0.5-0.2-1.1-0.4-1.8-0.1c0.1,0.4,0.2,0.8,0.4,1.1
		c0.7,1,1.4,1.9,2.4,2.6c0.5,0.3,0.9,0.7,1.4,1c2.9,1.9,5.4,4.4,8,6.6c0.4,0.3,0.8,0.7,1,1.1c0.4,1,1.1,1.9,1.8,2.7
		c0.7,0.9,1,1.9,0.8,3.1c-0.1,0.7-0.1,1.4-0.1,2.1c-0.1,2.8-2.3,4.4-4.8,4.2c-1.2-0.1-2.3-0.4-3.4-1c-1.7-1.1-3.4-2.1-5-3.2
		c-1.6-1.1-3.3-1.9-5.1-2.5c-1.3-0.4-2.6-0.9-3.9-1.5c-0.7-0.3-1.4-0.7-2.1-1.2c-1.8-1.3-3.7-2.3-5.7-3.1c-2.4-1-4.2-2.5-5.4-4.8
		c-0.4-0.7-0.9-1.3-1.3-2c-0.5-0.8-1.2-1.4-1.9-1.9c-0.6-0.5-1.1-0.4-1.5,0.2c-0.7,1.1-1.3,2.2-1.6,3.5c-0.2,0.8-0.6,1.5-1.1,2.1
		c-0.8,0.9-1.5,1.8-2.3,2.7c-0.6,0.8-1.3,1.5-1.9,2.3c-1.3,1.8-2.9,3.3-4.7,4.6c-0.6,0.5-1.3,0.9-1.9,1.4c-1,0.9-2.2,1.3-3.6,1.3
		c-1.6,0.1-3.2-0.1-4.7-0.6c-1.2-0.4-2.1-1.1-2.5-2.4c-0.3-0.8-0.6-1.7-0.9-2.5c-0.8-2.4-0.7-4.7,0.6-6.9c1-1.7,2-3.4,3-5.1
		c0.6-1,1.1-2.1,1.6-3.2c0.9-2.2,2.2-4,3.5-5.9c0.5-0.7,1-1.4,1.5-2.2c0-0.1,0.1-0.2,0-0.3c-0.1-0.1-0.3-0.3-0.4-0.3
		c-0.3,0-0.6,0-0.9,0c-0.6,0.1-1.2,0.3-1.7,0.5c-2.4,1-4.9,1.3-7.6,1.4c-2.6,0.1-5.1,0.3-7.7,0.3c-1.8,0-3.6,0.2-5.3,0.8
		c-1,0.4-2.1,0.5-3.2,0.6c-1.4,0.1-2.8,0.3-4.1,0.8c-0.5,0.2-1.2,0.3-1.7,0.3c-2.1-0.2-4.1-0.8-5.9-1.9c-0.7-0.4-1.2-1.1-1.4-1.9
		c-0.3-1.5-0.3-2.9,0.5-4.3c1.2-2,2.8-3.4,4.8-4.3c2.9-1.3,5.8-2.7,8.5-4.3c2-1.2,4-2.2,6.2-2.9c0.8-0.2,1.5-0.6,2.2-0.9
		c1.3-0.6,2.6-0.9,4-0.9c2.1,0,4.1-0.7,6.1-1.3c0.1,0,0.2-0.3,0.2-0.5c0-0.1-0.1-0.2-0.2-0.2c-1.6-1.5-3.4-2.7-5.4-3.7
		c-1.3-0.7-2.7-1.3-4-2c-3.6-2-6-5.2-7.5-8.9c-0.3-0.6-0.3-1.3-0.4-2c0-0.3,0-0.6,0.1-0.9c0.8-1.3,1.7-2.6,3.4-2.5
		c3.4,0,6.7,0.5,10,1.4c1.9,0.6,3.8,1.3,5.6,2c1.3,0.5,2.6,1,3.8,1.8c1.8,1.3,3.8,2.1,5.9,2.8c1,0.3,2.1,0.7,3.1,1
		c0.4,0.1,0.8,0,0.8-0.2c0-0.2,0-0.4-0.1-0.6c-1.9-3-2.1-6.4-2.2-9.7c0-0.7,0-1.4,0-2.1c0-1.7,0.1-3.4,0.1-5.1
		c0-2.2,0.4-4.3,1.1-6.4c0.2-0.8,0.7-1.4,1.4-1.9c0.5-0.3,0.9-0.7,1.4-1.1c0.9-0.6,1.7-0.9,2.7-0.3c0.8,0.5,1.8,0.8,2.6,1.3
		c2,1.2,3.7,2.7,4.8,4.7c0,0.1,0.1,0.2,0.2,0.2c2.5,3.2,4.2,6.7,5.1,10.6c0.2,0.8,0.5,1.5,0.7,2.3c0.2,0.7,0.3,1.4,0.4,2
		c0.1,1.2,0.2,2.4,0.3,3.6c0.1,1.3,0.1,2.6-0.2,3.9c-0.3,1.5-0.2,3,0,4.4c0.1,0.6,0.6,0.8,1.1,0.5c0.2-0.1,0.4-0.2,0.5-0.3
		c2-1.3,4-2.6,6-3.9c2.4-1.6,5-2.8,7.7-3.9c0.6-0.2,1.1-0.4,1.7-0.6c3.8-1.2,7.7-1.9,11.6-2.7c1.5-0.3,3-0.3,4.5-0.2
		c1.8,0.2,3.6,0.4,5.3,0.6c0.8,0.1,1.5,0.4,2.3,0.6c0.9,0.2,1.6,0.7,2.1,1.5c0.1,0.2,0.2,0.3,0.4,0.5c1.2,1,1.3,2.4,1.1,3.8
		c-0.2,1.1-0.5,2.1-0.8,3.2c-0.6,1.6-1.5,3-3.1,3.8c-1.9,1-3.7,2.3-5.4,3.7c-2.4,2-5.3,3.1-8.3,3.9c-1,0.3-1.9,0.6-2.9,0.7
		c-1.7,0.2-3.2,1-4.7,1.9c-0.1,0.1-0.2,0.4-0.1,0.5c0,0.1,0.3,0.3,0.4,0.3c2.3,0.3,4.5,0.7,6.8,0.3c2.1-0.3,4.1,0,6.1,0.7
		c2.4,0.8,4.6,1.8,6.8,3c1.1,0.7,2.2,1.4,3,2.4c1,1.1,2.1,2.2,3.1,3.2c1.2,1.3,1.7,2.9,2.1,4.5c0.3,1.1-0.2,2.2-0.6,3.1
		c-0.1,0.3-0.4,0.5-0.6,0.6C403.7,169,403.1,169.4,402.5,169.8z M360.2,158.7c0.1-0.1,0.2-0.3,0.3-0.4c1.3-1.1,1.7-2.6,2.3-4.1
		c0.3-0.9,0.4-2,0.3-2.9c-0.1-1.1-0.5-2.1-1.5-2.8c-1.3-0.9-2.6-1.8-3.6-3.1c-0.8-1.1-2-1.6-3.3-1.8c-0.7-0.1-1.4-0.1-2.1-0.2
		c-0.5-0.1-1-0.1-1.4-0.3c-0.8-0.5-1.5-0.5-2.3-0.2c-0.7,0.2-1.3,0.4-2,0.6c-0.9,0.3-1.9,0.6-2.9,0.3c-0.5-0.1-1,0.2-1.3,0.6
		c-0.3,0.4-0.7,0.8-0.7,1.3c-0.1,1-0.7,1.6-1.3,2.3c-0.9,0.9-1.6,2-2.2,3.2c-0.6,1.1-0.7,2.2-0.2,3.4c0.3,0.6,0.6,1.3,1,1.8
		c0.7,0.7,1.3,1.5,1.9,2.3c1.4,2,3.4,2.7,5.7,2.3c1.5-0.3,2.9,0.1,4.3,0.7c0.4,0.2,0.9,0.4,1.3,0.6c1,0.5,2.1,0.5,3.2,0.2
		c1.3-0.3,2.3-1,3.2-2.1C359.5,159.7,359.8,159.2,360.2,158.7z"/>
	<path class="st1" d="M500.4,224.2c0.9,0.1,1.7,0,2.3-0.5c2.2-1.7,4.4-3.6,6.6-5.2c2.1-1.6,4.3-3.1,6.6-4.4
		c4.2-2.4,8.2-4.9,12.1-7.8c2.4-1.8,5.1-3.1,8-3.9c2.1-0.6,4.1-1.4,6.1-2.1c1.1-0.4,2.1-0.9,3.2-1.3c2.1-0.7,4.2-0.6,6.2,0.5
		c1,0.6,1.9,1.3,3,1.7c3.1,1.2,4.4,3.9,5.2,6.8c0.2,0.7,0.1,1.3-0.3,1.9c-0.7,0.9-1.4,1.8-2.2,2.7c-0.8,0.8-1.8,1.5-2.5,2.4
		c-4.2,5-9,9.3-13.7,13.7c-2.1,1.9-4,3.9-6.3,5.6c-1.1,0.8-2.2,1.5-3.2,2.4c-1.4,1.2-3,2-4.9,2.3c-1.8,0.3-3.4,1.2-4.9,2.3
		c-1.8,1.4-3.4,3.1-5.7,3.9c-1.6,0.6-1.8,1.1-1.6,1.6c0.4,0.7,1,0.9,1.6,1c1.6,0.4,3.2,0.8,4.8,1.1c2.8,0.5,5.5,1.4,7.9,2.8
		c3.7,2.1,7.6,3.3,11.8,3.5c2.5,0.1,4.9,0.6,7.4,0.8c2,0.2,3.9,0.8,5.7,1.7c1.9,0.9,3.9,1.8,5.9,2.6c4.1,1.6,7.8,3.7,10.5,7.2
		c0.7,0.9,1.6,1.7,2.3,2.6c0.7,0.8,0.9,2.4,0.3,3.3c-1.9,2.9-3.6,6-6.6,8c-0.7,0.4-1.4,0.9-2.2,1.1c-1.4,0.4-2.9,0.8-4.4,0.9
		c-2.5,0.3-5,0.2-7.4,0.9c-2.3-0.3-4.6-0.4-6.9-0.8c-2.4-0.5-4.9-0.8-7.3-1.3c-3.1-0.6-6.1-1.5-9.2-2.2c-1.3-0.3-2.6-0.6-3.9-0.8
		c-0.4-0.1-0.7,0.1-0.6,0.6c0,0.2,0,0.4,0.1,0.4c0.7,0.6,1.4,1.4,2.3,1.9c4.1,2.2,8.1,4.6,12.3,6.4c1.5,0.6,3,1.4,4.4,2.3
		c1.2,0.8,2.5,1.7,3.4,2.8c1.4,1.7,2.8,3.2,4.4,4.8c0.5,0.5,0.8,1.1,1.1,1.7c0.7,1.3,0.4,2.7-0.8,3.6c-0.8,0.6-1.7,1.1-2.6,1.5
		c-1.4,0.6-2.8,1-4.2,1.5c-6.2,2.2-12.3,2-18.4-0.6c-1.1-0.5-2.1-1-3.2-1.3c-3.6-1-6.8-2.6-10.1-4.2c-2.4-1.2-4.6-2.6-6.8-4.1
		c-0.9-0.7-1.9-1.4-2.9-2c-3.7-2.1-6.2-5.4-8.3-9c-0.7-1.1-1.2-2.4-1.8-3.5c-0.8-1.6-1.9-3.1-3.2-4.4c-0.8-0.8-1.8-1.4-2.9-1.2
		c-2.3,2.2-4.4,4.2-6.5,6.4c-2.1,2.1-4.2,4.3-6.1,6.5c-2.3,2.7-4.9,4.9-7.9,6.8c-2.9,1.9-6,2.7-9.4,2.7c-3,0-5.9-0.4-8.9,0.2
		c-0.8,0.1-1.7,0-2.5-0.2c-2.3-0.6-4.6-0.8-6.9-1.1c-2.5-0.3-4.9-0.9-7.3-1.3c-2.2-0.4-3.4-1.9-4.2-3.8c-0.5-1.2-0.2-2.3,0.6-3.3
		c3.3-3.7,6.4-7.6,10.5-10.5c0.4-0.3,0.7-0.7,0.9-1.1c0.1-0.2-0.1-0.7-0.3-0.8c-0.4-0.2-0.9-0.4-1.4-0.4c-2.3,0-4.6,0-7,0
		c-2.3,0-4.6,0.2-7,0.1c-1.6,0-3.3-0.2-4.9-0.6c-3.3-0.8-6.1-2.4-8.2-5.2c-2.3-3.1-2.7-6.3-1.3-9.8c0.6-1.4,1.6-2.5,3-3.2
		c0.7-0.4,1.5-0.7,2.3-1c2.3-0.9,4.5-2.1,6.6-3.4c4.8-2.9,9.9-5.4,15.5-6.5c4.9-0.9,9.6-2.4,14.6-3c1.9-0.2,3.8-1,5.7-1.6
		c0.2-0.1,0.5-0.5,0.5-0.7c0-0.3-0.2-0.6-0.4-0.9c-0.3-0.4-0.7-0.7-1.2-0.9c-3.3-2-6.2-4.4-9-7.1c-1.9-1.8-4-3.5-6-5.3
		c-3.1-2.6-5.4-5.8-6.9-9.6c-1.1-2.6-2.1-5.2-3.1-7.9c-1.4-3.6-1.2-7.2-0.2-10.7c0.5-2,2.3-3.4,4.4-3.4c3,0,6,0.2,8.8,1.2
		c3.1,1.1,6.1,2.6,8.8,4.6c3.4,2.6,6.9,5.2,10.4,7.7c1.6,1.2,3.3,2.2,5.1,3.1c2.3,1.3,4.7,2.4,7.1,3.6c0.2,0.1,0.6-0.2,0.8-0.4
		c0.2-0.2,0.2-0.6,0.2-0.9c-0.1-3.9,0.7-7.6,1.9-11.2c0.2-0.6,0.5-1.3,0.6-1.9c0.9-5.7,3.5-10.7,6-15.7c2-4,4.9-7.1,9.1-8.7
		c1.2-0.5,2.3-0.3,3.2,0.6c1.9,2,3.8,4.1,5.7,6.3c0.7,0.9,1.2,2,1.7,3c1.4,3.4,2.3,6.9,3.1,10.5c0.3,1.1,0.3,2.3,0.1,3.4
		c-0.7,4.7-1.6,9.5-2.4,14.2c-0.3,1.8-0.9,3.5-2.1,4.9c-1.3,1.5-1.7,3.6-3.3,4.9c0,0,0.2,0.1,0.2,0.1L500.4,224.2z M500.2,261.7
		c0.4-0.1,0.7-0.2,1-0.3c1.5-0.8,2.6-2,2.5-3.9c0-0.8-0.2-1.7,0.1-2.4c0.7-1.9,0.5-3.9,0.6-5.9c0.1-1.8-0.4-3.2-1.4-4.6
		c-1-1.4-2-2.6-3.5-3.5c-1.9-1.1-3.4-2.7-4.7-4.3c-0.4-0.5-0.8-1.1-1.3-1.5c-1-0.9-2.1-1.6-3.5-1.5c-1.6,0.1-3.3,0.1-4.9,0.3
		c-1,0.1-1.9,0.5-2.8,1c-1.9,1.1-3.4,2.6-4.5,4.6c-0.9,1.7-1.9,3.5-2.9,5.2c-0.4,0.6-0.4,1.3-0.2,1.9c0.3,1,0.3,1.9,0,2.9
		c-0.1,0.5-0.2,1-0.1,1.5c0.3,2.1,0.6,4.2,1,6.4c0.4,2.8,1.9,4.8,4.5,6.1c1.4,0.6,2.7,1.3,4.2,1.5c2.1,0.4,4.2,0.7,6.3,1.2
		c1.2,0.3,2.3,0.1,3.3-0.5c1-0.6,1.9-1.3,2.8-2C497.9,262.8,498.8,261.9,500.2,261.7z"/>
	<g>
		<path class="st6" d="M2402.1,1457.9c0.1,1.2,0.3,1.4,2,1.8c0.1-0.4,0.4-0.8,0.4-1.1c0.3-6.5,2.1-12.6,4.2-18.6h-5.8
			c-0.1,1.4-0.2,2.8-0.4,4.2C2401.8,1448.8,2401.8,1453.3,2402.1,1457.9z"/>
		<path class="st6" d="M2415.5,1451.1c0,0.4,0.1,0.8,0.2,1.3c0.1,0.3,0.2,0.5,0.4,1c0.3-0.3,0.5-0.5,0.6-0.7
			c2.4-4.6,5.4-8.7,8.5-12.7h-7.5c-0.1,0.3-0.3,0.7-0.4,1C2416,1444.2,2415.2,1447.6,2415.5,1451.1z"/>
		<path class="st0" d="M1974.3,0h-7.3c1.6,0.4,3.2,0.5,4.9,0.6C1972.9,0.6,1973.7,0.4,1974.3,0z"/>
		<path class="st0" d="M1969.4,24.9c-0.9-0.6-1.9-0.4-2.8,0.1c-0.9,0.4-1.7,0.9-2.6,1.4C1966.7,27.8,1967.8,27.5,1969.4,24.9z"/>
		<path class="st0" d="M1971.1,25.1c2.6-1,5.2-2,7.8-3.1c1-0.4,1.2-1.9,0.5-2.9c-0.6-0.7-1.4-0.9-2.2-0.4c-2.3,1.6-4.6,3.2-6.9,4.9
			c-0.3,0.3-0.5,0.8-0.6,1.3C1970.1,25,1970.7,25.2,1971.1,25.1z"/>
		<path class="st0" d="M2068.7,20.8c3.5,0.5,6.9,2,10.5,0.7c-4.3-1.4-8.5-2.9-12.7-4.3c-1.3-0.4-2.7-0.7-4.1-1
			c-0.5-0.1-1.1-0.2-1.7-0.1c-0.4,0.1-0.7,0.5-0.9,0.8c-0.1,0.1,0.1,0.6,0.3,0.7C2062.5,19.7,2065.6,20.4,2068.7,20.8z"/>
		<path class="st0" d="M2534.4,1144c1.1,2.8,2.1,5.6,3.3,8.4c0.5,1.3,1.1,2.7,1.6,4c-0.7-2.2-1.3-4.3-2-6.5
			C2536.6,1147.7,2535.6,1145.7,2534.4,1144z"/>
		<path class="st0" d="M2398.7,23.2c0.1,0.5,0.5,0.9,1.1,0.9c1.2,0,2.4-0.3,3.4-1c0.5-0.3,0.4-0.9,0.1-1.4c-0.8-1-0.4-1.9,0.2-2.8
			c0.1-0.1,0.1-0.3,0.2-0.5c0-0.2,0-0.4-0.1-0.5c-2.5-5.6-3.1-11.5-2.9-17.6c0-0.1,0-0.2,0-0.3h-7.1c1.6,6.3,3,12.7,4.3,19.2
			C2398,20.5,2398.3,21.9,2398.7,23.2z"/>
		<path class="st0" d="M2556.1,1138.1c-2,1.5-4.3,2.8-6.4,4.1c-0.9,0.6-2,1.1-3,1.6c1.6,3.8,3,7.2,4.3,10.6c1.2,3.1,2.5,6.3,3.6,9.5
			c1.1,3.5,0.6,6.9-1.3,10c-1.1,1.7-2.7,2.5-4.1,2.2c1.9,3.4,3.8,6.9,5.6,10.3c1.4,2.7,2.5,5.6,4,8.2c0.4,0.7,0.8,1.4,1.2,2.1v-62.2
			C2558.8,1135.8,2557.5,1137,2556.1,1138.1z"/>
		<path class="st0" d="M2415.3,20.8c-0.2,0.3,0,1.2,0.3,1.3c2,1,4.1,1.9,6.1,2.7c0.9,0.4,1.8,0,2.1-0.9c0.6-1.6,1.2-3.2,1.6-4.9
			c1.6-6.1,4.7-11.4,8.7-16.3c0.8-0.9,1.5-1.9,2.3-2.8h-6.5c-1.3,2.1-2.8,4.1-4.5,5.9C2421.3,10.3,2418.2,15.5,2415.3,20.8z"/>
		<path class="st0" d="M280.4,1432.8c-0.1-1.2-0.9-2.6-1.6-2.7c-1,0-1.6,0.6-2.2,1.3c-2.5,2.6-4.7,5.6-6.8,8.6h10.4
			c0.1-1.8,0.1-3.5,0.2-5.3C280.6,1434.1,280.5,1433.4,280.4,1432.8z"/>
		<path class="st3" d="M2558.8,1194.6c-1.5-2.6-2.5-5.6-4-8.2c-1.8-3.4-3.7-6.9-5.6-10.3c-1-0.2-2-0.9-2.7-2.1
			c-1.9-3.1-3.4-6.5-4.7-9.9c-0.9-2.6-1.8-5.1-2.6-7.8c-0.5-1.3-1.1-2.7-1.6-4c-1.1-2.8-2.2-5.6-3.3-8.4c-1.2-1.7-2.8-3.1-4.6-4.4
			c-1.9-1.3-3.1-2.9-3.8-5.1c-0.7-2.1-1.6-4.3-2.7-6.2c-1.7-2.9-1.9-6-2-9.3c-0.1-2.2-0.2-4.5-0.3-6.7c-0.1-0.3-0.2-0.6-0.3-0.9
			c-0.6-1.9-1.3-3.8-2.1-5.6c-1.8-4.4-3.9-8.7-5.5-13.2c-2.9-8.5-6-17-8.4-25.7c-1.4-1-2.5-2.1-2.8-3.9c-0.2-1.1-0.9-2.1-1.4-3.1
			c-2.4-5.4-3.3-11.2-3.6-17c-0.3-6.5-0.6-13-0.7-19.4c0-0.3,0-0.6,0.1-0.9c-0.4-2.2-0.7-4.3-1-6.5c-1.1-7.3-1.5-14.7-2-22.1
			c-1.1,0.1-1.8-0.3-2.6-1.4c-0.1-0.1-0.1-0.2-0.1-0.2c-5.5-4.8-5.1-11.7-6.4-18c-0.3-1.5-0.5-3-1-4.4c-1.4-4.3-1-8.6,0.1-12.8
			c0.5-2,1.2-4,2.1-5.8c1-2.2,2.3-3.5,3.8-4.2c-0.3-2.2-0.5-4.4-0.8-6.5c-1.1-9.7-2.3-19.4-3.4-29.1c-0.6,0-1.3,0.2-1.9,0.3
			c-2.9,0.5-7.5-0.3-9-3.3c-0.5-1-0.9-2.1-1.4-3.2c-0.2,0.1-0.5,0.1-0.7,0.2c-1.1,0.3-2.6,1.4-2.8,2.3c-0.6,3-1.1,6-1.4,9.1
			c1.2,1.7,2.6,3.3,4.1,4.8c3.3,3.3,3.8,7.7,4.8,11.9c0.3,1.3-0.5,3.2-1.3,4.4c-2.2,3.2-4,6.6-5.7,10c0.1,3.9,0.2,7.7,0.3,11.6
			c0.2,5.7,0,11.4,0.4,17.1c0.4,6.1,1.1,12.1,1.7,18.2c0.1,1.1,0.2,2.1,0.3,3.2c0.7,1.3,1.3,2.7,1.9,4.1c1.7,4.3,3.6,8.5,5.3,12.8
			c0.5,1.1,0.8,2.3,1,3.5c0.4,2.8,0.8,5.6,1.1,8.4c0.4,3.3-0.6,5.3-3.4,6.7c1.6,5.8,3.4,11.5,5.2,17.2c3.1,0.8,4.5,3.4,5.4,6.5
			c0.8,2.8,1.6,5.6,2.6,8.3c1,2.6,2.5,5.1,3.4,7.7c0.6,1.5,0.7,3.2,0.9,4.9c0.1,0.7-0.3,1.5-0.1,2.2c0.6,1.9-0.4,3.2-1.9,3.9
			c-0.6,0.3-1.3,0.7-1.9,1c1.4,5.6,3.2,11.2,5.2,16.7c0.5,0.2,0.9,0.5,1.4,0.9c2.2,1.9,3.6,4.3,5.1,6.7c1,1.6,1.9,3.1,3.7,4.3
			c1.7,1.2,2.9,3.5,3.6,5.6c1.5,4.9,2.6,10,3.8,15c0.2,0.8,0.2,1.7,0.6,2.5c5.7,13.7,11.5,27.4,17.3,41.1c0.4,1,1,2,1.5,3
			c0.5,1.2,0.8,2.3-0.3,3.4c-0.8,0.8-2.3,1-3.5,0.5c0.3,0.5,0.5,1,0.8,1.5c3.1,5.4,6.6,10.5,9.9,15.8c2.1,3.4,4.1,6.8,6.2,10.2
			c2.5,3.9,5,7.8,7.5,11.7c1.9,3.1,3.6,6.3,5.5,9.3v-36.7C2559.6,1196,2559.2,1195.3,2558.8,1194.6z"/>
		<path class="st7" d="M2515.8,1074.7c4,2.4,8.2,4.6,13.1,5c3.5,0.2,6.8-0.3,9.7-2.2c0.6-0.4,1.5-1.2,1.5-1.8
			c0.2-2.3-0.1-4.7-2.5-5.8c-1.9-0.9-4-1.7-6.1-2.2c-4.3-1-8.6-1.8-13-2.8c-0.8-0.2-1.8-0.3-2.3-1.4c0.5-0.1,0.8-0.1,1.1-0.1
			c7.1-0.1,11.2-4.6,14.6-10.1c0.6-1.1,0.7-2.1-0.1-3.1c-0.9-1.1-2-1-3.1-0.6c-1.2,0.5-2.3,1.2-3.5,1.7c-0.5,0.2-1.1,0.3-1.6,0.5
			c0.4-1,0.9-1.7,1.5-2.2c2.7-2.3,4.8-5.2,6.2-8.3c2-4.7,3.5-9.7,4.9-14.7c0.6-2,0.4-4.3,0.3-6.4c-0.2-2.7-0.6-5.4-0.9-8.1
			c-0.3-2.2-2.6-3.3-4.4-2.1c-0.8,0.5-1.4,1.3-2,2c-1.6,1.9-3.2,3.8-4.7,5.7c-0.3-0.2-0.4-0.2-0.4-0.3c-0.3-0.9-0.7-1.7-1-2.6
			c-1.4-4.5-8.5-9.3-13.4-5c-0.7,0.6-1.6,1-2.3,1.6c-1.7,1.3-3.2,2.8-3.6,5.2c-0.3,1.9-1,3.8-1.6,6.1c-0.8-0.6-1.2-1.2-1.8-1.3
			c-0.9-0.2-2.1-0.5-2.9-0.1c-0.4,0.2-0.7,0.9-0.8,1.5c1.6,9.2,3.5,18.4,4.8,27.6c0.8,5.7,2.1,11.3,3.6,16.8c0,0,0.1,0,0.1,0.1
			C2508.6,1069.7,2512,1072.5,2515.8,1074.7z"/>
		<path class="st7" d="M2496.5,1022.7c-0.1,0.3-0.1,0.6-0.1,0.9c0.2,6.5,0.4,13,0.7,19.4c0.3,5.9,1.2,11.6,3.6,17
			c0.5,1,1.2,2,1.4,3.1c0.3,1.9,1.4,2.9,2.8,3.9c-1.5-5.5-2.8-11.1-3.6-16.8C2500,1041.1,2498.1,1031.9,2496.5,1022.7z"/>
		<path class="st7" d="M2490.4,1103.9c-1.5,2.3-2.5,4.8-2.8,7.6c-0.1,1.1-0.3,2.2-0.6,3.6c-0.6-0.6-1-0.9-1.4-1.3
			c-1.7-1.5-3.3-3.1-5.1-4.5c-1.7-1.3-3.7-1.1-5.1,0.4c-0.9,1-1.7,2.3-2,3.6c-0.7,2.5-0.7,5,0,7.5c0.2,0.8,0.3,1.6,0.4,2.2
			c-1.9,0.5-3.6,0.6-5,1.3c-1.8,1-1.1,3-0.9,4.7c-0.8,0.1-1.3,0.2-1.8,0.3c-2.5,0.5-3.2,1.3-3.2,3.7c0,0.6,0.1,1.1,0.2,1.7
			c0.7,4.2,3,7.4,6.2,10.1c2.1,1.7,4.2,3.4,6.5,5.3c-0.8,0.7-1.2,1.1-1.8,1.4c-1.8,1.1-3.7,2.2-5.6,3.4c-3.1,1.9-5.2,4.7-5.5,8.4
			c-0.2,2,0.2,2.7,2,3.6c1.4,0.7,2.9,1.4,4.3,2.1c4.4,2.3,9.1,3.2,14,2.2c4.5-0.9,8.4,1.1,10.1,4.8c0.3,0.6,0.7,1.1,1,1.7
			c1.7,3,3.1,3.3,5.9,1.5c0.6-0.3,1.1-0.7,1.6-1.2c4.3-4.7,6.9-10,7-16.5c0-2,0.1-4,0.2-6.3c0.4,0.3,0.7,0.4,0.8,0.6
			c3.1,5.2,6,10.4,9.3,15.5c2.3,3.6,5.1,7,7.8,10.4c0.8,1,1.8,1.9,2.9,2.6c0.2,0.1,0.3,0.2,0.5,0.3c-2.8-5.1-5.4-10.3-7.8-15.5
			c-5-10.6-9.2-21.5-12.1-32.9c-3.7-9.5-7.4-19-10.9-28.6c-0.7-2-1.5-4-2.2-6.1C2494.5,1100.6,2492.1,1101.3,2490.4,1103.9z"/>
		<path class="st7" d="M2510.1,1136.5c2.9,11.4,7.2,22.3,12.1,32.9c2.5,5.2,5,10.5,7.8,15.5c1.2,0.5,2.7,0.3,3.5-0.5
			c1.1-1,0.8-2.2,0.3-3.4c-0.5-1-1.1-2-1.5-3c-5.8-13.7-11.5-27.4-17.3-41.1c-0.3-0.8-0.4-1.6-0.6-2.5c-1.2-5-2.3-10.1-3.8-15
			c-0.6-2.1-1.9-4.4-3.6-5.6c-1.7-1.2-2.7-2.7-3.7-4.3c-1.5-2.4-2.9-4.9-5.1-6.7c-0.4-0.4-0.9-0.7-1.4-0.9c0.7,2,1.4,4,2.2,6.1
			C2502.6,1117.5,2506.4,1127,2510.1,1136.5z"/>
		<path class="st7" d="M2564.7,1128.4c2.7-4.5,5.1-9.2,7.7-13.8c3.2-5.6,4-11.7,4.3-17.9c0.1-2.6-0.6-3.5-3.1-4.3
			c-1-0.3-2-0.4-3-0.4c-3.5,0.2-6.1,2.3-8.4,4.8c-0.8,0.8-1.5,1.7-2.2,2.5v35.2C2561.8,1132.7,2563.3,1130.6,2564.7,1128.4z"/>
		<path class="st7" d="M2556.9,1101.5c0.1-4.2,0.3-8.5,0.1-12.7c-0.2-3.1-0.8-6.2-1.6-9.1c-0.8-2.8-3.4-3.3-5.3-1.1
			c-0.9,1-1.4,2.4-2,3.7c-1.2,2.6-2.2,5.4-3.6,7.9c-2.7,4.6-4.5,9.5-4.9,14.9c0,0.6-0.2,1.2-0.5,2.1c-1.3-1.9-2.3-3.5-3.4-5
			c-2.1-3.1-4.2-6.2-6.5-9.2c-1.7-2.3-3.4-4.5-5.3-6.6c-0.9-1-1.9-2.1-3.7-1.3c-1.6,0.7-1.5,2-1.4,3.3c0.5,4.5,1.2,9,1.5,13.4
			c0.3,3.5,0.5,7,0.7,10.5c2.4,7.6,5.7,14.8,9.2,21.9c1.5,3.2,2.8,6.4,4.1,9.7c1.3,1.7,2.2,3.7,2.9,5.8c0.7,2.2,1.3,4.3,2,6.5
			c1,2.5,2,5,3.3,7.3c2.2,4.2,4.4,8.3,6.7,12.4c1.5,0.3,3.1-0.5,4.1-2.2c1.9-3.1,2.4-6.5,1.3-10c-1-3.2-2.3-6.4-3.6-9.5
			c-1.3-3.4-2.8-6.8-4.3-10.6c1-0.6,2.1-1,3-1.6c2.2-1.3,4.4-2.5,6.4-4.1c1.4-1.1,2.7-2.2,3.9-3.5v-35.2c-0.9,1.2-1.9,2.4-2.9,3.7
			C2557,1102.4,2556.9,1102,2556.9,1101.5z"/>
		<path class="st7" d="M2539.2,1156.3c0.8,2.6,1.6,5.2,2.6,7.8c1.3,3.4,2.8,6.8,4.7,9.9c0.7,1.2,1.7,1.9,2.7,2.1
			c-2.3-4.1-4.5-8.2-6.7-12.4C2541.3,1161.3,2540.2,1158.8,2539.2,1156.3z"/>
		<path class="st7" d="M2521.1,1112.4c0.1,2.2,0.2,4.5,0.3,6.7c0.1,3.2,0.3,6.3,2,9.3c1.1,1.9,1.9,4.1,2.7,6.2
			c0.7,2.1,1.9,3.8,3.8,5.1c1.8,1.2,3.4,2.7,4.6,4.4c-1.3-3.3-2.6-6.5-4.1-9.7C2526.8,1127.1,2523.5,1120,2521.1,1112.4z"/>
		<path class="st7" d="M2490.6,910.1c2.1-1.5,4.2-3.5,6.9-3.6c4.8-0.1,9.2-1.8,13.8-2.8c1.8-0.4,3.6-1.2,5.1-2.2c1.7-1.1,2.4-3,2-5
			c-0.4-1.9-1.8-3-3.7-3.4c-1-0.2-2.1-0.3-3.1-0.3c-2.9,0.2-5.8,0.6-8.7,0.9c-0.5,0-1,0-2,0c1.9-1.5,3.3-2.7,4.7-3.9
			c2.6-2.2,4.8-4.7,6.5-7.7c1.7-3,1.2-6.7-3.6-7.4c-3.5-0.5-6.5,0.6-9.5,2.1c-1.4,0.7-2.8,1.5-4.4,2.3c-0.1-1.2,0-2.2-0.2-3.1
			c-0.6-2.4-0.9-5.2-3.8-6.1c-2.7-0.9-5.2-0.2-7.3,1.7c-0.7,0.7-1.3,1.5-2.1,2.4c-0.4-0.4-0.6-0.5-0.7-0.6c-0.3-0.6-0.7-1.1-1-1.7
			c-2.3-3.6-5.2-6.5-9.7-7c-4.1-0.5-8.2,1.3-7.1,6.7c1.6,7.8,3.1,15.7,5,23.4c0.7,2.9,1.1,6.2,4.1,8.1c0.3,0.2,0.3,0.8,0.5,1.3
			c0.2,0.4,0.3,0.8,0.5,1.2c1.7-0.4,3.4-0.6,5.1-0.7c3.8-0.2,6.6,2.6,7.1,6.4c0,0.2,0,0.3,0.1,0.5c0.2,0,0.4,0,0.5,0
			C2487.6,911.8,2489,911.2,2490.6,910.1z"/>
		<path class="st7" d="M2478,904.6c-1.7,0.1-3.5,0.3-5.1,0.7c0.4,1.1,0.9,2.1,1.4,3.2c1.5,3,6.1,3.8,9,3.3c0.6-0.1,1.3-0.3,1.9-0.3
			c0-0.2,0-0.3-0.1-0.5C2484.6,907.2,2481.8,904.4,2478,904.6z"/>
		<path class="st7" d="M2460.6,984.4c-3-1.7-6.2-3.1-9.4-4.5c-0.7-0.3-1.4-0.6-2.1-0.7c-2.2-0.4-3.7,1.1-3.4,3.3
			c0.2,1.3,0.7,2.5,0.9,3.8c0.4,1.9,1.2,3.9,0.9,6.2c-1.1-0.3-1.9-0.6-2.7-0.8c-2.4-0.5-4.8-1-7.1-1.4c-3.6-0.7-7.9,2.6-7,7.6
			c0.2,1,0.3,2,0.6,3.4c-2.1,0.3-3.8,0.5-5.4,0.9c-3,0.8-6.2,1.6-8,4.4c-1.6,2.6-3.7,4.4-6.5,5.4c-2,0.7-2.3,1.7-1.9,3.7
			c1.1,5.4,2.5,10.7,6,15.3c1.8,2.3,3.7,4.2,6.4,5.3c1.6,0.7,3.1,1.8,4.8,2.4c3.3,1.2,6.7,2.5,10.1,3.4c2.7,0.6,5.6,0.6,8.4,0.8
			c1.1,0.1,2.3,0.2,3.4,0c5.7-1.2,11.5-2.1,16.9-4.3c3.9-1.6,7.9-3.1,11.8-4.7c0.3-0.1,0.6-0.3,0.8-0.4c-0.1-0.2-0.1-0.4-0.2-0.6
			c-3.2-11.4-4.6-23.1-5.7-34.9c-1.8-3.7-4.1-7.1-7-10.1C2463.9,986.6,2462.3,985.3,2460.6,984.4z"/>
		<path class="st7" d="M2478.2,1033.5c2.7-1.4,3.7-3.3,3.4-6.7c-0.3-2.8-0.6-5.6-1.1-8.4c-0.2-1.2-0.5-2.4-1-3.5
			c-1.7-4.3-3.6-8.5-5.3-12.8c-0.6-1.4-1.2-2.8-1.9-4.1c1.1,11.7,2.5,23.4,5.7,34.9C2478,1033.1,2478.1,1033.3,2478.2,1033.5z"/>
		<path class="st7" d="M2456.7,905.6c-1.5-1.3-2.6-1-3.6,0.8c-0.6,1-1,2-1.5,2.9c-3.7,0.2-5.6,3-4.2,6.1c0.7,1.5,1.6,3,2.7,4.3
			c1.1,1.4,2.4,2.6,3.9,4.3c-1.9,0-3.2,0.1-4.6,0.1c-1.2,0-2.4-0.2-3.7-0.1c-2.6,0.2-5.1,2.8-5.6,5.6c-0.4,2.6,0.7,4.3,3.5,5.7
			c0.2,0.1,0.4,0.3,0.6,0.5c-1.2,1.7-2.4,3.2-3.3,4.9c-1.6,2.9-3.4,5.7-3.7,9.1c-0.2,2.4,1.2,3.4,3.5,2.6c1.2-0.4,2.4-0.9,4.3-1.6
			c-0.3,1.1-0.3,1.6-0.5,1.9c-1.6,3.5-3.3,7-4.9,10.5c-1.2,2.6-0.9,4.7,1.2,6.7c1.2,1.1,2.4,2.1,3.8,3c2.8,2,4.1,1.9,6.8-0.3
			c4.9-3.9,8.1-9.4,12.5-13.7c0.4-0.4,0.5-1,0.8-1.5c1.9-3.1,3.5-6.3,5.1-9.5c-0.1-3.8-0.3-7.6-0.7-11.4c-0.6-5.4-1.6-10.8-1.3-16.2
			c0.1-1.1,0.2-2.3,0.3-3.4c-0.3-0.4-0.6-0.9-0.9-1.3C2464.3,911.4,2460.3,908.7,2456.7,905.6z"/>
		<path class="st7" d="M2468.9,936.6c0.4,3.8,0.6,7.6,0.7,11.4c1.7-3.4,3.5-6.8,5.7-10c0.9-1.2,1.6-3.1,1.3-4.4
			c-0.9-4.2-1.4-8.6-4.8-11.9c-1.5-1.5-2.8-3.1-4.1-4.8c-0.1,1.1-0.2,2.3-0.3,3.4C2467.3,925.8,2468.3,931.2,2468.9,936.6z"/>
		<path class="st7" d="M2496.5,993.1c4.2-1.1,8.4-2,12.6-3.1c8.9-2.3,17.8-4.8,26.7-7.1c2.6-0.7,4.7-2.2,6.7-4c1-0.9,1.3-2,0.8-3.1
			c-1-2.2-2.1-4.4-4.6-5.4c-3.7-1.6-7.5-1.7-11.3-1.1c-1.1,0.2-2.1,0.3-3.7,0.6c1.1-1.8,1.9-3.1,2.8-4.3c1.6-2.3,1.7-4.7,0.7-7.2
			c-1.9-4.7-7.5-6.2-11.4-3c-0.8,0.6-1.5,1.3-2.6,2.1c-0.2-1.2-0.1-2.2-0.4-3c-0.4-1.2-0.8-2.7-1.7-3.4c-3.3-2.5-7-3.7-11.1-2.3
			c-0.9,0.3-1.7,0.7-2.7,1.1c-0.6-0.5-0.9-0.8-1.3-1c-2.4-1.7-4.7-2.2-6.7-1.4c1,8.7,2.1,17.5,2.9,26.3c0.6,6.5,0.6,13,1.1,19.4
			c0,0.4,0.1,0.8,0.1,1.2c0.3,0,0.6-0.1,1-0.2C2495.1,993.6,2495.8,993.3,2496.5,993.1z"/>
		<path class="st7" d="M2492.2,973.5c-0.9-8.8-1.9-17.5-2.9-26.3c-1.5,0.6-2.9,2-3.8,4.2c-0.9,1.9-1.6,3.8-2.1,5.8
			c-1.1,4.2-1.5,8.5-0.1,12.8c0.5,1.4,0.7,2.9,1,4.4c1.3,6.3,1,13.2,6.4,18c0.1,0.1,0.1,0.2,0.1,0.2c0.8,1.1,1.5,1.6,2.6,1.4
			c0-0.4-0.1-0.8-0.1-1.2C2492.8,986.4,2492.8,979.9,2492.2,973.5z"/>
		<path class="st7" d="M2479.9,1050c-2.7-0.7-5.3-0.4-7.6,1.1c-1.9,1.2-3.7,2.6-5.2,4.2c-1.3,1.4-2.7,1.8-4.3,1.3
			c-1.6-0.5-3.1-1.3-4.6-2c-2.2-1.1-4.2-0.5-4.8,1.9c-0.4,1.8-0.6,3.7-0.4,5.5c0.3,3,1.1,5.9,1.8,9.2c-1,0-1.8-0.1-2.5,0
			c-4,0.6-5.9,2.5-4.9,5.3c1.3,3.8-0.3,5.8-3.6,7.1c-0.2,0.1-0.3,0.2-0.5,0.3c-4.2,2.6-5.3,8.2-2,11.9c1.5,1.7,3.6,3.1,5.7,3.9
			c4,1.6,8.1,1.2,12.2,0.1c11.7-3,22.2-8.9,32.7-14.6c-1.1-4.4-2-8.8-2.6-13.3c-0.6-5-2.4-9.8-3.9-14.6c-0.7-2.2-1.3-4.4-2-6.7
			c-0.6-0.1-1.2-0.2-1.8-0.2C2481,1050.4,2480.4,1050.1,2479.9,1050z"/>
		<path class="st7" d="M2489.3,1071.9c0.6,4.5,1.5,8.9,2.6,13.3c0.6-0.3,1.3-0.7,1.9-1c1.5-0.8,2.4-2,1.9-3.9
			c-0.2-0.7,0.2-1.5,0.1-2.2c-0.2-1.6-0.3-3.4-0.9-4.9c-1-2.6-2.4-5.1-3.4-7.7c-1-2.7-1.8-5.6-2.6-8.3c-0.9-3.1-2.3-5.7-5.4-6.5
			c0.7,2.2,1.4,4.4,2,6.7C2486.8,1062.1,2488.6,1067,2489.3,1071.9z"/>
		<path class="st8" d="M2375.8,22.2c3.8,3.5,7.1,7.5,11.1,10.7c0.4,0.3,0.6,0.8,0.8,1.2c-0.6,1.5-1.4,2.8-2.6,3.8
			c-0.4,0.3-1,0.4-1.3,0c-0.8-1-1.8-1.6-3-1.8c-0.7-0.1-1.3-0.3-2-0.4c-2.4-0.3-4.6-1.2-6.7-2.5c-3.9-2.5-7.8-5-11.6-7.7
			c-2.6-1.9-5.4-3.6-8.2-5.4c-3-1.9-6.2-2.8-9.7-3.3c-7.3-1-14.4,0.4-21.5,2c-1.1,0.2-1.8,0.9-2.4,1.8c-1.4,2.1-1.8,4.4-1.7,6.9
			c0.1,1.5,0.4,3.1,0.6,4.6c0.1,1.3,0.7,2.3,1.4,3.3c3.9,5,8.7,8.7,14.4,11.4c4.5,2.2,9.3,3.6,14,5.1c1.3,0.4,2.7,0.6,4,0.8
			c2.4,0.4,4.8,0.6,7.2,1c2.7,0.4,5.5,0.5,8.2-0.1c0.8-0.2,1.7-0.4,2.5-0.1c0.9,0.3,1.7,0.1,2.5-0.3c0.6-0.3,1.3-0.4,2-0.6
			c1.5-0.3,3-0.6,4.6-0.8c1.8-0.2,3-1.7,4.5-2.3c0.4-0.1,1,0.2,1.3,0.6c0.4,0.7,0.3,1.5-0.2,1.9c-0.5,0.4-1,1-1.6,1.3
			c-5.1,2.6-10.1,5.3-15.2,7.6c-4.9,2.2-9.5,4.8-13.5,8.4c-1.9,1.7-3.9,3.4-5.8,5.1c-2.7,2.2-5.1,4.6-7.3,7.3
			c-2.3,2.8-4.7,5.5-7.6,7.7c-1.8,1.4-3.2,3.1-4.4,5c-2,3.2-2,6.6,0.3,9.6c1.1,1.5,2.4,2.9,3.8,4.2c2.5,2.3,5.6,3.4,9,3
			c1.7-0.2,3.4-0.5,5-1.3c2.3-1.2,4.8-1.8,7.4-2.2c1-0.2,2-0.3,3.1-0.5c2.8-0.6,5.1-1.8,7.2-3.8c1.6-1.5,3.4-2.9,5.1-4.3
			c3.8-3,7.4-6.2,10.1-10.2c1-1.4,2.2-2.7,3.4-3.9c2.2-2.2,4.3-4.5,6-7c0.2-0.3,0.4-0.5,0.6-0.8c0.1-0.1,0.2-0.3,0.4-0.4
			c0.1-0.1,0.4-0.2,0.5-0.1c0.2,0.2,0.5,0.5,0.4,0.7c-0.8,5.3-2.3,10.4-4,15.5c-2.1,6.4-3.3,13-3.9,19.7c-0.2,2.4-0.1,4.8,0,7.2
			c0.1,3.8,1.9,6.9,4.4,9.6c0.8,0.9,1.7,1.7,2.7,2.4c4.2,3.5,9.1,3.5,13.5,1.1c1.6-0.8,2.7-2.2,3.8-3.5c4.5-5.6,7.1-12.2,8.2-19.2
			c0.8-5.1,1.7-10.2,2.9-15.2c0.4-1.5,1-3,0-4.5c-0.2-0.3-0.2-0.7-0.1-1c0.3-2.4,0.7-4.8,1.1-7.1c0-0.1,0.2-0.4,0.3-0.4
			c0.3-0.1,0.8-0.2,0.9,0c1.5,1.5,2.3,3.4,3.1,5.3c2.3,5.2,5,10.2,7.5,15.3c2.6,5.1,6.1,9.6,10.3,13.4c1.2,1,2.5,1.9,4,2.4
			c4.2,1.3,8.4,1.8,12.7,1.1c2-0.3,4-0.9,6-1.6c1.3-0.5,2.3-1.5,2.6-3c0.6-2.5,1-5,0.8-7.7c-0.3-5-1.4-9.9-2.3-14.8
			c-0.1-0.5-0.3-1-0.4-1.5c-2.1-5.7-5.5-10.6-8.6-15.8c-0.3-0.4-0.6-0.8-1-1.2c-3.1-3.2-6.1-6.5-9.6-9.3c-3.3-2.7-6.5-5.6-10.2-7.9
			c-0.4-0.3-0.8-0.7-1.1-1c-0.4-0.3-0.4-1.1-0.1-1.4c0.2-0.2,0.5-0.3,0.8-0.4c0.1,0,0.3,0,0.5,0c4.4,1.6,9,2,13.7,2.2
			c0.5,0,1,0.2,1.5,0.2c2.9,0.2,5.8,0.5,8.7,0.5c6.4,0,12.7-0.1,19.1,0.2c5.6,0.3,10.9-1.4,15.7-4.4c6.2-3.9,11.6-8.5,16.6-13.8
			c2-2.2,2.7-4.7,3.2-7.5c0.2-1.2-0.2-2.4-0.7-3.5c-0.6-1.3-1.5-2.3-2.7-3.1c-1.7-1.2-3.5-2.2-5.5-2.9c-6.1-1.9-12.4-2.9-18.8-2.1
			c-2.7,0.3-5.5,0.7-8.2,1.2c-6.9,1.3-13.7,3.2-20.1,6.5c-7,3.6-14.3,6.8-21,11.1c-0.4,0.3-0.9,0.5-1.4,0.5c-0.3,0-0.8-0.1-0.9-0.4
			c-0.5-1.1-1-2.2-1.4-3.3c-0.3-0.7,0-1.5,0.6-1.8c1.7-0.8,3.4-1.6,5.2-2.3c1.6-0.7,3.3-1.1,4.8-1.9c4.4-2.3,8.8-4.8,12.5-8.2
			c0.8-0.7,1.6-1.3,2.4-1.9c6.5-4.7,11.5-10.8,16-17.3c0.5-0.7,1-1.5,1.5-2.3h-40.1c-0.8,0.9-1.6,1.9-2.3,2.8
			c-4,4.9-7,10.2-8.7,16.3c-0.4,1.7-1.1,3.3-1.6,4.9c-0.3,0.9-1.2,1.3-2.1,0.9c-2.1-0.9-4.1-1.7-6.1-2.7c-0.3-0.1-0.5-1-0.3-1.3
			c2.9-5.3,6-10.5,10.2-14.9c1.7-1.8,3.1-3.8,4.5-5.9h-29.4c0,0.1,0,0.2,0,0.3c-0.2,6.1,0.5,12,2.9,17.6c0.1,0.2,0.1,0.3,0.1,0.5
			c-0.1,0.2-0.1,0.3-0.2,0.5c-0.6,0.9-0.9,1.8-0.2,2.8c0.3,0.4,0.4,1.1-0.1,1.4c-1,0.7-2.2,1-3.4,1c-0.6,0-1-0.4-1.1-0.9
			c-0.3-1.3-0.6-2.7-0.9-4c-1.2-6.4-2.6-12.8-4.3-19.2h-34.6C2363.4,8.3,2368.9,15.7,2375.8,22.2z"/>
		<path class="st4" d="M1846.8,8.3c-0.2,2.2-0.5,4.5-0.5,6.8c0,1.1,0.2,2.3,0.8,3.2c2.2,3.4,4.8,6.4,8.7,7.7c7.2,2.4,14.3,5.4,22,6
			c3.1,0.2,6.1,0.9,9,2.2c3.1,1.4,6.5,1.9,9.9,2.1c4.8,0.2,9.6,0.4,14.4,0.3c3.7-0.1,7.4,0,11-0.8c7.7-1.9,15.6-2.4,23.5-3.1
			c2.5-0.2,5-0.7,7.5-1.3c0.8-0.2,1.5-0.7,2.2-1.1c1.4,0.1,2.7,0.3,4.1,0.4c-1.4,0.4-2.8-0.2-4.1-0.4c0.4,1.1,0.7,2.4-0.4,3
			c-4.6,2.7-9.3,5.4-14.1,7.7c-6.3,3.1-12.6,6.4-18.1,10.9c-1.1,0.9-2.3,1.7-3.5,2.4c-9.5,5.1-17.6,12.3-26.7,18
			c-1.7,1-3,2.5-4.6,3.7c-1.6,1.3-2.7,2.9-3.5,4.7c-2.1,4.9-1.4,9.9-0.7,15c0.1,0.5,0.4,1.1,0.6,1.6c3.4,5.8,8,10.2,14.6,12.1
			c2.2,0.6,4.4,1.1,6.6,1.3c4.5,0.3,9,0.2,13.5,0.5c4.1,0.3,7.9-0.6,11.6-2c4.7-1.9,9.4-4,14.1-5.8c4.8-1.8,9.1-4.4,12.9-7.8
			c4.2-3.8,9-6.8,14-9.5c0.7-0.4,1.6-0.4,2.4-0.6c0.7-0.1,1.9,0.8,1.7,1.4c-2.1,6.1-4.2,12.3-6,18.5c-1.1,3.5-2.9,6.8-3.9,10.3
			c-2.6,8.7-4.6,17.4-3,26.7c0.7,4.1,2.2,7.5,4.8,10.6c2.4,2.9,5.5,4.5,9.3,5.4c6.1,1.4,11.7,0.5,17.2-2.2c3.5-1.8,7.1-3.4,9.9-6.3
			c1.2-1.2,2.6-2.2,4-3.1c3.6-2.5,6.1-5.9,7.8-9.8c1.8-4.1,3.7-8.2,5.3-12.5c3.9-10.9,7.8-21.8,8.8-33.4c0-0.2,0.4-0.6,0.5-0.6
			c0.5,0.2,1.2,0.3,1.4,0.7c1.1,2,2.1,4,2.9,6.1c2.3,5.5,5.1,10.7,8.4,15.6c3.1,4.7,6.5,9.2,9.8,13.8c2.3,3.3,5.1,6.1,8.5,8.1
			c5.3,3.2,10.8,6.1,16.6,8.3c0.8,0.3,1.6,0.4,2.5,0.3c2.3-0.1,4.4-0.5,6.6-1.3c2.9-1,4.7-3,5.9-5.7c0.7-1.5,1.1-3.2,1.4-4.9
			c0.7-3.9,1.4-7.8,2-11.7c0.2-1.3,0.1-3-0.5-4.1c-2.2-4.3-3.2-9-4.4-13.6c-1-4.1-2.7-7.9-6.2-10.9c-3.7-3.2-6-7.4-8.1-11.8
			c-5.1-10.1-10.8-19.8-18.3-28.3c-3.6-4.1-7.1-8-12.3-9.9c-0.2-0.1-0.5-0.4-0.6-0.6c-0.1-0.5-0.2-1.2,0-1.5c1.3-1.6,3.1-2.4,5.4-2
			c2,2.1,4,4.5,6.2,6.7c8.5,8.3,17.1,16.4,25.6,24.6c2.3,2.2,4.8,3.9,7.6,5.3c1.8,0.9,3.5,1.7,5.4,2.5c1.9,0.8,3.5,1.8,4.8,3.3
			c4,4.5,9.3,7.3,14.5,10.1c4,2.1,8.5,3.1,12.6,4.9c4.5,2,9.2,2.4,14,2.6c3,0.1,5.5-1,7.7-3c3.9-3.6,6.1-8.1,6.9-13.3
			c0.3-2.2,0.6-4.5,1.4-6.6c0.8-2,0.3-3.9-0.7-5.7c-2.5-4.5-5.6-8.5-9.5-11.8c-1.7-1.5-3.5-2.9-4.7-4.8c-1.3-2.3-3.3-3.8-5.6-5
			c-1.5-0.8-2.7-2-4.1-2.9c-1.1-0.8-2.2-1.8-3.5-2.3c-6.7-3-13.5-5.7-20.1-8.8c-4.1-1.9-8.4-3.1-12.9-3.9
			c-5.6-0.9-10.9-2.8-16.2-4.8c-1.2-0.4-1.3-1.6-1.3-2.7c1.1,0,2.3-0.2,3.2,0.1c9.2,3.5,18.5,4.7,28.2,3c4.4-0.8,9-1.6,13.4-1.6
			c4.5,0.1,8.9,1.2,13.4,1.9c4.3,0.7,8.4,0.2,12.5-1.2c5.9-2,11.7-4.1,17.6-6.2c3.5-1.3,6.7-3,9.6-5.3c4.2-3.3,8.3-6.7,12.5-10.1
			c0.8-0.7,1.6-1.4,2.2-2.3h-217.9c-0.6,0.4-1.4,0.6-2.4,0.6c-1.7,0-3.3-0.2-4.9-0.6h-116.5c-1,1.9-2.1,3.9-3.1,5.8
			C1847,6.6,1846.8,7.4,1846.8,8.3z M2059.7,16.8c0.2-0.3,0.6-0.7,0.9-0.8c0.5-0.1,1.1,0,1.7,0.1c1.4,0.3,2.8,0.6,4.1,1
			c4.2,1.4,8.5,2.9,12.7,4.3c-3.6,1.3-7.1-0.1-10.5-0.7c-3-0.5-6.1-1.1-8.6-3.2C2059.8,17.4,2059.6,17,2059.7,16.8z M1970.3,23.6
			c2.3-1.7,4.6-3.3,6.9-4.9c0.7-0.5,1.6-0.3,2.2,0.4c0.7,0.9,0.6,2.5-0.5,2.9c-2.6,1.1-5.2,2.1-7.8,3.1c-0.4,0.1-0.9-0.1-1.4-0.2
			C1969.8,24.4,1969.9,23.8,1970.3,23.6z M1966.5,25c0.9-0.5,1.9-0.7,2.8-0.1c-1.5,2.6-2.7,2.9-5.4,1.5
			C1964.8,25.9,1965.7,25.4,1966.5,25z"/>
		<path class="st1" d="M2555.3,295.7c-0.8,2.1-1.3,4.4-1.8,6.6c-0.2,0.6-0.1,1.3-0.1,1.9c0.1,1.5,0.2,3,0.4,4.5
			c0.1,0.6,0.3,1.3-0.4,1.7c-0.5,0.3-0.9-0.3-1.2-0.6c-0.4-0.3-0.8-0.7-1.2-0.9c-0.5-0.3-1.1-0.8-1.7-0.8c-2.2-0.3-4.1-1.3-5.6-2.9
			c-0.3-0.4-0.8-0.6-1.3-0.8c-0.3-0.2-0.7-0.4-1.1-0.4c-1.3-0.1-2.5-0.4-3.8,0.1c-1,0.4-2,0.5-3,0.4c-0.8,0-1.5,0.3-2,0.9
			c-1.7,1.9-3.4,3.7-5.1,5.6c-1.1,1.3-1.6,2.9-1.9,4.5c-0.1,0.4,0,0.8,0.1,1.1c0.2,1.2,0.7,2.1,1.6,2.9c0.8,0.8,1.9,1.3,2.4,2.4
			c1.1,1.9,2.8,3.3,4.7,4.2c1.8,0.8,3.1,2.2,4.3,3.6c0.1,0.1,0.1,0.5,0,0.6c-0.2,0.1-0.5,0.2-0.7,0.2c-1.5-0.4-2.9-0.8-4.3-1.5
			c-0.7-0.3-1.4-0.6-2.2-0.7c-3.1-0.4-6,0.6-8.9,1.7c-1.5,0.6-2.1,2.1-3.1,3.2c-0.4,0.5-0.9,0.9-1.2,1.5c-0.5,1-1.7,1.5-1.9,2.8
			c-0.1,1.2,0.4,2.2,0.5,3.4c0.3,1.9,1.3,3.3,2.8,4.3c1.8,1.2,3.5,2.5,5.3,3.7c1.1,0.7,1.1,1.1,0.1,2c-0.8,0.8-1.7,1.5-2.5,2.3
			c-0.7,0.7-1.4,1.5-1.9,2.3c-0.6,0.9-0.6,2-0.2,2.9c0.5,1.3,1.2,2.5,2.5,3.3c0.9,0.5,1.6,1.2,2.4,1.9c1.6,1.6,3.5,2.5,5.6,3.1
			c1.3,0.4,2.7,0.7,4.1,1c1.4,0.3,2.7,0.5,4.1,0.3c2.7-0.4,5.3,0.1,8,0.3c0.2,0,0.4,0.3,0.5,0.5c0.1,0.2,0,0.5-0.1,0.7
			c-1.5,1.6-3,3.1-5.1,3.9c-1.2,0.5-2.1,1.4-2.8,2.5c-0.4,0.7-0.6,1.4-0.6,2.2c0,0.9,0.3,1.8,0.9,2.5c0.7,0.9,1.5,1.8,2.3,2.5
			c1.9,1.7,4.1,2.5,6.6,2.3c2.3-0.2,4.5-0.5,6.8-0.8c1.4-0.2,2.8-0.3,4.2-0.5v-92.3C2557.7,292.2,2556.1,293.6,2555.3,295.7z"/>
		<path class="st5" d="M213.8,1451.1c-1,2-1.5,4.1-1.5,6.3c0,2-0.1,3.9-0.1,5.9c0,1.3,0,2.6,0,3.9c0.1,1.7,1,2.8,2.5,3.5
			c2.5,1.2,5.1,1.3,7.7,0.6c6.2-1.5,12.1-3.8,17.4-7.4c6.4-4.2,12.7-8.5,19.1-12.7c3.9-2.6,7.1-5.7,9.8-9.5c0.4-0.6,0.8-1.2,1.2-1.7
			h-50.2C217.7,1443.6,215.7,1447.4,213.8,1451.1z"/>
		<path class="st5" d="M280,1453.1c-0.1,3-0.3,6.1,0.3,9.1c0.4,1.7,0.3,3.5,0.2,5.2c-0.1,2.2,0.2,4.3,0.9,6.4c0.7,2.3,1.3,4.6,1.6,7
			c0.6,4.4,2.3,8.4,4.3,12.3c2.2,4.3,5.6,7.8,8.8,11.3c2.5,2.8,6.2,3.4,9.7,2.2c5.3-1.7,9.8-4.6,12.3-10c1.8-3.8,3-7.7,4.3-11.6
			c1.5-4.4,2.4-8.8,2.3-13.5c-0.1-5.2,0.4-10.4,1.9-15.5c1.5-5.2,2.3-10.6,1.6-16.1h-47.9C280.3,1444.4,280.1,1448.7,280,1453.1z"/>
		<path class="st5" d="M327.9,1432.1c0.7-5.9,3.2-11.3,5.7-16.6c0.4-0.8,1.5-1.3,2.2-1c1.2,0.5,2.4,1.1,3.6,1.7
			c6.2,2.7,12.3,5.7,19.3,5.8c0.9,0,1.7,0.3,2.6,0.4c8.8,1.8,17.7,2.3,26.7,2.7c0.4,0,0.9,0,1.3-0.1c2.6-0.6,5.3-0.4,7.8,0
			c3.9,0.7,7.4-0.1,10.8-1.6c10.8-4.6,13.4-10.4,7.8-20.6c-2.6-4.7-5.9-8.6-10.5-11.5c-2.4-1.5-4.8-3-7.1-4.6
			c-1.1-0.7-2.3-1.3-3.3-2.2c-4.4-3.8-9.6-5.9-15.3-6.9c-2.6-0.5-5.1-1.2-7.6-1.8c-0.1,0-0.3-0.9-0.1-1.1c1.2-1.6,3.1-2.3,4.9-3.1
			c4-1.7,8.1-3.3,12-5.2c5.3-2.6,10.7-4.8,16.5-6.2c4.7-1.1,9.1-3,13.2-5.6c6.9-4.5,13.9-9.1,20.8-13.6c2.2-1.4,4.2-3.1,5.9-5.2
			c-0.1-0.6-0.1-1.3-0.3-1.9c-1-2.3-2.8-3.9-5.1-4.9c-1-0.4-2.2-0.5-3.1-1.1c-4-2.6-8.4-3.4-13-4c-1.5-0.2-3-0.7-4.5-0.9
			c-1.3-0.2-2.7-0.5-3.9-0.1c-3.4,0.9-6.9,0.8-10.4,0.9c-5.5,0.2-10.9,0.9-16.2,2.3c-2.7,0.7-5.5,1.3-8.3,1.9
			c-5.8,1.3-11.4,2.8-16.8,5.4c-1,0.5-2,0.9-3,1.3c-7.2,3.1-14.6,5.8-21.6,9.3c-1,0.5-2,0.9-3,1.3c-0.9,0.3-1.7,0.1-2.4-0.5
			c-1.5-1.3-2.9-2.6-3.1-4.8c-0.1-1.1-0.8-2-1.8-2.6c-3.9-2.4-7.8-4.9-12.7-4.4c-0.4,0-0.8-0.2-1.5-0.5c-0.4-0.8-1-1.7-1.3-2.8
			c-0.7-2.5-2.5-3.4-4.9-3.6c-1.7-0.1-3.6-0.4-5.2,0.3c-1.8,0.8-3.3,0.4-4.9-0.5c-2.3-1.2-4.7-0.9-6.8,0.6c-1.6,1.1-3.1,2.3-4.5,3.4
			c-0.8,0-1.2,0-1.6-0.1c-3.9-0.5-7.3,0.5-10.4,3c-1.7,1.4-3.5,2.6-5.3,3.8c-1.3,0.9-2.6,1.6-4.2,1.7c-2.9,0.2-5.5,1.4-8,2.7
			c-1.4,0.7-3,1.4-3.5,2.8c-0.7,2-1,4.2-0.1,6.4c0.3,0.6,0.6,1.2,0.8,1.8c0.5,1.7-0.1,3.7-1.4,4.7c-1.9,1.5-4,2.4-6.5,3
			c-3.4,0.8-6.8,1.5-10,3.2c-1.7,0.9-3.7,1.2-5.7,1.4c-4.4,0.5-8.6,1.6-12.8,2.7c-1,0.3-2.1,0.7-3.1,1.1c-3.5,1.3-6.8,2.9-10.4,4
			c-2.7,0.9-5.3,2-7.6,3.7c-3.2,2.3-6.6,4.3-10.1,6c-2.7,1.4-5.2,3.3-7,5.8c-2.1,2.9-4.5,5.3-7.4,7.3c-2,1.4-3.7,3-5.6,4.6
			c-4.3,3.5-5.9,6.3-5.6,8.8c0.4,2.8,3.5,5.1,8.4,7.4c9,4.2,18.9,5.8,28.7,4.3c15.3-2.4,28.3-10.6,43.3-14.7
			c0.6-0.2,1.7,0.2,1.7,0.6c0,0.4,0.1,1-0.1,1.3c-1.2,1.8-2.4,3.6-3.9,5.3c-4.9,5.6-9.5,11.4-13.8,17.5c-2.2,3.2-4.3,6.5-6.2,9.9
			H270c2.1-3,4.2-6,6.8-8.6c0.6-0.6,1.2-1.3,2.2-1.3c0.6,0,1.5,1.5,1.6,2.7c0,0.7,0.1,1.3,0.1,2c0,1.8-0.1,3.5-0.2,5.3h47.9
			c-0.1-0.9-0.3-1.8-0.4-2.7C327.5,1435.7,327.7,1433.8,327.9,1432.1z"/>
		<path class="st9" d="M69.7,1433.8c-0.6-0.4-0.6-1.4-0.1-1.8c0.5-0.5,1-1.1,1.6-1.4c4.9-2.1,9.9-4.2,14.9-6.2
			c2.4-1,4.8-1.7,7.2-2.7c2.6-1,5.2-2.2,7.8-3.2c6.8-2.6,13.3-5.6,19.1-10.1c3.5-2.7,7.6-4.7,10-8.6c0.3-0.6,1.1-0.9,1.7-1.3
			c1.4-1,2.2-2.4,2.7-4c0.9-3.2,1.8-6.3,2.6-9.4c0.3-1.1,0.3-2.3,0.3-3.5c0-0.6-0.4-1.4-0.9-1.9c-1.3-1.4-3-2.3-5-2.2
			c-2.3,0.1-4.7,0-7,0.4c-1.6,0.3-3,1.2-4.5,1.8c-0.4,0.2-0.9,0.3-1.3,0.4c-8.3,2.5-16.2,5.8-23.5,10.6c-3.9,2.6-8,4.7-12.5,6.2
			c-3.1,1-6.1,2.3-9.2,3.4c-1.5,0.6-3.1,1.2-4.6,1.5c-3.7,0.7-7.4,1.2-11.1,1.8c-0.2,0-0.5,0-0.7-0.1c-0.2-0.1-0.4-0.2-0.5-0.4
			c-0.4-0.4-0.6-0.9-0.2-1.2c2.2-2.1,4.6-3.9,6.6-6.2c2.7-3,6-5.2,9.3-7.3c1.4-0.9,2.7-1.8,4.1-2.7c3.6-2.2,7.1-4.6,10.7-6.6
			c2.1-1.1,3.9-2.5,5.3-4.4c1.4-1.8,2.8-3.8,4.5-5.4c2.5-2.2,4.9-4.3,6.4-7.3c0.4-0.8,1.3-1.3,2-1.9c1-0.8,1.5-1.9,1.6-3
			c0.4-3-0.7-5.5-3.2-7.3c-0.7-0.5-1.7-0.9-2.4-1.4c-1.8-1.3-3.9-1.7-6-1.1c-7.8,2.3-15.8,4.1-23.6,6.6c-7.2,2.3-13.3,6.7-19.6,10.7
			c-2.4,1.5-4.5,3.4-6.3,5.5c-2.3,2.6-4.7,5.2-7.1,7.7c-2,2-4.1,3.8-6.2,5.7c-0.4,0.4-0.9,0.3-1.2-0.1c-0.1-0.2-0.3-0.4-0.3-0.6
			c0.4-6.3,1.4-12.5,4-18.4c2-4.5,3.4-9.2,3.8-14.1c0.3-3,1-6,1.7-8.9c0.5-2.1,0.9-4.2,0.4-6.3c-1.1-4.9-0.7-9.8-0.5-14.6
			c0-0.7,0-1.4,0-2.1c-0.1-3.5-1.5-5.1-4.8-5.7c-0.5-0.1-0.9-0.2-1.4-0.3c-2.9-0.7-5.6-0.8-7,2.6c-0.2,0.6-0.9,1.1-1.5,1.5
			c-1.7,1.1-2.6,2.7-3.3,4.4c-1.1,2.3-2.1,4.7-3.2,7c-0.5,1.1-1.1,2.1-1.4,3.2c-0.8,3.4-2.3,6.6-3.8,9.8c-1,2.1-1.9,4.3-2.3,6.6
			c-0.7,4.6-2.1,9.1-2.8,13.7c-0.8,5.2-2.7,9.9-4.6,14.6c-0.4,1-1.6,1.3-2.3,0.6c-0.6-0.6-1.3-1.3-1.9-1.9v65.3h80.9
			c-3.2-1.1-6.2-2.4-8.8-4.7C71.3,1434.7,70.5,1434.3,69.7,1433.8z"/>
		<path class="st0" d="M2338.5,1363.2c-0.2-0.4-0.4-0.7-0.7-1.1c0.1,0.4,0.2,0.8,0.3,1.2C2338.2,1363.4,2338.3,1363.3,2338.5,1363.2
			z"/>
		<path class="st10" d="M2453.5,1306.5c1.4-0.1,2.6,0.8,3.3,2c0.1,0.1,0.2,0.3,0.2,0.4c0.1-0.1,0.2-0.3,0.3-0.4
			c0.7,1.2,1.2,2.3,2,3.2c3.6,4.2,8,7.4,13.2,9.2c2.8,1,5.7,1.7,8.6,2.6c2.2,0.7,3.2,0,3.3-2.3c0.1-2.5,0.3-5,0.5-7.5
			c0.4-4,0.5-8.1-0.5-12c-0.9-4-2.2-7.8-5.4-10.6c-0.2-0.2-0.3-0.4-0.4-0.6c-2.1-2.9-4.2-5.6-6.9-8c-1.5-1.3-2.9-2.9-4.6-4.6
			c0.8,0.1,1.1,0.2,1.4,0.3c2.3,0.5,4.6,1.3,6.9,1.5c6,0.6,11.6-1.2,16.9-3.7c1-0.5,2-0.9,2.9-1.5c3.5-2.4,5.8-5.9,7.8-9.6
			c1-2,1.2-4.1,0.3-6.2c-0.1-0.3-0.2-0.7-0.3-1.1c-0.5-2.3-0.9-4.7-1.4-7c-0.4-1.6-1.1-2.3-2.8-2.3c-1,0-2.2,0.1-3,0.7
			c-2,1.4-3.9,3-5.6,4.6c-2.7,2.5-5.5,4.6-9.2,5.4c-0.6,0.1-1.3,0.2-2,0.2c0-0.5,0-0.7,0-1c0.3-2.3,0.7-4.6,1-6.9
			c0.5-3.6,0.8-7.1-1-10.6c-0.4-0.8-0.3-1.9-0.3-2.9c0-0.8,0.2-1.7,0.4-2.5c1.1-5.4,0.7-10.7-0.8-16c-0.5-1.6-1.2-3.2-3-3.9
			c-1.7-0.7-3.5-1.2-5.1-1.9c-1.9-0.8-3.4-0.2-4.9,1.1c-1.5,1.4-3.1,2.7-4.7,4.1c-2,1.7-3.7,3.6-5.2,5.8c-2.5,3.9-5.3,7.7-7.9,11.6
			c-0.2,0.4-0.6,0.7-0.6,1.1c-0.3,1.7-0.6,3.5-0.9,5.2c-0.5,2.9-0.9,5.8-1.4,8.7c-0.1,0.4-0.3,0.8-0.5,1.1c-1.2,1.5-3.2,1.5-4.4-0.1
			c-1.1-1.4-2-2.9-3.1-4.3c-1.7-1.9-3.2-4-4.3-6.3c-1.2-2.3-2.8-4.5-2.7-7.2c0-0.2,0-0.4-0.1-0.5c-0.6-1.9-2.6-2.8-4.4-1.7
			c-0.7,0.4-1.3,1.1-1.9,1.7c-1.4,1.5-2.6,3.3-4.1,4.6c-2.6,2.3-3.5,5.1-3.1,8.4c0.3,2.2,0.6,4.5,0.7,6.7c0,2.3,0.7,4.4,1.6,6.5
			c1.3,3,3.3,5.5,5.5,7.9c0.6,0.6,1.1,1.4,1.7,2.2c-0.6,0.3-1,0.5-1.4,0.7c-1.6,0.9-3.2,1.8-4.7,2.8c-1.8,1.2-3.4,2.7-5.2,3.8
			c-2.5,1.5-4.6,3.4-6.4,5.7c-1.7,2.2-3.1,4.5-3.9,7.2c-0.9,3.2,0.4,5.4,3.4,6.5c0.8,0.3,1.7,0.4,2.5,0.4c3.8-0.2,7.3-1.1,10.8-2.7
			c0.3-0.1,0.7-0.2,1.3-0.3c-0.4,0.8-0.6,1.4-0.9,1.9c-2.9,5.5-3.9,11.4-3.7,17.5c0.1,1.9,0.5,3.6,1.2,5.3c1,2.4,1.9,3,4.6,3.1
			c3.1,0,5.9-1.2,8.6-2.4c5.1-2.2,9.6-5.2,14-8.6c0.3-0.2,0.7-0.4,1.3-0.7c0,0.2,0,0.3,0,0.5
			C2449.6,1310.1,2450.9,1306.6,2453.5,1306.5z"/>
		<path class="st10" d="M2343.8,1300.6c0.5,0.3,1,0.6,1.5,0.8c2,0.8,3.6,2,4.9,3.7c0.4,0.5,1.2,0.9,1.8,1c1.5,0.3,3,0,4.4-0.9
			c2-1.3,3.5-3.2,4.4-5.3c1.2-3,2.9-5.5,5.2-7.6c1.5-1.4,2.4-3,3-4.9c0.5-1.8,1.2-3.6,2-5.3c0.9-2.1,1.9-4.1,2.3-6.3
			c0.2-1,0.3-1.9,0.6-2.9c1.2-4,1.8-8.1,1.1-12.3c-0.2-1-0.2-2-0.3-3.4c1.3,1.2,2.5,2,3.4,3c1,1.2,2.3,2,3.7,2.5
			c0.9,0.3,1.8,0.6,2.5,1c2.5,1.4,4.9,2.8,5.9,5.7c0.3,0.9,1,1.7,1.6,2.4c1.5,1.7,3.6,2.5,5.7,3.1c0.6,0.2,1,0.2,1.3,0.8
			c0.7,1.7,3.4,1.2,4-0.2c0.2-0.6,0.4-1.1,0.6-1.7c0.9-3.8,1.2-7.7,1.1-11.6c-0.1-4.9-1.3-9.6-3.5-14.1c-1.6-3.3-4.1-5.7-6.7-8.1
			c-0.3-0.3-0.6-0.7-1.1-1.2c2.6-0.4,4.3-1.8,6-3.3c4.3-3.7,7.7-8,9.8-13.2c0.4-1.1,1-2.1,1.1-3.3c0.2-1.6,0.2-3.2-0.1-4.7
			c-0.2-1.4-1-1.8-2.4-1.3c-0.7,0.2-1.2,0.7-1.9,1.1c-0.7,0.4-1.4,1-2.1,0.9c-2.6-0.1-4.8,0.9-6.8,2.2c-2.6,1.7-5.4,2.8-8.3,3.7
			c-1.1,0.3-2.3,0.9-3.6,0.2c0.1-0.6,0.2-1.1,0.4-1.6c1.3-3.2,2.5-6.3,3.3-9.7c0.4-1.5,0.7-3.1,0.9-4.6c0.4-3-0.2-5.9-0.8-8.7
			c-1.1-5.5-2.4-11-3.6-16.5c-0.3-1.5-1.2-2.4-2.7-2.7c-0.8-0.2-1.6-0.3-2.3-0.3c-2.9,0.3-5.6,1.3-7.9,3.1c-6,4.7-11.1,10.3-14.8,17
			c-0.4,0.7-0.9,1.2-1.7,1.6c-2.7,1.2-4.4,3.3-5.6,6c-0.2,0.5-0.5,1.1-0.7,1.6c-3.7-1-5.4-3.7-6.6-7.1c-1.3,0.2-2.5,0.3-4.1,0.5
			c-1.3-1.4-2.8-3.1-4.3-4.7c-2.4-2.4-6.1-2.5-8.5-0.4c-5.4,4.7-7.4,10.7-6.5,17.8c0.5,4,2.6,7.3,5.1,10.4c1.5,1.8,3,3.5,4.5,5.3
			c0.9,1.2,1.6,2.5,2.5,3.9c-0.4,0.2-0.5,0.4-0.8,0.5c-2,0.3-4.1,0.7-6.1,0.9c-0.5,0.1-1-0.1-1.4-0.2c-2.2-0.7-4.5-1-6.8-0.5
			c-2.6,0.6-5.2,1.2-7.2,3.3c-0.5,0.5-0.9,1.2-1.5,1.6c-3.7,3-5.3,7.3-6.4,11.7c-0.7,2.7-1.5,5.4-2.9,7.8c-0.3,0.6-0.6,1.2-1,1.8
			c-0.6,0.9-0.6,1.8-0.3,2.8c0.6,2.8,2.5,4.5,4.8,5.8c3.3,1.8,6.5,1.6,9.5-0.4c2.5-1.7,4.9-3.6,7.6-5c0.7-0.4,1.4-0.6,2.3-0.5
			c1.8,0.4,3.7,0.6,5.6,1c0.1,1.8,0.5,3.8,0.4,5.7c-0.1,2,0.7,3.2,2.3,4.2c1.3,0.8,1.2,1.1,0.9,2.6c-0.2,1.3-0.6,2.7-0.4,4
			c0.8,3.4,1.9,6.7,3.9,9.6c0.2,0.2,0.3,0.5,0.4,0.8c0.3,0.6,0.7,1.1,1,1.7C2337.9,1294.7,2342.3,1296.9,2343.8,1300.6z"/>
		<path class="st3" d="M2403,1437.6c0-4.3-1-8.5-2.3-12.5c-2.3-7.4-4.3-14.9-5.7-22.5c-0.7-3.8-1.2-7.6-1.8-11.4
			c-0.5-3.1-1.1-6.3-1.5-9.4c-0.8-5.4-1.5-10.9-2.3-16.3c-1.1-6.9-1.6-13.8-1.6-20.8c0-1.2,0-2.4,0-3.7c0.1-3.8,0.2-7.7,0.2-11.5
			c0-0.5-0.3-1.1-0.7-1.4c-1.2-1-2.6-0.6-3.1,1c-1.1,3-2.1,6.1-3.2,9.2c-2,5.5-3.6,11-4.2,16.8c-0.6,5.5-2.1,10.9-3.3,16.3
			c-0.8,3.6-1.7,7.1-2.3,10.7c-0.6,3.4-0.8,6.8-1.2,10.2c-0.2,2.1-0.6,4.2-0.6,6.4c-0.2,6.3,0.6,12.6,2.7,18.6
			c0.4,1.3,0.8,2.6,1.1,4c-0.9-0.5-1.5-1.1-2.2-1.7c-2.1-1.9-3.5-4.3-4.4-7.1c-0.6-1.8-1.2-3.6-1.8-5.4c-1.4-3.9-2.8-7.8-4.1-11.7
			c-0.9-2.7-2.1-5.3-3.8-7.7c-0.5-0.7-0.9-1.5-1.2-2.3c-1.4-4.2-2.8-8.3-4.1-12.5c-0.8-2.6-1.5-5.3-2.3-7.9c-0.9-2.9-2-5.6-2.7-8.5
			c-1.5-6.3-2.8-12.7-4-19.1c-1.1-6-1.5-12-1.4-18.1c0.1-5.3,0.5-10.6,0.8-15.9c0.1-1.1,0.3-2.2,0.5-3.4c0.4,0.2,0.8,0.5,1.1,0.7
			c-1.5-3.7-5.9-5.9-8.2-9.4c-0.4-0.5-0.7-1.1-1-1.7c0.1,0.3,0.2,0.6,0.2,0.9c-0.2,2.4-0.6,4.8-0.8,7.3c-0.2,5.2-0.4,10.4-0.4,15.6
			c-0.1,5.2,0.3,10.4,0,15.6c-0.3,5.5,0.1,10.9,0.5,16.3c0.4,4.6,1.6,9.1,2.9,13.6c0.3,1.1,0.5,2.2,0.7,3.3c0,0,0,0,0.1,0.1
			c0,0.1,0,0.1,0,0.2c0.2,0.4,0.4,0.7,0.7,1.1c-0.1,0.1-0.2,0.1-0.4,0.2c-0.1-0.4-0.2-0.8-0.3-1.2c0,0,0-0.1-0.1-0.1
			c0,0,0-0.1,0-0.1c-0.3-0.4-0.7-0.8-1-1.3c-1.6-3.4-3.3-6.7-4.7-10.1c-3.4-8.4-7.4-16.5-12.3-24.1c-2.7-4.3-6-8.1-9.7-11.6
			c-3.7-3.4-7.2-6.9-10.7-10.5c-5-5.1-9.7-10.5-14.9-15.4c-2-1.9-3.9-4.1-5.6-6.3c-1.2-1.6-2.1-3.6-3.1-5.4
			c-1.3-2.2-2.2-2.3-4.2-0.6c-0.1,0.1-0.1,0.2-0.1,0.4c0.1,0.1,0.1,0.3,0.2,0.5c2.7,3,3.5,6.8,4.1,10.6c0.6,3.2,1.1,6.5,2.4,9.6
			c2.1,5,3.9,10.1,5.1,15.4c0.8,3.6,1.6,7.2,2.4,10.7c0.6,2.5,1.1,5,1.7,7.5c0.3,1.1,1.1,2,1.4,3.1c0.7,2,1,4.1,1.8,6.1
			c0.9,2.6,2,5.1,3.1,7.6c1.6,3.8,3.9,7.2,6.8,10.1c2.5,2.6,5.1,5.2,7.8,7.6c2.3,2,4.7,3.8,7.1,5.7c3.3,2.6,6.6,5,9.8,7.7
			c2.2,1.9,4.2,4,6.4,6c3.9,3.7,7.9,7.3,11.8,10.9c0.9,0.9,1.9,1.7,2.7,2.7c1.7,2,3.3,4.1,5.2,5.9c2.5,2.5,4.2,5.3,5.1,8.7
			c1.1,3.8,2.8,7.4,4.9,10.8c2.1,3.4,4.4,6.8,6.6,10.1c1.3,1.9,2.6,3.8,3.9,5.6h31.1C2403,1439.2,2403,1438.4,2403,1437.6z"/>
		<path class="st3" d="M2489,1403.4c2.3-3.2,4.7-6.2,7-9.4c2-2.8,4-5.5,5.9-8.4c2.3-3.4,4.5-7,6.7-10.5c1.7-2.6,3.3-5.2,4.8-8
			c3.1-5.7,5.5-11.7,7.7-17.8c1.6-4.3,3.1-8.6,4.6-12.9c1.9-5.7,3.6-11.4,5.4-17.1c1.3-4.1,3-8,5.3-11.6c0.7-1.2,0.5-2.3-0.7-2.9
			c-1.2-0.6-2.6-0.2-3.4,0.8c-0.4,0.6-0.9,1.1-1.4,1.7c-1.7,1.9-3.5,3.6-5,5.6c-3.7,4.9-7.1,9.9-10.8,14.8c-2.4,3.2-5,6.3-7.5,9.4
			c-3.6,4.5-7.3,9-11,13.5c-2.7,3.3-5.4,6.6-8,10c-1.6,2.1-3.2,4.3-4.7,6.5c-2.3,3.5-4.6,6.9-7.3,10.1c-4.4,5.2-8.9,10.4-13.1,15.8
			c-5.8,7.5-11.8,14.8-18.3,21.7c-2.1,2.2-3.9,4.7-5.8,7.1c-3.1,3.9-6,7.9-9.1,11.7c-1.7,2.2-3.5,4.3-5.2,6.5h32.4
			c5.2-5.3,10.2-10.7,15.1-16.3C2478.6,1417.2,2483.9,1410.4,2489,1403.4z"/>
		<path class="st3" d="M2419.5,1435.8c2.3-6.2,4.4-12.5,6.7-18.8c1.4-3.7,3-7.3,4.8-10.9c2.2-4.6,4.5-9.1,6.3-13.8
			c3.2-8.2,6.6-16.4,9.8-24.6c1.2-3.1,2.3-6.3,3.3-9.5c1-3.2,1.9-6.4,2.5-9.7c0.8-4.4,1.4-8.8,1.8-13.2c0.4-5.4,0.1-10.7-0.1-16.1
			c-0.1-2.3,0.4-4.7,1-7c0.3-1.1,0.8-2.2,1.6-3.2c-0.1-0.1-0.1-0.3-0.2-0.4c-0.7-1.1-2-2.1-3.3-2c-2.6,0.1-3.9,3.6-6.4,4.5
			c-0.1,0.9-0.1,1.6-0.2,2.3c-0.3,2.7-0.4,5.4,0,8.2c0.4,2.6,0.7,5.4,0.6,8c-0.4,6.2-1.1,12.3-1.5,18.4c-0.2,3.8-1,7.5-1.9,11.2
			c-1,4.1-2.5,8.1-3.5,12.1c-1.6,6.4-4.5,12.4-6.9,18.5c-1,2.6-2.2,5.2-3.1,7.8c-1.6,4.8-3.4,9.5-6.4,13.7
			c-2.4,3.3-4.5,6.8-6.7,10.3c-1.4,2.2-2.7,4.5-4,6.8c-1.8,3.2-3.1,6.6-4.4,10c-0.2,0.5-0.4,1.1-0.6,1.6h9.2
			C2418.5,1438.6,2419,1437.2,2419.5,1435.8z"/>
		<path class="st10" d="M2337.8,1362.2c0-0.1,0-0.1,0-0.2c0,0,0,0-0.1-0.1c0,0,0,0.1,0,0.1
			C2337.8,1362.1,2337.8,1362.1,2337.8,1362.2z"/>
	</g>
	<path class="st2" d="M364.8,270.4c-0.4,1.2-0.8,2.2-1,3.3c-0.2,0.7-0.2,1.5-0.3,2.2c-0.1,0.7-0.1,1.4-0.6,2c0.3,0.6,0.3,1.3,0.3,2
		c-0.1,0.9-0.2,1.9-0.3,2.8c0,0.2,0,0.4-0.1,0.5c-0.6,1.4-0.5,2.9-0.6,4.3c0,0.1,0.1,0.3,0,0.4c-0.3,1.1-0.5,2.2-1,3.2
		c-0.9,1.7-1.8,3.4-2.7,5.2c-1,2.1-2.4,4-4.1,5.6c-1,0.9-1.8,1.9-2.4,3c-0.5,0.9-1,1.7-1.5,2.6c-0.9,1.5-1.9,2.9-3.1,4.2
		c-0.3,0.4-0.5,0.8-0.4,1.3c0.1,0.4,0.1,0.9,0.2,1.3c0.1,0.2,0.1,0.5,0.3,0.7c0.4,0.6,0.8,1.1,1.2,1.7c0.5,0.7,1.2,1.2,2,1.6
		c1.8,0.8,3.7,1.6,5.5,2.4c1,0.4,1.8,1,2.6,1.6c2.2,1.8,4.5,3.4,6.7,5.2c1.2,1,2.4,2,3.5,3.1c0.2,0.2,0.3,0.4,0.4,0.6
		c0.3,0.6,0.7,1.1,0.9,1.7c0.3,0.9,1,1.6,1.6,2.3c0.8,0.9,1.6,1.7,2.4,2.6c0.1,0.1,0.1,0.1,0.2,0.2c0.8,0.5,1.2,1.3,1.7,2.1
		c0.5,0.9,1,1.8,1.4,2.8c0.5,1.1,0.6,2.3,0.6,3.6c0,0.8,0,1.6,0,2.5c0,0.7-0.1,1.4-0.3,2c-0.4,1.2-0.8,2.4-1,3.6
		c-0.4,2.2-1.7,3.9-3.4,5.1c-0.9,0.6-1.8,1.2-2.7,1.8c-0.7,0.4-1.4,0.8-2.1,0.9c-0.5,0-0.8,0.3-1.1,0.6c-0.5,0.6-1.2,1.1-1.7,1.7
		c-1,1.1-2.2,1.8-3.4,2.6c-1,0.6-1.9,1.3-2.9,1.9c-0.9,0.6-1.8,1.2-2.7,1.9c-1.3,1-2.7,1.8-4.2,2.5c-1.6,0.7-3.2,1.6-4.6,2.7
		c-0.3,0.3-0.7,0.5-1.1,0.7c-1.1,0.5-2.1,1.1-3,1.7c-1.7,1.3-3.7,1.8-5.8,1.8c-1.1,0-2.2,0-3.4,0.2c-0.9,0.2-1.8,0-2.5-0.4
		c-2.1-1.2-4.3-2.3-6.1-4c-1-0.9-1.9-2-2.9-3c-0.7-0.7-1.4-1.4-2.1-2.1c-0.7-0.7-1.5-1.3-2.4-2.2c0.5,1.1,1,2,1.7,2.6
		c0.4,0.3,0.6,0.7,0.8,1.1c0.3,0.7,0.7,1.3,1.1,1.9c0.1,0.2,0.3,0.4,0.5,0.6c0.5,0.4,0.8,0.7,0.7,1.4c0,0.2,0.1,0.5,0.2,0.7
		c0.5,0.9,0.7,1.9,0.8,2.9c0.1,0.8,0.3,1.6,0.4,2.4c0,0,0,0.1,0,0.1c-0.1,1.8-0.2,3.6-1.3,5.2c-0.3,0.4-0.6,0.9-0.9,1.3
		c-0.3,0.4-0.6,0.8-1.1,1c-0.4,0.1-0.7,0.7-1.1,1c-0.7,0.6-1.6,1.1-2.3,1.7c-1.2,1-2.6,1.7-4,2.4c-2,1-3.9,2-5.8,3.2
		c-2.3,1.4-4.5,2.9-7,4c-1.9,0.9-3.8,1.3-5.9,1.5c-0.4,0-0.8,0-1.2-0.1c-1.3-0.2-2.6-0.3-3.9-0.9c-1-0.4-1.9-0.8-2.9-1.2
		c-0.9-0.3-1.6-0.9-2.3-1.4c-0.7-0.6-1.4-1-2.2-1.4c-1.3-0.6-2.4-1.5-3.5-2.5c-0.7-0.7-1.5-1.3-2.2-2c-1.2-1.3-2.8-2.3-3.8-3.8
		c-0.5-0.7-1.1-1.2-1.7-1.8c-1.1-1-2.2-2.1-3-3.4c-0.4-0.5-0.9-1-1.2-1.5c-0.5-0.8-1.3-1.5-1.6-2.5c-0.2-0.6-0.6-1.2-1-1.7
		c-0.9-1.1-1.6-2.4-2.3-3.6c-0.3-0.5-0.4-1-0.6-1.6c-0.6-1.7-1.2-3.4-1.8-5.1c-0.4-1.2-0.5-2.3-0.3-3.6c0.1-0.7,0-1.5-0.1-2.2
		c-0.2-1.4-0.4-2.8-0.6-4.2c-0.1-0.8-0.1-1.6,0.3-2.4c0.3-0.6,0.3-1.2,0.2-1.8c-0.1-0.5-0.1-1,0-1.5c0.2-1.4,0.5-2.8,0.8-4.2
		c0-0.2,0-0.4,0-0.7c-0.4,0.1-0.6,0.2-0.9,0.3c-0.8,0.5-1.6,1-2.4,1.5c-1.1,0.6-2.2,1.2-3.3,1.8c-0.4,0.2-0.8,0.4-1.1,0.6
		c-2.2,1.4-4.6,2.3-7.1,2.6c-0.7,0.1-1.5,0.2-2.2,0.4c-2,0.5-3.9,0.2-5.7-0.4c-2.2-0.7-4.3-1.7-6.3-3.1c-2-1.4-4.1-2.6-6.3-3.7
		c-1.5-0.8-3.1-1.6-4.4-2.7c-0.5-0.4-1.1-0.8-1.6-1.1c-2.9-2-5.6-4.4-7.9-7.1c-0.4-0.5-0.9-1-1.4-1.5c-1.2-1.2-2.2-2.5-3-3.9
		c-0.6-1-1.3-2.1-1.9-3.1c-0.4-0.6-0.8-1.3-1.1-1.9c-1-2-2.2-3.9-3.7-5.6c-0.6-0.6-1.2-1.3-1.6-2c-0.5-0.7-0.3-1.6-0.4-2.4
		c-0.1-0.8-0.2-1.5-0.3-2.3c-0.1-1.6-0.6-3.1-1-4.7c-0.3-1-0.4-2.1-0.2-3.2c0.2-1,0.4-2,0.5-3.1c0.1-0.8,0.2-1.6,0.3-2.4
		c0.1-2,0.5-3.9,1-5.9c0.1-0.6,0.5-1.2,0.8-1.8c0.7-1.5,1.5-3,2.1-4.6c0.2-0.6,0.5-1.1,0.7-1.6c0.1-0.2,0.3-0.4,0.5-0.6
		c0.3-0.2,0.6-0.4,0.9-0.5c0.9-0.5,1.5-1.1,2-2c0.1-0.2,0.2-0.4,0.3-0.6c0.8-1.4,2.1-2.3,3.7-2.6c0.3-0.1,0.6-0.1,0.9-0.2
		c0.7-0.5,1.5-0.4,2.2-0.4c0.5,0,1,0,1.4,0c1.4,0.1,2.7-0.2,3.9-0.7c0.2-0.1,0.3-0.1,0.5-0.2c0.9-0.8,2-0.9,3.2-1
		c1.5-0.2,3.1-0.3,4.7-0.3c1.4,0,2.8,0.2,4.3,0.3c1.2,0.1,2.3,0.3,3.4,0.6c0.2,0.1,0.5,0.1,0.8,0.1c1,0,2,0.1,3,0.2
		c1.2,0.2,2.5,0.2,3.7,0.3c2.1,0.1,4.1,0.1,6.2-0.1c0.6-0.1,1.1,0.1,1.7,0c1.1-0.1,2.2-0.2,3.3-0.4c1-0.1,2-0.2,3,0.4
		c0.3,0.2,0.7,0.3,1.1,0.3c1,0,1.9,0.2,2.8,0.5c3.1,1.2,6.3,1.8,9.6,1.7c1.7,0,3.3,0.2,4.9,0.4c0.2,0,0.4,0.1,0.6,0.1
		c0.3,0,0.5-0.1,0.6-0.4c0.1-0.3,0.2-0.6,0.2-0.9c0.3-1.9,1-3.8,1.6-5.6c0.3-0.9,0.6-1.7,1-2.5c0.3-0.7,0.8-1.3,1.6-1.6
		c0.4-0.2,0.8-0.5,1.2-0.8c0.7-0.5,1.5-0.7,2.3-0.6c1.7,0.1,3.2,0.6,4.6,1.6c0.8,0.5,1.5,1,2.3,1.4c0.1,0.1,0.2,0.1,0.4,0.1
		c0.8-0.5,1.1-1.4,1.6-2.2c0.7-1.3,1.4-2.7,2.1-4c0.8-1.3,1.6-2.6,2.4-3.8c1.8-2.5,3.6-5.1,5.5-7.6c0.9-1.2,1.8-2.3,2.7-3.5
		c0.6-0.8,1.1-1.6,1.8-2.4c1-1.2,2.1-2.3,3.1-3.5c1.1-1.2,2.3-2.4,3.4-3.6c1.3-1.4,2.8-2.6,4.4-3.6c1.8-1.1,3.6-2.1,5.4-3.1
		c0.9-0.5,1.8-0.8,2.7-1.2c4.1-1.7,8.3-2.8,12.6-3.4c1.6-0.2,3.3-0.4,4.9-0.7c2.3-0.4,4.5-0.1,6.6,0.7c0.4,0.1,0.8,0.4,1.1,0.6
		c0.3,0.2,1.1,0.3,1.8,0.7c1.6,1.1,1.6,1.4,2.7,2.3c0.8,0.7,1.6,1.3,2.3,2.1c0.6,0.7,1.1,1.4,1.4,2.1c0.6,1.2,1.1,2.5,1.5,3.9
		c0,0.2,0.1,0.3,0.1,0.5c0.4,1.1,1,2.1,0.8,3.4c0.4,0.8,0.5,1.7,0.7,2.6c0.2,1.1,0.4,2.2,0.7,3.3c0.4,1.5,0.7,2.9,1.3,4.3
		c0,0.7,0.5,1.3,0.7,1.9c0.3,0.7,0.5,1.5,0.6,2.2c0.1,0.5,0.1,0.8-0.3,1.2c-0.1,0.1-0.2,0.4-0.2,0.6c0.1,0.6-0.1,1.2-0.4,1.7
		c-0.1,0.3-0.2,0.8-0.2,1.1c0,0.9,0,1.8,0.1,2.7C364.6,270.1,364.7,270.3,364.8,270.4z"/>
	<path class="st9" d="M208.9,179.5c0.2-0.1,0.4-0.1,0.6-0.2c0.8-0.4,1.7-0.5,2.7-0.5c1.4,0,2.9,0.1,4.2,0.6c0.6,0.2,1.2,0.5,1.8,0.8
		c0.3,0.1,0.7,0.3,1,0.4c0.3,0.1,0.5,0,0.6-0.3c0.1-0.2,0.2-0.3,0.2-0.5c0.1-0.9,0.1-1.7-0.6-2.4c-0.4-0.5-0.8-1-1.2-1.5
		c-0.3-0.5-0.6-1-0.9-1.5c-0.2-0.3-0.4-0.7-0.7-1c-0.8-0.9-1.1-1.8-0.8-3c-0.3-0.3-0.5-0.6-0.8-0.9c-0.3-0.4-0.2-0.7,0.1-1
		c0.3-0.3,0.6-0.5,0.9-0.8c0.4-0.3,0.8-0.5,1.3-0.5c1-0.1,2.1-0.1,3.1,0.2c0.6,0.2,1.3,0.3,2,0.3c0.4,0.1,0.8,0.2,1.2,0.3
		c0.7,0.4,1.5,0.6,2.2,1.1c0.4,0.3,0.9,0.7,1.2,1.1c0.8,1,1.5,2.1,2.2,3.1c0.4,0.5,0.7,1.1,1.1,1.6c0.1,0,0.2-0.1,0.2-0.3
		c-0.1-1.4-0.2-2.8-0.3-4.2c0-0.3-0.1-0.6-0.4-0.9c-0.6-0.7-0.8-1.5-0.3-2.2c0.5-0.7,0.7-1.3,1.2-2c0.2-0.4,0.5-0.7,0.8-1
		c1.1-1.2,2.6-1.6,4.2-1.2c1,0.3,1.9,0.8,2.8,1.2c0.1,0,0.2,0.1,0.3,0.2c0.7,0.8,1.5,1.6,1.5,2.7c0.1,0.8,0.3,1.5,0.6,2.2
		c0.1,0.3,0.3,0.5,0.4,0.8c0.3,0.6,0.6,1.2,1,1.8c0.1,0.2,0.2,0.4,0.3,0.6c0.2,0.4,0.4,0.9,0.4,1.4c0,0.4,0.1,0.8,0.2,1.2
		c0.2,0.1,0.3,0,0.3-0.1c0.4-0.7,0.9-1.4,1.1-2.3c0.1-0.2,0.2-0.4,0.3-0.6c0.3-0.4,0.4-0.7,0.3-1.2c0-0.6,0-0.6,0.7-0.6
		c0.1,0,0.1,0,0.2,0c0,0,0.1,0,0.1,0c0.3-0.3,0.8-0.5,1-1c0.2-0.3,0.5-0.5,0.9-0.4c0.4,0.1,0.8,0.1,1.3,0.1c0.2,0,0.5,0,0.7,0.1
		c0.5,0.1,0.8,0.4,0.7,1c0,0.3,0.1,0.7,0.3,0.9c0.1,0.2,0.3,0.4,0.4,0.6c0.3,0.5,0.4,1.1,0.4,1.7c-0.1,1.2-0.2,2.5-0.2,3.7
		c0,0.4-0.1,0.8-0.3,1.2c-0.2,0.6-0.5,1.1-0.7,1.6c0.2,0.2,0.4,0.1,0.5,0c0.9-0.6,1.9-1,2.9-1.3c0.6-0.2,1.2-0.4,1.8-0.5
		c0.9-0.2,1.8-0.1,2.6,0.2c0.3,0.1,0.6,0.2,1,0.3c1,0.3,1.4,1,1.5,2c0.1,1.1,0.1,2.3-0.2,3.4c-0.3,1.1-0.7,2-1.6,2.7
		c-0.7,0.5-1.4,1-2.2,1.5c-0.4,0.3-0.9,0.4-1.3,0.6c-0.7,0.3-1.3,0.8-1.9,1.3c-0.5,0.5-1,1-1.5,1.5c-0.1,0.1-0.2,0.3-0.3,0.4
		c0.1,0.1,0.1,0.2,0.2,0.2c1.6,0.6,3,1.7,4.4,2.7c0.3,0.2,0.5,0.3,0.8,0.4c0.7,0.2,1.2,0.5,1.7,1c0.3,0.3,0.6,0.6,0.8,0.9
		c0.3,0.3,0.4,0.7,0.1,1.1c-0.1,0.2-0.2,0.4-0.3,0.7c-0.1,0.3-0.2,0.5-0.4,0.7c-0.4,0.3-0.7,0.8-0.8,1.3c-0.1,0.3-0.3,0.5-0.6,0.5
		c-0.8,0.2-1.5,0.5-2.3,0.4c-0.6-0.1-1.3,0-1.9-0.3c-0.2-0.1-0.4,0-0.5-0.1c0,0.1,0,0.2,0,0.2c0.3,0.4,0.7,0.7,0.8,1.2
		c0,0.1,0.1,0.2,0.2,0.3c0.9,0.7,1.2,1.8,1.6,2.7c0.2,0.6-0.3,1.1-0.3,1.6c-0.1,0.4-0.2,0.7-0.5,1c-0.5,0.6-1.2,0.9-2,1.1
		c-0.7,0.1-1.4,0.2-2.1,0.2c-0.3,0-0.6-0.1-0.9-0.2c-0.6-0.4-1.2-0.7-1.6-1.3c-0.7-1-1.8-1.5-2.9-1.9c-0.3-0.1-0.5-0.2-0.8-0.2
		c-0.2,0-0.3,0-0.5,0c0,0.1,0,0.1,0,0.1c0.4,0.9,0.8,1.9,0.9,2.9c0,0.2,0.1,0.3,0.2,0.5c0.1,0.1,0.2,0.3,0.2,0.4
		c0.1,0.4,0.1,0.7,0.1,1.1c0,0.3,0.3,0.7,0.3,1c0.1,0.8,0,1.6,0,2.4c0,0.3-0.1,0.6-0.2,0.9c-0.1,0.5-0.3,0.9-0.5,1.4
		c-0.3,0.7-0.8,1.2-1.5,1.4c-0.2,0.1-0.4,0.1-0.6,0.2c-1,0.2-1.9,0.2-2.7-0.6c-0.9-0.9-1.9-1.7-2.6-2.8c-0.2-0.3-0.4-0.7-0.6-1
		c-0.2-0.4-0.5-0.7-0.7-1.1c-0.3-0.5-0.5-0.9-0.7-1.4c-0.2-0.3-0.4-0.6-0.7-0.7c-0.2,0.1-0.2,0.3-0.2,0.5c0,0.2,0,0.4,0,0.6
		c0.1,1.2-0.3,2.3-0.5,3.5c0,0.1-0.1,0.3-0.2,0.4c-0.2,0.4-0.4,0.8-0.5,1.2c-0.1,0.5-0.4,0.9-0.7,1.3c-0.3,0.4-0.7,0.8-1.4,0.8
		c-0.4,0-0.8,0.2-1.2,0.3c-0.7,0.2-1.3,0.1-1.9-0.1c-0.2-0.1-0.4-0.2-0.6-0.2c-0.9-0.4-1.4-1-1.7-1.9c-0.1-0.4-0.3-0.8-0.4-1.2
		c-0.3-0.8-0.5-1.6-0.5-2.4c0-0.7-0.1-1.3-0.3-2c-0.2-0.7-0.2-1.4-0.3-2.2c0-0.1,0-0.2-0.1-0.4c-0.2,0.1-0.3,0.2-0.4,0.3
		c-1.1,1.1-2.2,2.2-3,3.5c-0.7,1.1-1.3,1.4-2.6,1.8c-0.6,0.2-1.2,0.4-1.8,0.5c-0.7,0.2-1.4,0.3-2.1,0.4c-1.4,0.1-2.5-0.4-3.1-1.6
		c-0.3-0.7-0.7-1.3-0.9-2c-0.2-0.8-0.2-1.5,0.1-2.2c0.6-1.3,1.1-2.7,1.8-4c0.1-0.1,0.1-0.2,0.1-0.3c0.1-0.4,0.3-0.7,0.6-0.9
		c0.2-0.1,0.4-0.4,0.6-0.5c0.2-0.1,0.4-0.3,0.6-0.4c0.2-0.2,0.5-0.3,0.7-0.5c0.7-0.7,1.3-1.5,1.9-2.2c0.1-0.1,0.1-0.2,0.1-0.3
		c-0.2,0-0.3-0.1-0.4-0.1c-0.6,0-1.2,0-1.7,0.1c-0.1,0-0.2,0.1-0.3,0.1c-1.1,0.5-2.2,0.5-3.4,0.8c-0.1,0-0.1,0-0.2,0
		c-0.8-0.2-1.5,0-2.3,0.1c-0.4,0.1-0.8-0.1-1.2-0.3c-0.2-0.1-0.4-0.2-0.7-0.3c-1-0.3-1.9-0.8-2.7-1.4c-0.6-0.4-0.8-1.1-1.2-1.7
		c-0.2-0.4-0.2-0.8-0.2-1.2c0-0.2,0-0.5,0-0.7c0-0.4,0.1-0.8,0.3-1.2c0.3-0.7,0.8-1.1,1.4-1.5c1.5-1.2,3.4-1.7,5.1-2.5
		c0.4-0.2,0.8-0.1,1.3-0.2c0.1,0,0.2,0,0.2,0.1c0.2,0.3,0.6,0.2,0.9,0.2c0.5-0.1,1-0.3,1.6-0.5c-0.2-0.2-0.3-0.3-0.5-0.4
		c-0.7-0.6-1.4-1.2-2.1-1.7c-0.3-0.2-0.6-0.4-0.9-0.5c-0.8-0.3-1.5-0.5-2.4-0.5c-0.6,0-1.2-0.1-1.8-0.1c-0.6,0-1.3-0.1-1.9-0.4
		c-0.4-0.2-0.8-0.4-1.2-0.4c-1.2-0.2-1.6-1.1-1.8-2.1c0-0.4,0-0.8,0.1-1.2c0.1-0.4,0.3-0.7,0.6-0.9c0.6-0.4,1.2-0.8,1.8-1.2
		c0.5-0.3,1-0.7,1.5-1c0.3-0.2,0.6-0.4,0.9-0.6c0.5-0.3,1.1-0.4,1.7-0.3C208.5,179.2,208.7,179.3,208.9,179.5z"/>
	<path class="st4" d="M236.7,73.8c0.4-0.3,0.7-0.5,1.1-0.7c0.7-0.3,1.1-0.9,1.3-1.7c0.2-0.7,0.4-1.3,1-1.7c0.8-0.7,1.7-1.2,2.9-0.9
		c0.7,0.1,1.3,0,1.9-0.2c0.6-0.2,1.3-0.5,1.9-0.6c0.5-0.1,1-0.3,1.5-0.3c1.1-0.2,2.1,0,3,0.6c0.8,0.6,1.7,0.8,2.7,0.7
		c1,0,1.9,0,2.9,0.1c0.6,0.1,1.2,0.2,1.7,0.4c0.9,0.3,1.6,0.8,2.1,1.5c0.3,0.4,0.6,0.9,0.9,1.3c0.3,0.4,0.6,0.6,1,0.8
		c0.8,0.4,1.6,0.8,2.4,1.1c1.3,0.7,2.2,1.8,2.5,3.2c0.3,1.2,0.8,2.4,0.9,3.6c0.1,0.8,0.5,1.5,1,2.2c0.4,0.6,0.8,1.2,1.2,1.9
		c0.5,0.8,0.9,1.5,1.1,2.4c0.2,0.6,0.4,1.3,0.8,1.8c0.5,0.9,0.7,1.8,0.8,2.7c0.2,1.3,0.4,2.6,0.7,3.9c0.3,1.6,0.3,3.2,0.1,4.9
		c-0.1,0.7-0.3,1.3-0.6,1.9c-0.6,1.3-1.1,2.6-1.2,4c0,0.7-0.4,1.4-0.7,2.1c-0.5,1-0.9,2-1,3.2c-0.1,0.9-0.5,1.7-0.9,2.5
		c-0.6,1.1-1.4,1.9-2.7,2.2c-1.1,0.2-1.9,0.8-2.5,1.7c-0.1,0.2-0.3,0.3-0.4,0.5c-0.6,0.9-1.4,1.5-2.6,1.5c-0.6,0-1.2,0.3-1.7,0.6
		c-0.8,0.5-1.6,0.7-2.5,0.7c-0.7,0-1.3,0.1-1.9,0.5c-0.4,0.3-0.9,0.5-1.4,0.5c-2.4,0.3-4.7,0.7-7.1-0.1c-0.4-0.1-0.9-0.1-1.3-0.2
		c-0.5-0.1-1-0.2-1.5-0.3c-0.1,0-0.1,0-0.2-0.1c-0.9-0.2-1.9-0.4-2.8-0.7c-0.9-0.3-1.7-0.8-2.6-1.2c-0.4-0.2-0.8-0.3-1.3-0.4
		c-1.3-0.4-2.5-1-3.3-2.1c-0.6-0.7-1.3-1.2-2.1-1.6c-0.6-0.3-1.2-0.5-1.8-0.8c-3.2-1.5-5.2-4.1-6.4-7.3c-0.3-0.9-0.6-1.8-1.2-2.6
		c-0.7-0.8-1-1.8-1-2.9c-0.1-0.8-0.3-1.6-0.6-2.4c-1-2.6-1.1-5.2-0.5-7.9c0.2-1,0.4-2,0.7-3c0.3-1.2,0.7-2.4,1.2-3.6
		c0.3-0.6,0.7-1.1,1.2-1.6c0.9-0.7,1.8-1.5,2.9-2c0.3-0.1,0.4-0.4,0.4-0.7c0-0.6,0-1.2,0-1.8c0-1.3,0.4-2.5,1.1-3.5
		c0.7-1.1,1.7-1.8,3.1-1.9C232.9,74,234.7,73.6,236.7,73.8z"/>
</g>
</svg>
