<?xml version="1.0" encoding="UTF-8"?>
<svg id="Layer_1" data-name="Layer 1" xmlns="http://www.w3.org/2000/svg" viewBox="0 0 257.74 257.07">
  <defs>
    <style>
      .cls-1 {
        fill: #f04c24;
      }

      .cls-2 {
        fill: #6c7030;
      }

      .cls-3 {
        fill: #bbc6bb;
      }
    </style>
  </defs>
  <path class="cls-3" d="M32.39,.87c2.76,0,4.83,.69,6.2,2.76,.69,.69,.69,1.38,1.38,2.07,.69,2.07,.69,4.83,0,6.89,0,.69-.69,1.38-.69,2.76,0,.69-.69,1.38-.69,2.07,0,1.38-.69,2.07-.69,3.44-.69,1.38-.69,2.76-.69,4.14v2.07c0,2.07-.69,3.44,0,5.51v2.07c.69,2.07,.69,4.14,1.38,6.2v.69c1.38,2.76,2.07,5.51,3.44,8.27,1.38,2.07,2.07,4.83,3.44,6.89,1.38,2.07,2.07,3.44,3.44,4.83,.69,.69,.69,1.38,1.38,1.38,1.38,1.38,2.07,2.76,2.76,4.14v.69h-.69c-1.38-.69-2.07-1.38-3.44-2.07-1.38-.69-2.07-1.38-3.44-2.07-.69-.69-1.38-.69-2.07-1.38-1.38-.69-2.07-1.38-2.76-2.07s-2.07-1.38-2.76-2.07l-.69-.69-.69-.69c-1.38-1.38-2.76-2.76-4.14-4.14-2.07-2.07-4.14-4.14-5.51-6.89-.69-.69-1.38-2.07-2.07-3.44-.69-2.07-2.07-3.44-2.76-5.51-.69-.69-.69-2.07-1.38-2.76-.69-1.38-1.38-3.44-1.38-4.83s-.69-2.07-.69-3.44c0-.69-.69-2.07-.69-2.76v-4.83c0-2.76,.69-4.83,1.38-6.89,.69-.69,.69-2.07,1.38-2.76,0-.69,.69-1.38,1.38-2.07l.69-.69c.69-.69,1.38-1.38,1.38-2.07l.69-.69,.69-.69c1.38,0,2.07-.69,3.44-.69,.67-.69,2.05-.69,3.43-.69Z"/>
  <path class="cls-3" d="M221.9,50.31h2.07c1.38-.69,2.07-.69,3.44-.69s2.07-.69,3.44-1.38c.69,0,.69-.69,1.38-.69,0,0,.69,0,.69-.69,.69-.69,1.38-.69,2.07-1.38,.69-.69,1.38-.69,2.07-1.38,0,0,.69,0,.69-.69,1.38-.69,2.76-2.07,4.14-2.76l.69-.69c.69-.69,1.38-1.38,2.07-2.07,.69-.69,1.38-1.38,2.07-1.38,.69-.69,1.38-2.07,2.07-2.76,.69-1.38,2.07-2.07,2.76-3.44,0,0,0-.69,.69-.69,.69-1.38,1.38-2.76,2.07-4.14,0-.69,.69-1.38,.69-2.07,1.38-2.07,2.07-4.14,2.07-6.89,.69-2.07,.69-3.44,.69-5.51V4.13s0-.69-.69-.69l-.69-.69c-.69-.69-.69-1.38-1.38-1.38-.69-.69-1.38-.69-2.76-.69-.69,0-1.38-.69-2.07-.69h-4.83c-1.38,0-2.07,.69-3.44,1.38v.69c-.69,1.38-.69,3.44-.69,4.83,0,.69,0,1.38-.69,2.07-.69,3.44-1.38,6.2-2.07,9.65,0,1.38-.69,2.07-1.38,3.44s-.69,2.07-1.38,3.44v.69c0,1.38-.69,2.76-1.38,3.44-.69,1.38-1.38,2.76-2.76,3.44-.69,.69-.69,1.38-1.38,2.07-.69,.69-.69,1.38-1.38,2.07-.69,.69-1.38,2.07-2.07,2.76,0,.69-.69,1.38-.69,1.38-.69,.69-1.38,1.38-2.07,2.76-.69,.69-1.38,1.38-2.07,2.07-.69,.69-1.38,1.38-2.76,2.76v.69c1.38,.69,2.07,1.38,2.76,.69h.01Z"/>
  <path class="cls-1" d="M0,66.33c.69-1.38,.69-2.07,.69-2.76v-2.76c0-1.38,.69-2.76,1.38-4.14,.69-.69,1.38-1.38,2.76-2.07,.69-.69,2.76-.69,3.44,0,.46,.46,.92,.92,1.38,1.38,1.38,1.38,2.07,2.76,3.44,4.14,1.38,1.38,2.76,2.07,4.14,3.44,.69,.69,2.07,1.38,2.76,2.07,.69,0,.69,.69,1.38,.69,2.76,1.38,5.51,2.07,8.27,3.44,.69,0,1.38,.69,2.07,.69,.69,.69,2.07,.69,2.76,1.38,2.07,.69,4.14,1.38,6.2,2.07,.69,0,.69,.69,1.38,.69s.69,.69,1.38,.69c1.38,.69,2.07,1.38,2.76,2.07v.69c-.69,.69-2.07,1.38-2.76,1.38h-.69c-4.14,1.38-8.27,2.07-12.41,2.07-2.07,0-4.14,0-6.2,.69-2.07,0-4.14,0-6.2-.69-1.38-.69-3.44-.69-4.83-1.38-1.38-.69-2.76-1.38-4.14-2.76s-3.44-3.44-4.83-4.83c-1.38-1.38-2.76-2.76-3.44-4.14-.7-.68-.7-1.37-.7-2.06Z"/>
  <path class="cls-2" d="M126.81,27.58c2.07,0,4.83,0,6.89-.69h13.09c4.14-.69,8.96-.69,13.09-.69h1.38c6.2-.69,13.09-.69,19.29-.69h2.76c.69,0,2.07,.69,2.76,1.38,5.51,5.51,6.2,14.47,2.07,21.36-.69,1.38-2.07,2.76-3.44,3.44-1.38,.69-3.44,.69-5.51,.69s-3.44,.69-4.14,2.07c-.69,1.38,.69,3.44,1.38,4.83,1.38,1.38,9.65,13.09,11.71,13.09,.69,.69,1.38,1.38,1.38,2.07,4.14,4.83,7.58,10.34,10.34,15.85,1.38,2.76,2.76,6.2,4.14,8.96,1.38,4.14,2.76,7.58,3.44,11.71,.69,5.51,2.07,10.34,2.76,15.85,.69,4.14,.69,7.58,.69,11.71,0,4.83,0,10.34,.69,15.16,0,2.76,.69,5.51,.69,8.27v17.92c0,2.07,.69,3.44,1.38,5.51,.69,2.07,.69,4.83,.69,6.89v3.44c0,1.38,.69,2.76,.69,4.14,0,2.76,0,4.83-.69,7.58-.69,2.07-.69,4.14-1.38,5.51-.69,2.76,0,5.51,.69,7.58,1.38,7.58,.69,13.78-5.51,18.61-4.14,2.76-8.96,4.83-13.78,6.2-24.12,6.89-48.93,11.03-74.43,11.71-6.89,0-14.47,0-20.68-2.76-14.47-6.2-10.34-20.68-13.78-33.77-.69-2.07-.69-3.44-1.38-5.51-.69-4.14-1.38-8.27-2.07-12.41-.69-3.44-1.38-6.89-2.07-9.65v-1.38c0-1.38,0-2.76-.69-3.44-.69-2.07-1.38-3.44-1.38-5.51-.69-1.38-.69-2.76-.69-4.83-.69-2.76-.69-4.83-1.38-7.58,0-2.07,0-4.14-.69-6.2,0-1.38,0-3.44-.69-4.83-.69-4.14-.69-7.58-.69-11.71,.69-8.27,1.38-16.54,2.07-24.81,0-4.83,1.38-9.65,2.07-13.78,0-1.38,.69-2.76,.69-4.14,2.07-12.41,4.14-23.43,15.85-32.39,2.76-2.07,6.2-4.14,8.27-6.89s2.07-6.89-.69-8.96c-2.76-2.07-6.89-.69-10.34-2.07s-5.51-4.83-5.51-7.58c0-3.44,.69-6.2,2.07-9.65,.69-1.38,.69-2.76,2.07-3.44s2.76-1.38,4.14-1.38c5.51-1.38,11.03-1.38,17.23-2.07,4.83-1.38,10.34-3.44,15.16-2.76h0Z"/>
  <path class="cls-2" d="M79.25,77.89c-.69-.69-2.07-1.38-2.76-.69-.69,0-.69,.69-1.38,.69-3.44,3.44-5.51,8.27-4.83,12.41v2.07l-.69,.69c0,.69,.69,.69,.69,.69,4.14,2.76,8.96,2.07,13.78,2.07,.69,0,2.07,0,2.76-.69l2.07-2.07c2.07-2.76,4.14-7.58,2.07-11.03-2.07-2.76-8.27-2.76-11.71-4.14h0Z"/>
  <path class="cls-2" d="M197.78,64.1c2.07,2.76,6.2,4.14,6.89,7.58,.69,2.07,0,4.14,1.38,5.51,.69,.69,2.07,1.38,2.07,2.76,0,.69-.69,1.38-1.38,2.07-2.76,1.38-4.83,2.76-7.58,4.83-2.07,1.38-3.44,2.07-5.51,2.07-3.44,0-5.51-2.76-6.89-5.51-1.38-2.76-3.44-4.83-4.83-7.58,4.83-4.14,10.34-7.58,15.85-11.71h0Z"/>
  <path class="cls-3" d="M28.26,155.76c-2.07,.69-3.44,.69-5.51,.69s-4.14-1.38-5.51-2.76c-1.38-1.38-2.07-2.76-2.76-4.14s-1.38-2.07-1.38-3.44v-3.44c0-.69,.69-2.07,.69-2.76,1.38-2.07,2.07-4.14,3.44-6.2,.69-1.38,2.07-2.07,2.76-2.76,.69-.69,1.38-1.38,2.76-2.07,.69-.69,1.38-.69,2.07-1.38,.69-.69,1.38-.69,2.07-1.38,.69-.69,2.07-1.38,2.76-1.38,1.38-.69,3.44-1.38,4.83-2.07s3.44-1.38,4.83-1.38c2.07,0,4.14-.69,6.2-.69h6.2c1.38,0,2.76,.69,4.14,.69,.69,0,.69,.69,.69,.69,.69,1.38,.69,2.07-.69,2.76-.69,.69-1.38,.69-2.76,1.38-1.38,.69-2.07,.69-3.44,1.38-1.38,.69-2.76,1.38-3.44,2.76-1.38,.69-2.76,2.07-4.14,3.44-.46,.46-.92,.92-1.38,1.38-1.38,1.38-2.76,3.44-3.44,5.51-1.38,3.44-2.76,6.89-4.14,9.65-.69,1.38-1.38,2.07-2.76,3.44,.69,1.38-.69,2.07-2.07,2.07h0Z"/>
</svg>