<?xml version="1.0" encoding="UTF-8"?><svg id="Layer_1" xmlns="http://www.w3.org/2000/svg" viewBox="0 0 400 400"><defs><style>.cls-1{fill:#ff4814;}.cls-2{fill:#6c702f;}.cls-3{fill:#bbc6bb;}</style></defs><path class="cls-3" d="m158.26,365.9c7.43.6,14.86.6,22.29,0,7.76-.47,13.85-1.81,21.82-1.74,3.88,0,7.3-.54,11.24-.27,22.15,1.61,44.17.47,66.26.4h43.9c3.08,0,30.92-1,31.12-.6-2.88-5.96-12.18-6.29-17.54-10.64-4.35-3.55-5.69-9.57-10.57-12.45-3.75-2.21-8.7-2.01-12.92-3.48-6.96-2.41-10.71-8.57-16.6-12.18-6.49-3.88-13.79-6.36-21.28-7.3l-.94-.2c-5.69-1.07-11.44-4.55-12.58-7.43-.27-1.14-.33-2.28-.27-3.41-.47-2.41-1.61-4.62-3.35-6.36s-3.88-2.94-6.29-3.48c-2.07-.54-4.22-1-6.36-1.27-1.67-.33-3.41-.27-5.02.33-3.28-.8-6.69-.94-10.04-.47-2.14.27-4.22.94-6.16,1.94-.6.47-1.27.94-1.94,1.34-.8.4-2.14.6-3.08.94-1.94.67-3.68,1.41-5.42,2.21-3.68,1.61-18,2.48-23.63,2.54-1.2,0-2.34-.07-3.48-.27-1.34-.27-2.61-.54-3.88-.74-1.81-.33-3.68-.54-5.49-.6h-5.02c-3.01,0-5.96.2-8.9.67-1.07.2-1.94.54-2.88.67-.87.2-2.61,0-3.75.27-.4.13-.74.27-1.07.54-1.07.67-2.01,1.47-2.88,2.41-.2.27-.47.54-.8.67-.8.33-1.61.54-2.48.67-1.14.33-2.14.87-3.08,1.61l-2.68,1.94c-3.28,2.34-7.83,7.56-13.52,11.38-2.88,1.27-5.89,2.21-8.97,2.88-3.55,1.27-6.89,3.01-9.97,5.09-.74.6-1.61,1.07-2.54,1.41-7.09,1.94-14.05-.67-19.54,5.69-2.21,2.54-3.28,5.69-5.69,8.23-3.81,3.75-9.97,4.55-15.33,6.22-7.56,2.28-14.32,6.69-19.41,12.78,1.47-1.81,22.22-.2,25.5-.27,7.5-.2,15.06.2,22.42,0,3.75,0,7.43-.47,11.18-.27l49.59.6Z"/><path class="cls-2" d="m183.29,142.49c.13,1.54.6,3.01,1.41,4.35.13.2,0,.67,0,1s-.2.47-.47.4c-.33-.07-.67-.13-.94-.33-3.15-3.28-6.89-5.96-10.04-9.24-3.21-3.21-6.22-6.69-8.97-10.37-1.94-2.54-4.35-4.68-7.16-6.22-2.07-1.2-4.22-2.28-6.36-3.35-1.2-.6-2.54-.94-3.88-1.14-1.27-.13-2.48-.47-3.61-1-2.41-.94-4.95-1.61-7.56-1.94-.54-.07-1.14,0-1.67.13-.27.07-.54.27-.67.47-.13.27-.2.54-.2.8.2.8.27,1.61.33,2.41,0,5.69,2.81,10.37,5.56,14.99.33.6.74,1.14,1.2,1.67,2.54,2.94,5.35,5.56,8.43,7.9,1.94,1.41,3.88,2.81,5.69,4.35,1.2,1.07,2.68,1.81,4.28,2.01,3.35.54,6.76.8,10.17.8,1.14-.07,2.28-.2,3.35-.54,2.34-.4,4.75-.6,7.16-.6.6,0,1.14.2,1.61.54.33.27.67.6,1.07.87l2.74,1.94c.67,1.67,1.07,3.41,1.27,5.15-.33.33-.74.6-1.2.74-.47.13-.94.13-1.41.07-2.88-.54-5.82-1-8.7-1.47-1.54-.2-3.15-.54-4.68-.94-3.95-1.14-8.1-1.41-12.18-.8-3.48.07-6.96.6-10.37,1.54-.6.27-1.27.47-1.94.47-1.47-.2-2.94.13-4.28.87-.4.2-.87.33-1.34.4-2.01.4-4.02,1-5.89,1.81-.4.2-.87.27-1.27.2-.54-.13-1.14-.2-1.67-.13s-1.07.27-1.61.6c-1.47.67-3.01,1.07-4.62,1.34-.94.2-1.74.67-2.34,1.41-.27.27-.4.6-.4.94s.13.67.4.94c.87.74,1.81,1.41,2.74,2.01,1.34.8,2.61,1.74,3.81,2.81.8.67,1.61,1.27,2.41,1.87.27.27.67.47,1.07.6.4.07.8.07,1.2,0,.4-.13.8-.13,1.14-.07.4.07.74.27,1.07.47l1.67,1.2c2.61,1.94,5.69,3.28,8.9,3.88,2.74.6,5.49,1.27,8.23,2.14,1.41.33,2.88.74,4.28,1,3.48.67,7.03.67,10.51,0l5.35-1.2c3.15-.6,6.09-2.21,8.37-4.48.74-.74,1.54-1.34,2.41-1.94,0,0,.47,0,.6.13.13.2.27.4.33.6.33,1.47.54,2.94.47,4.48,0,1.74.2,3.48.54,5.15.54,2.34.8,4.75.74,7.16-.2,2.88.2,5.76,1.14,8.5.13.47.2.87.27,1.34.2.94,0,1.47-.27,1.54-.27,0-.8-.33-1.07-.67-1.67-2.14-3.61-4.08-5.76-5.76-1-.74-2.07-1.41-3.21-1.94-.6-.27-1.27-.54-1.87-.87-1.94-1.2-4.28-1.67-6.56-1.27-1.14.2-2.28-.07-3.21-.74-3.95-2.61-7.5-.6-11.38.87-.6.33-1.27.47-1.94.54s-1.34-.07-2.01-.27c-.54-.2-1.14-.27-1.67-.2-2.14.2-4.35.4-6.43.74-.8.13-1.54.4-2.21.87-.8.4-1.61.94-2.28,1.47-1.61,1.34-3.55,2.21-5.56,2.61-2.14.47-4.22,1.07-6.22,1.94-.54.27-1.07.4-1.61.6-1.47.33-2.81.94-4.02,1.81-.94.67-1.14,1.14-.4,1.81,1.07,1,2.28,1.94,3.35,2.88,2.88,2.41,6.02,4.48,9.37,6.16,3.55,1.74,7.09,3.55,10.57,5.42,2.14,1.07,4.42,1.87,6.69,2.41.87.2,1.74.4,2.61.74,4.28,1.47,8.77,2.34,13.32,2.61,2.41.2,4.75,0,7.16,0,2.07,0,4.08-.4,6.02-1.2.87-.33,1.74-.67,2.61-.94,3.28-.94,6.02-3.08,7.76-6.02h.6c.13.07.2.13.27.2.2.4.27.87.4,1.27.2,1.81.47,3.68.54,5.49.07,2.28.6,4.55,1.54,6.69.4.8.74,1.67,1.07,2.61.8,1.94,1.07,4.08.67,6.09-.13,1.41-.13,2.74,0,4.15,0,.2-.54.6-.8.47-1.34-.54-2.68-1.27-3.81-2.21-2.01-2.01-4.68-3.35-7.5-3.68-1.07-.27-2.21-.6-3.28-.8-1.2-.33-2.41-.54-3.68-.67-5.15-.2-10.37-1.41-15.53-1.61-.47-.07-.94,0-1.34.13-1.41.47-2.88.74-4.35.67-.94-.07-1.81.2-2.61.67-1.07.67-2.28,1.07-3.55,1.27-1.47.2-2.94.67-4.22,1.47-1.27.74-2.68,1.34-4.15,1.67-.67.2-1.27.47-1.87.74-.27.2-.6.33-.94.47-2.01.54-3.88,1.41-5.56,2.61-.6.33-1.27.6-1.94.67-.8.2-1.61.2-2.34.33-.47,0-.94.2-1.27.47-1.47,1.07-3.08,1.94-4.82,2.61,0,0-.13.2-.2.2-.07.07-.2.8,0,.94,1.41.94,2.88,1.81,4.42,2.61.33.07.67.27.94.4,2.34,2.07,5.42,2.81,7.76,4.62l.87.6c1.61,1.41,3.41,2.61,5.35,3.55,2.01.87,3.88,1.81,5.76,2.88.74.33,1.47.67,2.14,1.07,2.61,1.41,5.35,2.54,8.17,3.28,2.34.74,4.75,1.47,7.23,2.01,3.28.8,6.69,1.27,10.11,1.27,2.07,0,4.08,0,6.16-.27,1.94-.13,3.81-.67,5.56-1.67.6-.4,1.2-.67,1.87-.94,3.88-1.2,7.3-3.55,9.77-6.76.94-1.14,1.61-1,2.28.4.8,1.61,1.27,3.35,1.41,5.15.07,1.87.27,3.68.67,5.49.27,1,.47,2.01.54,3.08.27,2.14.74,4.28,1.47,6.36.27.74.4,1.54.47,2.34.07,1.14.4,2.28,1,3.21.6,1,1.41,1.81,2.41,2.41.94.8,1.94,1.54,3.08,2.07.2,0,.4-.07.6-.2l.13-.13v-.2c-.27-1.61-.47-3.21-.74-4.75,0,0-1.34-4.48-1.81-6.63-.87-4.22-1.61-8.37-2.61-12.58-.27-1.47-.67-2.88-1.07-4.35,0-.13,0-.2.07-.33s.13-.2.2-.27c.07-.07.2-.13.27-.13h.33c1.2.27,2.41.74,3.48,1.34,2.94,1.61,6.09,2.81,9.37,3.48,1.87.47,3.81.67,5.76.6h4.75c2.48.07,5.02-.13,7.5-.6,1.27-.13,2.48-.54,3.55-1.14,2.88-1.47,5.76-2.81,8.77-3.95,3.55-1.47,6.89-3.61,9.77-6.16,1.94-1.81,3.88-3.61,5.69-5.56,1-1.07,2.07-2.14,3.08-3.28,1.07-1.07,2.01-2.21,2.88-3.48,1.47-2.07,2.88-4.22,4.08-6.43,1-1.94,2.28-3.75,3.48-5.62.2-.33,0-1-.4-1.14-.54-.2-1.07-.27-1.67-.33-2.61,0-5.02.2-7.5.4-.67.07-1.34.27-1.94.54-1.34.6-2.81.87-4.35.8-2.61-.13-5.22.07-7.76.67-.87.2-1.81.2-2.74,0-2.88-.54-5.76-1.14-8.7-1.61-1.2-.2-2.48-.27-3.75-.33h-1.41c-3.08-.2-6.09-.27-9.17-.4-2.07-.07-4.08.13-6.09.6-2.81.6-5.62,1-8.43,1.2-2.07.13-4.08,1.07-5.49,2.61-.87.94-1.81,1.81-2.81,2.61-1.61,1.14-2.74,2.88-3.21,4.82-.07.33-.2.67-.4.94-.2.27-.47.54-.74.74-.27.2-.8,0-.87-.2-.13-.33-.27-.67-.33-1-.27-1.27-.54-2.61-.74-3.75-1-5.29-2.34-10.44-4.08-15.53-.8-2.01-1.34-4.15-1.67-6.29,0-.2.13-.4.27-.6s.2,0,.33,0c.13-.07.2-.07.33,0,2.21,1.34,4.55,2.54,6.89,3.61,3.68,1.81,7.76,2.74,11.85,2.74,3.08,0,6.16-.27,9.17-.87,2.61-.54,5.42-.94,8.1-1.61,4.68-1.2,9.04-3.35,12.98-6.16,2.14-1.61,4.35-3.08,6.56-4.55,2.68-1.81,5.09-4.02,7.16-6.49.6-.74,1.14-1.47,1.61-2.21,1.41-2.28,2.81-4.55,4.15-6.83.07-.07.07-.2.07-.33s0-.2-.07-.33c-.54-.4-1.14-.74-1.74-1-2.07-.67-4.22-1.07-6.36-1.2-2.01-.07-4.02-.47-5.96-1.14-2.01-.74-4.22-1.07-6.36-.87-2.28.2-4.55.2-6.83,0-1.47,0-2.94-.2-4.42-.27-2.07-.13-4.15-.07-6.22.27-2.48.47-4.95.74-7.5.87-3.21.2-6.36.6-9.5.94-2.61.33-5.15,1.2-7.43,2.61-1.2.74-2.41,1.34-3.61,2.01-2.14,1.14-3.81,2.94-4.75,5.15-.27.67-.6,1.27-.94,1.87,0,0-.2.2-.27.13-.2-.07-.4-.13-.6-.27-.13-.2-.27-.4-.33-.6-.2-1-.33-2.07-.4-3.08,0-3.55-.4-7.09-1.07-10.51-.54-3.41-.74-6.89-.67-10.37,0-.27.07-.47.2-.67.13-.13.47-.33.6-.27.6.27,1.2.67,1.74,1.07,1.94,1.61,3.95,3.01,6.02,4.48,1.67,1.14,3.61,1.94,5.62,2.41,5.56,1.2,11.24,1.2,16.8,0,5.56-1.2,10.78-3.55,15.33-6.89.6-.54,1.34-.94,2.07-1.27,2.81-1.34,5.62-2.61,8.43-3.88,1.47-.6,2.94-1.34,4.28-2.21,1.14-.8,2.34-1.47,3.68-1.94,1-.33,1.14-1.34.33-2.14-.13-.2-.33-.33-.54-.47-1.27-.74-2.68-1.2-4.15-1.41-2.94-.2-5.89-.67-8.77-1.14-2.01-.27-4.08-.47-6.09-.47-2.61,0-5.15-.2-7.76-.33-1.61-.13-3.21-.07-4.75.33-1.34.33-2.68.4-4.02.33h-6.49c-3.21,0-6.36,0-9.57.2-1.94.13-3.88-.27-5.56-1.14-1.2-.6-2.41-1.27-3.55-2.07-1.07-.8-2.34-1.34-3.55-2.01-.07-.07-.13-.13-.13-.27,0-.07-.07-.2,0-.33.07-.07.13-.2.2-.2.07-.07.2-.07.27-.13.47,0,.87.07,1.34.2.67.2,1.27.54,1.87.8,1.34.6,2.81.94,4.28.94,1.47-.07,2.94.07,4.35.4.54.13,1.14.2,1.67.2h5.82c1.41,0,2.88-.27,4.15-.8,2.81-1.27,5.62-2.61,8.43-3.95,1.81-.87,3.35-2.14,4.55-3.68,3.48-4.08,6.36-8.57,8.63-13.39,1.47-3.15,2.07-6.63,1.81-10.11-.07-.94,0-1.87.2-2.74.33-1.61.54-3.21.74-4.82.13-1.47-.13-3.01-.74-4.35-.13-.4-.47-.8-.8-1.07s-.8-.4-1.27-.47c-3.61-.4-7.3-.27-10.84.54-.47.07-.87.2-1.27.4-1.14.54-2.28.94-3.48,1.34-1.61.6-3.21,1.27-4.75,2.01-.6.33-1.14.74-1.61,1.27-1.61,1.67-3.35,3.15-5.15,4.48-2.88,2.14-5.49,4.62-7.76,7.36-.8.94-1.67,1.81-2.61,2.61-1.61,1.34-3.08,2.74-4.75,4.08-1.54,1.2-2.74,2.81-3.48,4.68-.2.54-.47,1.07-.67,1.61-.2.54-.6.6-.8.4-.2-.2-.33-.33-.4-.54-.07-.33-.07-.67,0-1-.07-1.47-.07-2.94.13-4.42.6-1.34,1.47-2.61,2.61-3.68.47-.8,1.07-1.47,1.74-2.14,2.07-1.87,3.55-4.35,4.28-7.03.54-1.54.74-3.15,1.41-4.62.2-.8.33-1.61.4-2.41.6-3.41.67-6.89.2-10.37-.07-1.14-.33-2.28-.67-3.41-1-3.28-2.41-6.43-4.02-9.44-1-1.67-1.87-3.41-2.74-5.15-.4-.74-.74-1.47-1.14-2.14-1.2-1.94-2.41-3.88-3.68-5.82-1.34-2.01-3.08-3.68-5.15-4.89-.27-.13-.6-.27-.87-.27-.33,0-.6.07-.94.13-.27.13-.54.33-.74.54-.2.27-.33.54-.4.8-.47,1.94-1.14,3.75-2.01,5.56-.6,1.27-1,2.61-1.27,3.95-.2,1.47-.94,2.88-2.01,3.95-.87.94-1.41,2.14-1.47,3.41,0,.67,0,1.41-.2,2.07-.13,1.47-.47,2.94-1.07,4.35-1.61,3.41-1.87,7.23-.74,10.84.4,1.54.47,3.21.2,4.82-.13,2.68-.07,5.35.27,7.96.07,1.07.54,2.01,1.27,2.74,2.61,2.61,4.48,5.69,7.09,8.3,1.07,2.14,2.74,3.48,4.62,4.55Z"/><path class="cls-1" d="m328.05,212.63c.8.74,1.41,1.41,2.07,1.94,1.87,1.47,2.34,3.61,2.54,5.76.07.47-.07,1,0,1.47.07,1.27-.47,2.34-1.61,3.15-.33.27-.6.54-.94.8-.4.4-.94.54-1.47.54-1.14,0-2.28.07-3.48,0-1-.07-1.87-.4-2.28-1.27-.4-.8-.94-1.41-1.61-2.07-2.07-2.01-4.15-4.08-5.76-6.43-.13-.13-.2-.33-.27-.54-.13-.27,0-.87.27-1.07,1.27-1,2.81-1.47,4.28-1.94.6-.2,1.2-.33,1.81-.54.6-.27,1.2-.33,1.87-.27,1.47.2,2.94.27,4.55.47Z"/><path class="cls-1" d="m300.01,88.28c-.33.74-.54,1.14-.67,1.61-.47,1.14-1.34,1.81-2.28,2.34-1.81,1-2.81.87-4.35-.54-1.67-1.54-3.35-3.15-4.75-5.09-.94-1.34-2.14-2.48-3.81-2.88-1-.2-1.54-1.27-1.34-2.34.2-1,.4-2.01.07-3.01-.54-1.41-.13-2.68.33-3.88.67-1.87,1.41-3.68,2.14-5.56.54-1.34,1.54-2.07,2.68-2.68.67-.33,1.54-.54,2.28-.33,4.15,1,7.76,3.15,10.64,6.63,1.27,1.47,2.07,3.01,1.67,5.09.47,4.08-.47,7.63-2.61,10.64Z"/><path class="cls-1" d="m217.09,51.6c-.67,1.81-1.61,2.54-2.54,3.21-1.14.8-2.34.8-3.81.13-4.22-1.81-6.22-4.42-6.22-7.9,0-.8.07-1.61.13-2.41.07-1.47.27-2.88-.33-4.42-.33-.87-.07-1.61.87-2.07,1.14-.6,1.67-1.54,2.21-2.48.6-1.2,1.54-2.21,2.68-3.15,1-.8,2.28-1,3.75-.8,2.14.27,4.15,1.07,6.09,1.87,1.34.54,1.81,1.27,1.67,2.41-.07.4-.07.8-.13,1.2-1.41,4.82-2.28,9.77-4.35,14.39-.07.27-.2.54,0,0Z"/><path class="cls-1" d="m277.99,298.5c-1.27-.6-2.21-1.47-2.94-2.54-2.68-3.81-3.61-8.23-3.95-12.78-.07-1.07.27-2.28.47-3.41.2-.94,1.34-1.67,2.34-1.67.54,0,1.07-.07,1.54.13,2.21.74,4.35.6,6.56-.13.67-.2,1.34-.4,2.01-.4,2.21.07,3.35.87,3.55,2.74.54,5.69.54,11.38,0,17.07,0,.33-.07.67-.2.94-.2.74-1.67,1.81-2.41,1.67-2.41-.54-4.68-1.07-6.96-1.61Z"/><path class="cls-1" d="m325.51,157.35c-1-.4-1.87-.8-2.74-1.14-1.74-.67-2.21-2.48-2.28-4.48-.07-1.74.87-3.48,2.34-4.42.27-.2.54-.4.87-.54,4.42-1.81,8.83-3.41,13.18-3.48h.87c1.87.07,3.08,1.14,3.88,2.88.6,1.27.33,2.88-.47,4.42-.74,1.47-1.81,2.74-3.15,3.48-2.88,1.61-5.69,3.15-8.7,2.94-1.27-.13-2.61.2-3.81.33Z"/><path class="cls-1" d="m124.59,72.82c-2.61-1.07-4.89-3.01-7.3-4.89-3.95-3.15-3.95-6.96-2.54-11.24.27-.94.74-1.81,1.27-2.61.47-.6,1.14-1.2,1.81-1.47,1.74-.67,3.48-.94,5.29-.47,2.48.67,4.82,1.54,6.36,3.75.74,1.07,1.74,2.01,2.54,3.01,1.47,2.01,2.48,4.22,2.94,6.63.54,2.81-.33,5.29-2.28,7.43-.47.54-1.34.87-2.07,1.07-2.14.54-4.02-.07-6.02-1.2Z"/><path class="cls-1" d="m111.94,299.3c-1.67,3.81-3.55,6.69-6.43,8.9-3.61,2.81-7.16,3.21-11.11,1.07-.8-.4-1.47-1.07-1.94-1.81-.87-1.54-1.54-3.15-2.28-4.75-.47-1.07-.4-2.14,0-3.28.33-.87.6-1.74.87-2.54.6-2.14,2.14-3.55,4.15-4.42,1.74-.74,3.55-1.41,5.35-1.87,2.28-.6,4.62-1.07,6.96-1.34,1.14-.13,2.34,0,3.41.27,1.81.4,2.81,1.61,2.68,3.28-.07.87-.2,1.81-.33,2.68-.13.67-.4,1.27-.67,1.94-.27.87-.6,1.67-.67,1.87Z"/><path class="cls-1" d="m56.73,144.77c-1.94-1-3.55-1.74-5.02-2.61-2.41-1.47-4.08-3.68-5.15-6.22-.13-.33,0-.94.27-1.14,1.61-1.61,3.28-3.01,5.69-3.28.87-.07,1.87-.07,2.61-.4,3.35-1.41,6.56-.2,9.84-.27.6,0,1.27.33,1.81.67,1.81,1.14,3.35,2.54,4.75,4.22,1.47,1.74,1.74,3.75,1.34,5.89-.27,1.41-1.14,2.34-2.41,2.94-4.82,2.28-9.5,1.74-13.72.2Z"/><path class="cls-1" d="m41.2,222.4c-.07-.07-1.07-.47-1.81-1-1.67-1.27-2.68-2.94-2.14-5.09.33-1.47.8-2.88,1.34-4.28.47-1.2,1.41-2.28,2.74-2.41,3.35-.47,6.63-1.41,9.84-2.28,2.74-.74,9.77-.27,12.18.67,1.2.47,2.01,1.41,2.34,2.68.07.2.13.47.13.74-.07,2.61.67,5.35-.74,7.96-3.28,2.61-6.76,4.75-11.11,5.22-4.15.4-8.1-.54-12.78-2.21Z"/></svg>